{
.appVersion = "1141";
DisplayStrings = (
"ABCDEFGHIJKLMNOPQRSTUVWXYZ\012\012MONTURFEN",
"ÁÂÄÀ/Aogonek ÅÃ/Cacute/Cacute/Ccaron Ç/Dcaron É/Ecaron ÊË/Edotaccent È/Eogonek/Gcommaaccent ÍÎÏÌ/Iogonek/Kcommaaccent/Lacute/Lcommaaccent/Nacute/Ncaron/Ncommaaccent Ñ/Racute/Rcaron/Rcommaaccent/Sacute/Scaron/Scedilla/Tcaron/Tcedilla ÚÛÜÙ/Uhungarumlaut/Uogonek/Uring/Wacute/Wcircumflex/Wdieresis/Wgrave Ý/Ycircumflex/Ydieresis/Ygrave/Zacute/Zacute/Zcaron/Zcaron/Zdotaccent áäã/cacute/ccaron çíîï/lacute/racute/rcaron/rcommaaccent/sacute/scaron/scedilla/tcedilla/wacute/wdieresis/zacute/zcaron/zdotaccent/trademark",
mudnaendos,
"abcdefghijklmnopqrstuvwxyznnnom\012\012open house\012the best around\012sunday funk\012crazynwn stupid nlonve\012Mojave desert"
);
date = "2017-07-05 13:14:12 +0000";
designer = "Mirco Monsees";
familyName = Shakespeare;
fontMaster = (
{
alignmentZones = (
"{800, -20}",
"{700, 20}",
"{500, 15}",
"{0, -15}",
"{-195, -20}"
);
ascender = 800;
capHeight = 700;
customParameters = (
{
name = paramArea;
value = "410";
},
{
name = paramDepth;
value = "22";
},
{
name = paramOver;
value = "9";
}
);
descender = -200;
id = "1B5E7594-BD1E-41E1-80E1-0DE241437139";
userData = {
GSCornerRadius = 38;
};
weight = Light;
weightValue = 65;
xHeight = 500;
},
{
alignmentZones = (
"{806, -20}",
"{706, 20}",
"{506, 20}",
"{0, -20}",
"{-215, 20}"
);
ascender = 806;
capHeight = 706;
custom = Black;
customParameters = (
{
name = paramArea;
value = "280";
},
{
name = paramDepth;
value = "23";
},
{
name = paramOver;
value = "2";
}
);
descender = -200;
iconName = Bold;
id = "5A1ECF60-5C3D-4C60-84B4-C69E600E0422";
userData = {
GSCornerRadius = 40;
};
weightValue = 175;
xHeight = 506;
}
);
glyphs = (
{
color = 1;
glyphname = A;
lastChange = "2018-06-15 20:12:08 +0000";
layers = (
{
anchors = (
{
name = bottom;
position = "{313, 0}";
},
{
name = ogonek;
position = "{563, 10}";
},
{
name = top;
position = "{313, 655}";
}
);
background = {
components = (
{
name = V;
transform = "{-1, 0, 0, -1, 651, 703}";
}
);
};
layerId = "5A1ECF60-5C3D-4C60-84B4-C69E600E0422";
paths = (
{
closed = 1;
nodes = (
"92 0 LINE",
"264 -3 LINE",
"264 86 LINE",
"229 93 LINE SMOOTH",
"207 97 OFFCURVE",
"200 116 OFFCURVE",
"204 138 CURVE SMOOTH",
"279 520 LINE",
"298 520 LINE",
"357 130 LINE SMOOTH",
"360 108 OFFCURVE",
"351 92 OFFCURVE",
"328 89 CURVE SMOOTH",
"304 86 LINE",
"304 -3 LINE",
"488 0 LINE",
"640 -3 LINE",
"640 86 LINE",
"616 91 LINE SMOOTH",
"596 95 OFFCURVE",
"587 101 OFFCURVE",
"583 121 CURVE SMOOTH",
"458 698 LINE",
"440 716 LINE",
"185 684 LINE",
"47 134 LINE SMOOTH",
"42 116 OFFCURVE",
"23 102 OFFCURVE",
"5 95 CURVE SMOOTH",
"-18 86 LINE",
"-18 -3 LINE"
);
},
{
closed = 1;
nodes = (
"369 197 LINE",
"356 296 LINE",
"193 296 LINE",
"168 197 LINE"
);
}
);
width = 625;
},
{
associatedMasterId = "5A1ECF60-5C3D-4C60-84B4-C69E600E0422";
layerId = "CF9093F7-A231-4E4E-A851-3B74EE9DCD64";
name = "Mar 25 18, 12:33";
paths = (
{
closed = 1;
nodes = (
"197 189 LINE",
"398 189 LINE",
"398 288 LINE",
"197 288 LINE"
);
},
{
closed = 1;
nodes = (
"395 130 LINE SMOOTH",
"400 108 OFFCURVE",
"390 92 OFFCURVE",
"367 89 CURVE SMOOTH",
"343 86 LINE",
"343 -3 LINE",
"516 0 LINE",
"680 -3 LINE",
"680 86 LINE",
"648 89 LINE SMOOTH",
"628 91 OFFCURVE",
"616 101 OFFCURVE",
"611 121 CURVE SMOOTH",
"454 700 LINE",
"436 718 LINE",
"341 704 OFFCURVE",
"248 694 OFFCURVE",
"155 690 CURVE",
"155 600 LINE",
"182 599 LINE SMOOTH",
"214 598 OFFCURVE",
"226 580 OFFCURVE",
"216 550 CURVE SMOOTH",
"78 134 LINE SMOOTH",
"72 116 OFFCURVE",
"54 99 OFFCURVE",
"36 95 CURVE SMOOTH",
"-10 86 LINE",
"-10 -3 LINE",
"121 0 LINE",
"275 -3 LINE",
"275 86 LINE",
"240 93 LINE SMOOTH",
"218 97 OFFCURVE",
"210 116 OFFCURVE",
"215 138 CURVE SMOOTH",
"307 505 LINE"
);
}
);
width = 670;
},
{
anchors = (
{
name = bottom;
position = "{332, 0}";
},
{
name = ogonek;
position = "{584, 10}";
},
{
name = top;
position = "{332, 670}";
}
);
background = {
components = (
{
name = H;
transform = "{1, 0, 0, 1, -33, 0}";
}
);
};
layerId = "1B5E7594-BD1E-41E1-80E1-0DE241437139";
paths = (
{
closed = 1;
nodes = (
"123 0 LINE",
"255 -3 LINE",
"255 28 LINE",
"191 40 LINE SMOOTH",
"162 45 OFFCURVE",
"154 61 OFFCURVE",
"161 83 CURVE SMOOTH",
"329 625 LINE",
"332 625 LINE",
"488 73 LINE SMOOTH",
"494 53 OFFCURVE",
"479 38 OFFCURVE",
"460 35 CURVE SMOOTH",
"408 28 LINE",
"408 -3 LINE",
"527 0 LINE",
"652 -3 LINE",
"652 28 LINE",
"599 37 LINE SMOOTH",
"583 40 OFFCURVE",
"568 52 OFFCURVE",
"563 69 CURVE SMOOTH",
"375 701 LINE",
"367 707 LINE",
"300 691 LINE",
"101 83 LINE SMOOTH",
"92 57 OFFCURVE",
"81 43 OFFCURVE",
"57 38 CURVE SMOOTH",
"10 28 LINE",
"10 -3 LINE"
);
},
{
closed = 1;
nodes = (
"457 215 LINE",
"458 261 LINE",
"194 261 LINE",
"193 215 LINE"
);
}
);
width = 662;
}
);
leftKerningGroup = A;
rightKerningGroup = A;
unicode = 0041;
},
{
color = 1;
glyphname = B;
lastChange = "2018-06-15 20:12:08 +0000";
layers = (
{
anchors = (
{
name = bottom;
position = "{348, 0}";
},
{
name = top;
position = "{348, 655}";
}
);
background = {
components = (
{
name = R;
transform = "{1, 0, 0, 1, -5, 0}";
}
);
};
layerId = "5A1ECF60-5C3D-4C60-84B4-C69E600E0422";
paths = (
{
closed = 1;
nodes = (
"197 0 LINE",
"361 -3 LINE",
"361 86 LINE",
"336 88 LINE SMOOTH",
"315 90 OFFCURVE",
"303 105 OFFCURVE",
"303 126 CURVE SMOOTH",
"307 570 LINE SMOOTH",
"307 591 OFFCURVE",
"319 632 OFFCURVE",
"340 635 CURVE SMOOTH",
"362 638 LINE",
"362 709 LINE",
"201 706 LINE",
"35 709 LINE",
"35 610 LINE",
"54 606 LINE SMOOTH",
"75 602 OFFCURVE",
"86 590 OFFCURVE",
"86 569 CURVE SMOOTH",
"91 129 LINE SMOOTH",
"91 108 OFFCURVE",
"77 93 OFFCURVE",
"56 91 CURVE SMOOTH",
"34 89 LINE",
"34 -3 LINE"
);
},
{
closed = 1;
nodes = (
"482 -10 OFFCURVE",
"672 18 OFFCURVE",
"672 181 CURVE SMOOTH",
"672 376 OFFCURVE",
"487 372 OFFCURVE",
"242 372 CURVE",
"248 299 LINE",
"390 312 OFFCURVE",
"439 297 OFFCURVE",
"439 203 CURVE SMOOTH",
"439 128 OFFCURVE",
"413 90 OFFCURVE",
"285 99 CURVE",
"328 -2 LINE"
);
},
{
closed = 1;
nodes = (
"507 336 OFFCURVE",
"651 383 OFFCURVE",
"651 545 CURVE SMOOTH",
"651 727 OFFCURVE",
"422 712 OFFCURVE",
"268 706 CURVE",
"285 602 LINE",
"383 609 OFFCURVE",
"419 594 OFFCURVE",
"419 498 CURVE SMOOTH",
"419 430 OFFCURVE",
"399 393 OFFCURVE",
"230 407 CURVE",
"232 336 LINE"
);
}
);
width = 696;
},
{
anchors = (
{
name = bottom;
position = "{303, 0}";
},
{
name = top;
position = "{303, 670}";
}
);
background = {
components = (
{
name = R;
transform = "{1, 0, 0, 1, -14, 0}";
}
);
};
layerId = "1B5E7594-BD1E-41E1-80E1-0DE241437139";
paths = (
{
closed = 1;
nodes = (
"159 0 LINE",
"282 -3 LINE",
"282 26 LINE",
"228 35 LINE SMOOTH",
"204 39 OFFCURVE",
"191 51 OFFCURVE",
"191 75 CURVE SMOOTH",
"191 622 LINE SMOOTH",
"191 646 OFFCURVE",
"193 672 OFFCURVE",
"217 676 CURVE SMOOTH",
"270 684 LINE",
"280 704 LINE",
"154 700 LINE",
"41 704 LINE",
"41 672 LINE",
"87 666 LINE SMOOTH",
"111 663 OFFCURVE",
"124 645 OFFCURVE",
"124 621 CURVE SMOOTH",
"124 75 LINE SMOOTH",
"124 51 OFFCURVE",
"112 38 OFFCURVE",
"88 34 CURVE SMOOTH",
"40 26 LINE",
"40 -3 LINE"
);
},
{
closed = 1;
nodes = (
"425 -14 OFFCURVE",
"547 37 OFFCURVE",
"547 200 CURVE SMOOTH",
"547 392 OFFCURVE",
"300 368 OFFCURVE",
"146 361 CURVE",
"154 329 LINE",
"366 346 OFFCURVE",
"474 309 OFFCURVE",
"474 193 CURVE SMOOTH",
"474 62 OFFCURVE",
"393 28 OFFCURVE",
"156 46 CURVE",
"231 -2 LINE"
);
},
{
closed = 1;
nodes = (
"391 347 OFFCURVE",
"516 377 OFFCURVE",
"516 539 CURVE SMOOTH",
"516 721 OFFCURVE",
"307 709 OFFCURVE",
"153 700 CURVE",
"151 654 LINE",
"351 680 OFFCURVE",
"442 631 OFFCURVE",
"442 529 CURVE SMOOTH",
"442 406 OFFCURVE",
"353 375 OFFCURVE",
"155 373 CURVE",
"147 343 LINE"
);
}
);
width = 597;
}
);
unicode = 0042;
},
{
color = 1;
glyphname = C;
lastChange = "2018-06-15 20:12:08 +0000";
layers = (
{
anchors = (
{
name = bottom;
position = "{300, 0}";
},
{
name = top;
position = "{340, 670}";
}
);
layerId = "1B5E7594-BD1E-41E1-80E1-0DE241437139";
paths = (
{
closed = 1;
nodes = (
"412 -18 OFFCURVE",
"496 -9 OFFCURVE",
"556 28 CURVE",
"547 155 LINE",
"501 155 LINE",
"505 52 OFFCURVE",
"483 36 OFFCURVE",
"373 31 CURVE SMOOTH",
"222 24 OFFCURVE",
"122 150 OFFCURVE",
"126 355 CURVE SMOOTH",
"130 589 OFFCURVE",
"259 671 OFFCURVE",
"389 671 CURVE SMOOTH",
"485 671 OFFCURVE",
"504 646 OFFCURVE",
"500 558 CURVE",
"543 558 LINE",
"561 701 LINE",
"510 712 OFFCURVE",
"461 717 OFFCURVE",
"416 717 CURVE SMOOTH",
"197 717 OFFCURVE",
"57 599 OFFCURVE",
"52 344 CURVE SMOOTH",
"47 110 OFFCURVE",
"170 -18 OFFCURVE",
"351 -18 CURVE SMOOTH"
);
}
);
width = 610;
},
{
anchors = (
{
name = bottom;
position = "{322, 0}";
},
{
name = top;
position = "{362, 655}";
}
);
background = {
components = (
{
name = G;
transform = "{1, 0, 0, 1, -3, 0}";
}
);
};
layerId = "5A1ECF60-5C3D-4C60-84B4-C69E600E0422";
paths = (
{
closed = 1;
nodes = (
"429 -17 OFFCURVE",
"526 3 OFFCURVE",
"600 38 CURVE",
"583 272 LINE",
"453 272 LINE",
"460 170 OFFCURVE",
"433 122 OFFCURVE",
"364 122 CURVE SMOOTH",
"269 122 OFFCURVE",
"265 209 OFFCURVE",
"266 338 CURVE SMOOTH",
"267 512 OFFCURVE",
"296 597 OFFCURVE",
"364 600 CURVE SMOOTH",
"424 603 OFFCURVE",
"467 605 OFFCURVE",
"450 462 CURVE",
"586 462 LINE",
"610 699 LINE",
"536 716 OFFCURVE",
"461 725 OFFCURVE",
"400 725 CURVE SMOOTH",
"155 725 OFFCURVE",
"22 587 OFFCURVE",
"22 336 CURVE SMOOTH",
"22 103 OFFCURVE",
"153 -12 OFFCURVE",
"326 -15 CURVE SMOOTH"
);
}
);
width = 643;
}
);
unicode = 0043;
},
{
color = 1;
glyphname = D;
lastChange = "2018-06-15 20:12:08 +0000";
layers = (
{
anchors = (
{
name = bottom;
position = "{354, 0}";
},
{
name = center;
position = "{354, 353}";
},
{
name = top;
position = "{354, 655}";
}
);
background = {
components = (
{
name = i;
transform = "{1, 0, 0, 1, 12, 0}";
}
);
};
layerId = "5A1ECF60-5C3D-4C60-84B4-C69E600E0422";
paths = (
{
closed = 1;
nodes = (
"556 -23 OFFCURVE",
"683 100 OFFCURVE",
"683 359 CURVE SMOOTH",
"683 643 OFFCURVE",
"545 727 OFFCURVE",
"268 706 CURVE",
"282 592 LINE",
"419 607 OFFCURVE",
"444 573 OFFCURVE",
"444 365 CURVE SMOOTH",
"444 139 OFFCURVE",
"422 95 OFFCURVE",
"287 103 CURVE",
"282 0 LINE"
);
},
{
closed = 1;
nodes = (
"197 0 LINE",
"361 -3 LINE",
"361 89 LINE",
"336 91 LINE SMOOTH",
"315 93 OFFCURVE",
"303 105 OFFCURVE",
"303 126 CURVE SMOOTH",
"307 570 LINE SMOOTH",
"307 591 OFFCURVE",
"319 604 OFFCURVE",
"340 607 CURVE SMOOTH",
"362 610 LINE",
"362 709 LINE",
"201 706 LINE",
"35 709 LINE",
"35 610 LINE",
"54 606 LINE SMOOTH",
"75 602 OFFCURVE",
"86 590 OFFCURVE",
"86 569 CURVE SMOOTH",
"91 129 LINE SMOOTH",
"91 108 OFFCURVE",
"77 93 OFFCURVE",
"56 91 CURVE SMOOTH",
"34 89 LINE",
"34 -3 LINE"
);
}
);
width = 707;
},
{
anchors = (
{
name = bottom;
position = "{348, 0}";
},
{
name = center;
position = "{348, 350}";
},
{
name = top;
position = "{348, 670}";
}
);
background = {
components = (
{
name = O;
transform = "{1, 0, 0, 1, -30, 0}";
}
);
};
layerId = "1B5E7594-BD1E-41E1-80E1-0DE241437139";
paths = (
{
closed = 1;
nodes = (
"531 -32 OFFCURVE",
"639 120 OFFCURVE",
"639 365 CURVE SMOOTH",
"639 616 OFFCURVE",
"508 727 OFFCURVE",
"183 700 CURVE",
"205 660 LINE",
"463 675 OFFCURVE",
"570 567 OFFCURVE",
"570 365 CURVE SMOOTH",
"570 148 OFFCURVE",
"493 23 OFFCURVE",
"201 41 CURVE",
"201 2 LINE"
);
},
{
closed = 1;
nodes = (
"160 0 LINE",
"283 -3 LINE",
"283 26 LINE",
"229 35 LINE SMOOTH",
"205 39 OFFCURVE",
"192 51 OFFCURVE",
"192 75 CURVE SMOOTH",
"192 622 LINE SMOOTH",
"192 646 OFFCURVE",
"204 660 OFFCURVE",
"228 664 CURVE SMOOTH",
"281 672 LINE",
"281 704 LINE",
"155 700 LINE",
"42 704 LINE",
"42 672 LINE",
"88 666 LINE SMOOTH",
"112 663 OFFCURVE",
"125 645 OFFCURVE",
"125 621 CURVE SMOOTH",
"125 75 LINE SMOOTH",
"125 51 OFFCURVE",
"113 38 OFFCURVE",
"89 34 CURVE SMOOTH",
"41 26 LINE",
"41 -3 LINE"
);
}
);
width = 691;
}
);
unicode = 0044;
},
{
glyphname = Eth;
lastChange = "2018-06-15 20:12:08 +0000";
layers = (
{
components = (
{
name = D;
}
);
layerId = "1B5E7594-BD1E-41E1-80E1-0DE241437139";
paths = (
{
closed = 1;
nodes = (
"378 379 LINE",
"386 372 LINE",
"381 327 LINE",
"-8 325 LINE",
"-17 333 LINE",
"-12 377 LINE"
);
}
);
width = 600;
},
{
components = (
{
name = D;
}
);
layerId = "5A1ECF60-5C3D-4C60-84B4-C69E600E0422";
paths = (
{
closed = 1;
nodes = (
"371 409 LINE",
"396 382 LINE",
"391 297 LINE",
"10 295 LINE",
"-17 320 LINE",
"-12 407 LINE"
);
}
);
width = 707;
}
);
unicode = 00D0;
},
{
color = 1;
glyphname = E;
lastChange = "2018-06-15 20:12:08 +0000";
layers = (
{
anchors = (
{
name = bottom;
position = "{312, 0}";
},
{
name = ogonek;
position = "{562, 10}";
},
{
name = top;
position = "{312, 655}";
},
{
name = topleft;
position = "{20, 706}";
}
);
background = {
components = (
{
name = I;
transform = "{1, 0, 0, 1, 5, 0}";
}
);
};
guideLines = (
{
position = "{-652, 611}";
}
);
layerId = "5A1ECF60-5C3D-4C60-84B4-C69E600E0422";
paths = (
{
closed = 1;
nodes = (
"197 0 LINE",
"361 -3 LINE",
"361 89 LINE",
"336 91 LINE SMOOTH",
"315 93 OFFCURVE",
"303 105 OFFCURVE",
"303 126 CURVE SMOOTH",
"307 570 LINE SMOOTH",
"307 591 OFFCURVE",
"319 604 OFFCURVE",
"340 607 CURVE SMOOTH",
"362 610 LINE",
"361 707 LINE",
"201 706 LINE",
"35 709 LINE",
"35 610 LINE",
"54 606 LINE SMOOTH",
"75 602 OFFCURVE",
"86 590 OFFCURVE",
"86 569 CURVE SMOOTH",
"91 129 LINE SMOOTH",
"91 108 OFFCURVE",
"77 93 OFFCURVE",
"56 91 CURVE SMOOTH",
"34 89 LINE",
"34 -3 LINE"
);
},
{
closed = 1;
nodes = (
"601 186 LINE",
"492 186 LINE",
"484 132 OFFCURVE",
"471 112 OFFCURVE",
"425 111 CURVE SMOOTH",
"299 108 LINE",
"217 0 LINE",
"581 -4 LINE"
);
},
{
closed = 1;
nodes = (
"501 231 LINE",
"501 451 LINE",
"411 451 LINE",
"404 414 LINE SMOOTH",
"400 395 OFFCURVE",
"387 385 OFFCURVE",
"359 385 CURVE SMOOTH",
"259 385 LINE",
"258 292 LINE",
"361 292 LINE SMOOTH",
"388 292 OFFCURVE",
"403 282 OFFCURVE",
"406 263 CURVE SMOOTH",
"411 231 LINE"
);
},
{
closed = 1;
nodes = (
"559 511 LINE",
"585 690 LINE",
"559 712 LINE",
"205 705 LINE",
"321 601 LINE",
"397 600 LINE SMOOTH",
"444 599 OFFCURVE",
"456 575 OFFCURVE",
"449 511 CURVE"
);
}
);
width = 624;
},
{
anchors = (
{
name = bottom;
position = "{288, 0}";
},
{
name = ogonek;
position = "{527, 10}";
},
{
name = top;
position = "{288, 670}";
},
{
name = topleft;
position = "{8, 700}";
}
);
background = {
components = (
{
name = F;
transform = "{1, 0, 0, 1, -22, 0}";
}
);
};
guideLines = (
{
angle = 90;
position = "{579, 664}";
},
{
position = "{523, 563}";
}
);
layerId = "1B5E7594-BD1E-41E1-80E1-0DE241437139";
paths = (
{
closed = 1;
nodes = (
"159 0 LINE",
"282 -3 LINE",
"282 26 LINE",
"228 35 LINE SMOOTH",
"204 39 OFFCURVE",
"191 51 OFFCURVE",
"191 75 CURVE SMOOTH",
"191 622 LINE SMOOTH",
"191 646 OFFCURVE",
"203 660 OFFCURVE",
"227 664 CURVE SMOOTH",
"280 672 LINE",
"280 702 LINE",
"184 700 LINE",
"41 704 LINE",
"41 672 LINE",
"87 666 LINE SMOOTH",
"111 663 OFFCURVE",
"124 645 OFFCURVE",
"124 621 CURVE SMOOTH",
"124 75 LINE SMOOTH",
"124 51 OFFCURVE",
"112 38 OFFCURVE",
"88 34 CURVE SMOOTH",
"40 26 LINE",
"40 -3 LINE"
);
},
{
closed = 1;
nodes = (
"533 133 LINE",
"491 133 LINE",
"475 54 OFFCURVE",
"458 44 OFFCURVE",
"406 43 CURVE SMOOTH",
"178 39 LINE",
"282 -3 LINE",
"515 -4 LINE"
);
},
{
closed = 1;
nodes = (
"420 244 LINE",
"420 427 LINE",
"386 427 LINE",
"379 388 LINE SMOOTH",
"376 370 OFFCURVE",
"361 359 OFFCURVE",
"344 359 CURVE SMOOTH",
"139 357 LINE",
"139 313 LINE",
"344 313 LINE SMOOTH",
"361 313 OFFCURVE",
"376 302 OFFCURVE",
"379 285 CURVE SMOOTH",
"387 244 LINE"
);
},
{
closed = 1;
nodes = (
"496 563 LINE",
"513 691 LINE",
"505 705 LINE",
"280 702 LINE",
"192 661 LINE",
"402 658 LINE SMOOTH",
"450 657 OFFCURVE",
"461 648 OFFCURVE",
"452 563 CURVE"
);
}
);
width = 576;
}
);
unicode = 0045;
},
{
color = 1;
glyphname = F;
lastChange = "2018-06-15 20:12:08 +0000";
layers = (
{
anchors = (
{
name = bottom;
position = "{284, 0}";
},
{
name = top;
position = "{284, 655}";
}
);
background = {
components = (
{
name = I;
transform = "{1, 0, 0, 1, 4, 0}";
}
);
};
layerId = "5A1ECF60-5C3D-4C60-84B4-C69E600E0422";
paths = (
{
closed = 1;
nodes = (
"197 0 LINE",
"361 -3 LINE",
"361 89 LINE",
"336 91 LINE SMOOTH",
"315 93 OFFCURVE",
"303 105 OFFCURVE",
"303 126 CURVE SMOOTH",
"307 570 LINE SMOOTH",
"307 591 OFFCURVE",
"319 604 OFFCURVE",
"340 607 CURVE SMOOTH",
"362 610 LINE",
"362 707 LINE",
"201 706 LINE",
"35 709 LINE",
"35 610 LINE",
"54 606 LINE SMOOTH",
"75 602 OFFCURVE",
"86 590 OFFCURVE",
"86 569 CURVE SMOOTH",
"91 129 LINE SMOOTH",
"91 108 OFFCURVE",
"77 93 OFFCURVE",
"56 91 CURVE SMOOTH",
"34 89 LINE",
"34 -3 LINE"
);
},
{
closed = 1;
nodes = (
"397 89 LINE",
"350 91 LINE",
"202 0 LINE",
"397 -4 LINE"
);
},
{
closed = 1;
nodes = (
"484 220 LINE",
"484 440 LINE",
"393 440 LINE",
"386 403 LINE SMOOTH",
"382 384 OFFCURVE",
"375 374 OFFCURVE",
"345 374 CURVE SMOOTH",
"259 374 LINE",
"258 281 LINE",
"347 281 LINE SMOOTH",
"376 281 OFFCURVE",
"384 272 OFFCURVE",
"387 253 CURVE SMOOTH",
"393 220 LINE"
);
},
{
closed = 1;
nodes = (
"544 512 LINE",
"570 690 LINE",
"554 712 LINE",
"292 706 LINE",
"287 600 LINE",
"384 601 LINE SMOOTH",
"423 601 OFFCURVE",
"439 576 OFFCURVE",
"432 512 CURVE"
);
}
);
width = 568;
},
{
anchors = (
{
name = bottom;
position = "{256, 0}";
},
{
name = top;
position = "{256, 670}";
}
);
background = {
components = (
{
name = R;
transform = "{1, 0, 0, 1, -21, 0}";
}
);
};
guideLines = (
{
angle = 90;
position = "{507, 726}";
},
{
position = "{454, 564}";
}
);
layerId = "1B5E7594-BD1E-41E1-80E1-0DE241437139";
paths = (
{
closed = 1;
nodes = (
"159 0 LINE",
"282 -3 LINE",
"282 26 LINE",
"228 35 LINE SMOOTH",
"204 39 OFFCURVE",
"191 51 OFFCURVE",
"191 75 CURVE SMOOTH",
"191 622 LINE SMOOTH",
"191 646 OFFCURVE",
"203 660 OFFCURVE",
"227 664 CURVE SMOOTH",
"280 672 LINE",
"280 703 LINE",
"154 700 LINE",
"41 704 LINE",
"41 672 LINE",
"87 666 LINE SMOOTH",
"111 663 OFFCURVE",
"124 645 OFFCURVE",
"124 621 CURVE SMOOTH",
"124 75 LINE SMOOTH",
"124 51 OFFCURVE",
"112 38 OFFCURVE",
"88 34 CURVE SMOOTH",
"40 26 LINE",
"40 -3 LINE"
);
},
{
closed = 1;
nodes = (
"319 26 LINE",
"212 37 LINE",
"173 0 LINE",
"319 -4 LINE"
);
},
{
closed = 1;
nodes = (
"410 234 LINE",
"410 417 LINE",
"376 417 LINE",
"368 375 LINE SMOOTH",
"365 357 OFFCURVE",
"351 348 OFFCURVE",
"334 348 CURVE SMOOTH",
"162 346 LINE",
"162 303 LINE",
"334 303 LINE SMOOTH",
"351 303 OFFCURVE",
"364 293 OFFCURVE",
"368 276 CURVE SMOOTH",
"377 234 LINE"
);
},
{
closed = 1;
nodes = (
"475 564 LINE",
"492 690 LINE",
"484 706 LINE",
"280 703 LINE",
"178 660 LINE",
"380 657 LINE SMOOTH",
"428 656 OFFCURVE",
"437 641 OFFCURVE",
"432 564 CURVE"
);
}
);
width = 521;
}
);
unicode = 0046;
},
{
color = 1;
glyphname = G;
lastChange = "2018-06-15 20:12:08 +0000";
layers = (
{
anchors = (
{
name = bottom;
position = "{334, 0}";
},
{
name = top;
position = "{334, 670}";
}
);
background = {
components = (
{
name = C;
transform = "{1, 0, 0, 1, -16, 0}";
}
);
};
guideLines = (
{
angle = 90;
position = "{721, 679}";
},
{
angle = 90;
position = "{583, 358}";
},
{
angle = 180;
position = "{719, 547}";
}
);
layerId = "1B5E7594-BD1E-41E1-80E1-0DE241437139";
paths = (
{
closed = 1;
nodes = (
"414 -18 OFFCURVE",
"520 -7 OFFCURVE",
"574 28 CURVE",
"570 224 LINE SMOOTH",
"570 247 OFFCURVE",
"580 261 OFFCURVE",
"602 266 CURVE SMOOTH",
"632 273 LINE",
"632 307 LINE",
"534 304 LINE",
"410 307 LINE",
"410 276 LINE",
"469 267 LINE SMOOTH",
"493 263 OFFCURVE",
"504 250 OFFCURVE",
"504 227 CURVE SMOOTH",
"503 48 LINE",
"245 -12 OFFCURVE",
"121 95 OFFCURVE",
"126 355 CURVE SMOOTH",
"131 589 OFFCURVE",
"259 670 OFFCURVE",
"389 671 CURVE SMOOTH",
"509 672 OFFCURVE",
"524 646 OFFCURVE",
"520 558 CURVE",
"563 558 LINE",
"581 701 LINE",
"530 712 OFFCURVE",
"461 717 OFFCURVE",
"416 717 CURVE SMOOTH",
"197 717 OFFCURVE",
"57 599 OFFCURVE",
"52 344 CURVE SMOOTH",
"47 110 OFFCURVE",
"170 -18 OFFCURVE",
"351 -18 CURVE SMOOTH"
);
}
);
width = 669;
},
{
anchors = (
{
name = bottom;
position = "{340, 0}";
},
{
name = top;
position = "{340, 655}";
}
);
background = {
components = (
{
name = C;
transform = "{1, 0, 0, 1, -6, 0}";
}
);
};
layerId = "5A1ECF60-5C3D-4C60-84B4-C69E600E0422";
paths = (
{
closed = 1;
nodes = (
"454 -16 OFFCURVE",
"537 7 OFFCURVE",
"612 43 CURVE",
"608 211 LINE SMOOTH",
"607 232 OFFCURVE",
"614 250 OFFCURVE",
"634 253 CURVE SMOOTH",
"656 256 LINE",
"656 347 LINE",
"505 342 LINE",
"351 347 LINE",
"351 256 LINE",
"383 252 LINE SMOOTH",
"407 249 OFFCURVE",
"416 234 OFFCURVE",
"415 195 CURVE SMOOTH",
"414 122 LINE",
"266 89 OFFCURVE",
"271 172 OFFCURVE",
"270 361 CURVE SMOOTH",
"269 546 OFFCURVE",
"298 609 OFFCURVE",
"405 602 CURVE SMOOTH",
"449 599 OFFCURVE",
"468 569 OFFCURVE",
"453 462 CURVE",
"587 462 LINE",
"616 700 LINE",
"533 716 OFFCURVE",
"458 724 OFFCURVE",
"393 724 CURVE SMOOTH",
"147 724 OFFCURVE",
"25 608 OFFCURVE",
"25 336 CURVE SMOOTH",
"25 112 OFFCURVE",
"127 -16 OFFCURVE",
"346 -16 CURVE SMOOTH"
);
}
);
width = 680;
},
{
associatedMasterId = "1B5E7594-BD1E-41E1-80E1-0DE241437139";
background = {
components = (
{
name = C;
transform = "{1, 0, 0, 1, -40, 0}";
}
);
};
guideLines = (
{
angle = 90;
position = "{697, 679}";
},
{
angle = 90;
position = "{559, 358}";
},
{
angle = 180;
position = "{695, 547}";
}
);
layerId = "893B14A9-BCCE-48BB-AD72-19BF754F558C";
name = "Mar 30 18, 20:24";
paths = (
{
closed = 1;
nodes = (
"23 110 OFFCURVE",
"146 -18 OFFCURVE",
"327 -18 CURVE SMOOTH",
"390 -18 OFFCURVE",
"496 -7 OFFCURVE",
"550 28 CURVE",
"546 224 LINE SMOOTH",
"546 247 OFFCURVE",
"556 261 OFFCURVE",
"578 266 CURVE SMOOTH",
"608 273 LINE",
"608 307 LINE",
"510 304 LINE",
"386 307 LINE",
"386 276 LINE",
"445 267 LINE SMOOTH",
"469 263 OFFCURVE",
"480 250 OFFCURVE",
"480 227 CURVE SMOOTH",
"479 48 LINE",
"221 -12 OFFCURVE",
"97 95 OFFCURVE",
"102 355 CURVE SMOOTH",
"107 589 OFFCURVE",
"235 670 OFFCURVE",
"365 671 CURVE SMOOTH",
"485 672 OFFCURVE",
"500 646 OFFCURVE",
"496 558 CURVE",
"539 558 LINE",
"557 701 LINE",
"506 712 OFFCURVE",
"437 717 OFFCURVE",
"392 717 CURVE SMOOTH",
"173 717 OFFCURVE",
"33 599 OFFCURVE",
"28 344 CURVE SMOOTH"
);
}
);
width = 614;
}
);
unicode = 0047;
},
{
color = 1;
glyphname = H;
lastChange = "2018-06-15 20:12:08 +0000";
layers = (
{
anchors = (
{
name = bottom;
position = "{387, 0}";
},
{
name = center;
position = "{387, 353}";
},
{
name = top;
position = "{387, 655}";
},
{
name = topleft;
position = "{20, 706}";
}
);
layerId = "5A1ECF60-5C3D-4C60-84B4-C69E600E0422";
paths = (
{
closed = 1;
nodes = (
"576 0 LINE",
"740 -3 LINE",
"740 89 LINE",
"715 91 LINE SMOOTH",
"694 93 OFFCURVE",
"682 105 OFFCURVE",
"682 126 CURVE SMOOTH",
"686 570 LINE SMOOTH",
"686 591 OFFCURVE",
"698 604 OFFCURVE",
"719 607 CURVE SMOOTH",
"741 610 LINE",
"741 709 LINE",
"580 706 LINE",
"414 709 LINE",
"414 610 LINE",
"433 606 LINE SMOOTH",
"454 602 OFFCURVE",
"465 590 OFFCURVE",
"465 569 CURVE SMOOTH",
"470 129 LINE SMOOTH",
"470 108 OFFCURVE",
"456 93 OFFCURVE",
"435 91 CURVE SMOOTH",
"413 89 LINE",
"413 -3 LINE"
);
},
{
closed = 1;
nodes = (
"197 0 LINE",
"361 -3 LINE",
"361 89 LINE",
"336 91 LINE SMOOTH",
"315 93 OFFCURVE",
"303 105 OFFCURVE",
"303 126 CURVE SMOOTH",
"307 570 LINE SMOOTH",
"307 591 OFFCURVE",
"319 604 OFFCURVE",
"340 607 CURVE SMOOTH",
"362 610 LINE",
"362 709 LINE",
"201 706 LINE",
"35 709 LINE",
"35 610 LINE",
"54 606 LINE SMOOTH",
"75 602 OFFCURVE",
"86 590 OFFCURVE",
"86 569 CURVE SMOOTH",
"91 129 LINE SMOOTH",
"91 108 OFFCURVE",
"77 93 OFFCURVE",
"56 91 CURVE SMOOTH",
"34 89 LINE",
"34 -3 LINE"
);
},
{
closed = 1;
nodes = (
"550 292 LINE",
"550 391 LINE",
"207 391 LINE",
"207 292 LINE"
);
}
);
width = 774;
},
{
associatedMasterId = "1B5E7594-BD1E-41E1-80E1-0DE241437139";
background = {
components = (
{
name = n;
transform = "{1, 0, 0, 1, 68, 0}";
}
);
};
layerId = "E010CDBE-0680-4596-A7F8-85DDDE4FE324";
name = "Mar 30 18, 20:27";
paths = (
{
closed = 1;
nodes = (
"556 368 LINE",
"556 325 LINE",
"145 325 LINE",
"145 368 LINE"
);
},
{
closed = 1;
nodes = (
"2 26 LINE",
"50 34 LINE SMOOTH",
"74 38 OFFCURVE",
"86 51 OFFCURVE",
"86 75 CURVE SMOOTH",
"86 621 LINE SMOOTH",
"86 645 OFFCURVE",
"73 663 OFFCURVE",
"49 666 CURVE SMOOTH",
"3 672 LINE",
"3 704 LINE",
"116 700 LINE",
"242 704 LINE",
"242 672 LINE",
"189 664 LINE SMOOTH",
"165 660 OFFCURVE",
"153 646 OFFCURVE",
"153 622 CURVE SMOOTH",
"153 75 LINE SMOOTH",
"153 51 OFFCURVE",
"166 39 OFFCURVE",
"190 35 CURVE SMOOTH",
"244 26 LINE",
"244 -3 LINE",
"121 0 LINE",
"2 -3 LINE"
);
},
{
closed = 1;
nodes = (
"409 26 LINE",
"457 34 LINE SMOOTH",
"481 38 OFFCURVE",
"493 51 OFFCURVE",
"493 75 CURVE SMOOTH",
"493 621 LINE SMOOTH",
"493 645 OFFCURVE",
"480 663 OFFCURVE",
"456 666 CURVE SMOOTH",
"410 672 LINE",
"410 704 LINE",
"523 700 LINE",
"649 704 LINE",
"649 672 LINE",
"596 664 LINE SMOOTH",
"572 660 OFFCURVE",
"560 646 OFFCURVE",
"560 622 CURVE SMOOTH",
"560 75 LINE SMOOTH",
"560 51 OFFCURVE",
"573 39 OFFCURVE",
"597 35 CURVE SMOOTH",
"651 26 LINE",
"651 -3 LINE",
"528 0 LINE",
"409 -3 LINE"
);
}
);
width = 653;
},
{
anchors = (
{
name = bottom;
position = "{363, 0}";
},
{
name = center;
position = "{363, 350}";
},
{
name = top;
position = "{363, 670}";
},
{
name = topleft;
position = "{9, 700}";
}
);
background = {
components = (
{
name = n;
transform = "{1, 0, 0, 1, 118, 0}";
}
);
};
layerId = "1B5E7594-BD1E-41E1-80E1-0DE241437139";
paths = (
{
closed = 1;
nodes = (
"565 0 LINE",
"688 -3 LINE",
"688 26 LINE",
"634 35 LINE SMOOTH",
"610 39 OFFCURVE",
"597 51 OFFCURVE",
"597 75 CURVE SMOOTH",
"597 622 LINE SMOOTH",
"597 646 OFFCURVE",
"609 660 OFFCURVE",
"633 664 CURVE SMOOTH",
"686 672 LINE",
"686 704 LINE",
"560 700 LINE",
"447 704 LINE",
"447 672 LINE",
"493 666 LINE SMOOTH",
"517 663 OFFCURVE",
"530 645 OFFCURVE",
"530 621 CURVE SMOOTH",
"530 75 LINE SMOOTH",
"530 51 OFFCURVE",
"518 38 OFFCURVE",
"494 34 CURVE SMOOTH",
"446 26 LINE",
"446 -3 LINE"
);
},
{
closed = 1;
nodes = (
"160 0 LINE",
"283 -3 LINE",
"283 26 LINE",
"229 35 LINE SMOOTH",
"205 39 OFFCURVE",
"192 51 OFFCURVE",
"192 75 CURVE SMOOTH",
"192 622 LINE SMOOTH",
"192 646 OFFCURVE",
"204 660 OFFCURVE",
"228 664 CURVE SMOOTH",
"281 672 LINE",
"281 704 LINE",
"155 700 LINE",
"42 704 LINE",
"42 672 LINE",
"88 666 LINE SMOOTH",
"112 663 OFFCURVE",
"125 645 OFFCURVE",
"125 621 CURVE SMOOTH",
"125 75 LINE SMOOTH",
"125 51 OFFCURVE",
"113 38 OFFCURVE",
"89 34 CURVE SMOOTH",
"41 26 LINE",
"41 -3 LINE"
);
},
{
closed = 1;
nodes = (
"576 325 LINE",
"576 368 LINE",
"165 368 LINE",
"165 325 LINE"
);
}
);
width = 724;
}
);
unicode = 0048;
},
{
color = 1;
glyphname = I;
lastChange = "2018-06-15 20:12:08 +0000";
layers = (
{
anchors = (
{
name = bottom;
position = "{160, 0}";
},
{
name = ogonek;
position = "{297, 10}";
},
{
name = top;
position = "{160, 670}";
},
{
name = topleft;
position = "{9, 700}";
}
);
background = {
paths = (
{
closed = 1;
nodes = (
"283 672 LINE",
"235 664 LINE SMOOTH",
"211 660 OFFCURVE",
"199 647 OFFCURVE",
"199 623 CURVE SMOOTH",
"199 88 LINE SMOOTH",
"199 64 OFFCURVE",
"212 46 OFFCURVE",
"236 43 CURVE SMOOTH",
"282 37 LINE",
"282 -7 LINE",
"169 -2 LINE",
"43 -7 LINE",
"43 37 LINE",
"96 45 LINE SMOOTH",
"120 49 OFFCURVE",
"132 63 OFFCURVE",
"132 87 CURVE SMOOTH",
"132 623 LINE SMOOTH",
"132 647 OFFCURVE",
"119 659 OFFCURVE",
"95 663 CURVE SMOOTH",
"41 672 LINE",
"41 701 LINE",
"164 698 LINE",
"283 701 LINE"
);
}
);
};
layerId = "1B5E7594-BD1E-41E1-80E1-0DE241437139";
paths = (
{
closed = 1;
nodes = (
"160 0 LINE",
"283 -3 LINE",
"283 26 LINE",
"229 35 LINE SMOOTH",
"205 39 OFFCURVE",
"192 51 OFFCURVE",
"192 75 CURVE SMOOTH",
"192 622 LINE SMOOTH",
"192 646 OFFCURVE",
"204 660 OFFCURVE",
"228 664 CURVE SMOOTH",
"281 672 LINE",
"281 704 LINE",
"155 700 LINE",
"42 704 LINE",
"42 672 LINE",
"88 666 LINE SMOOTH",
"112 663 OFFCURVE",
"125 645 OFFCURVE",
"125 621 CURVE SMOOTH",
"125 75 LINE SMOOTH",
"125 51 OFFCURVE",
"113 38 OFFCURVE",
"89 34 CURVE SMOOTH",
"41 26 LINE",
"41 -3 LINE"
);
}
);
width = 319;
},
{
anchors = (
{
name = bottom;
position = "{198, 0}";
},
{
name = ogonek;
position = "{356, 10}";
},
{
name = top;
position = "{198, 655}";
},
{
name = topleft;
position = "{20, 706}";
}
);
layerId = "5A1ECF60-5C3D-4C60-84B4-C69E600E0422";
paths = (
{
closed = 1;
nodes = (
"197 0 LINE",
"361 -3 LINE",
"361 89 LINE",
"336 91 LINE SMOOTH",
"315 93 OFFCURVE",
"303 105 OFFCURVE",
"303 126 CURVE SMOOTH",
"307 570 LINE SMOOTH",
"307 591 OFFCURVE",
"319 604 OFFCURVE",
"340 607 CURVE SMOOTH",
"362 610 LINE",
"362 709 LINE",
"201 706 LINE",
"35 709 LINE",
"35 610 LINE",
"54 606 LINE SMOOTH",
"75 602 OFFCURVE",
"86 590 OFFCURVE",
"86 569 CURVE SMOOTH",
"91 129 LINE SMOOTH",
"91 108 OFFCURVE",
"77 93 OFFCURVE",
"56 91 CURVE SMOOTH",
"34 89 LINE",
"34 -3 LINE"
);
}
);
width = 395;
},
{
associatedMasterId = "1B5E7594-BD1E-41E1-80E1-0DE241437139";
background = {
paths = (
{
closed = 1;
nodes = (
"244 672 LINE",
"196 664 LINE SMOOTH",
"172 660 OFFCURVE",
"160 647 OFFCURVE",
"160 623 CURVE SMOOTH",
"160 88 LINE SMOOTH",
"160 64 OFFCURVE",
"173 46 OFFCURVE",
"197 43 CURVE SMOOTH",
"243 37 LINE",
"243 -7 LINE",
"130 -2 LINE",
"4 -7 LINE",
"4 37 LINE",
"57 45 LINE SMOOTH",
"81 49 OFFCURVE",
"93 63 OFFCURVE",
"93 87 CURVE SMOOTH",
"93 623 LINE SMOOTH",
"93 647 OFFCURVE",
"80 659 OFFCURVE",
"56 663 CURVE SMOOTH",
"2 672 LINE",
"2 701 LINE",
"125 698 LINE",
"244 701 LINE"
);
}
);
};
layerId = "E2659496-786C-4E69-8E96-487439090C39";
name = "Mar 30 18, 20:24";
paths = (
{
closed = 1;
nodes = (
"2 26 LINE",
"50 34 LINE SMOOTH",
"74 38 OFFCURVE",
"86 51 OFFCURVE",
"86 75 CURVE SMOOTH",
"86 621 LINE SMOOTH",
"86 645 OFFCURVE",
"73 663 OFFCURVE",
"49 666 CURVE SMOOTH",
"3 672 LINE",
"3 704 LINE",
"116 700 LINE",
"242 704 LINE",
"242 672 LINE",
"189 664 LINE SMOOTH",
"165 660 OFFCURVE",
"153 646 OFFCURVE",
"153 622 CURVE SMOOTH",
"153 75 LINE SMOOTH",
"153 51 OFFCURVE",
"166 39 OFFCURVE",
"190 35 CURVE SMOOTH",
"244 26 LINE",
"244 -3 LINE",
"121 0 LINE",
"2 -3 LINE"
);
}
);
width = 246;
}
);
unicode = 0049;
},
{
color = 1;
glyphname = J;
lastChange = "2018-06-15 20:12:08 +0000";
layers = (
{
anchors = (
{
name = bottom;
position = "{151, 0}";
},
{
name = top;
position = "{151, 670}";
}
);
background = {
components = (
{
name = I;
transform = "{1, 0, 0, 1, -1, 0}";
}
);
};
guideLines = (
{
angle = 90;
position = "{31, 626}";
}
);
layerId = "1B5E7594-BD1E-41E1-80E1-0DE241437139";
paths = (
{
closed = 1;
nodes = (
"129 -60 OFFCURVE",
"173 22 OFFCURVE",
"189 105 CURVE",
"191 631 LINE SMOOTH",
"191 649 OFFCURVE",
"204 660 OFFCURVE",
"226 664 CURVE SMOOTH",
"267 671 LINE",
"267 704 LINE",
"152 700 LINE",
"33 704 LINE",
"33 671 LINE",
"85 666 LINE SMOOTH",
"108 664 OFFCURVE",
"121 650 OFFCURVE",
"121 630 CURVE SMOOTH",
"122 185 LINE SMOOTH",
"122 47 OFFCURVE",
"87 -25 OFFCURVE",
"28 -111 CURVE",
"65 -138 LINE"
);
}
);
width = 299;
},
{
anchors = (
{
name = bottom;
position = "{187, 0}";
},
{
name = top;
position = "{187, 655}";
}
);
background = {
components = (
{
name = I;
}
);
};
guideLines = (
{
angle = 90;
position = "{21, 660}";
}
);
layerId = "5A1ECF60-5C3D-4C60-84B4-C69E600E0422";
paths = (
{
closed = 1;
nodes = (
"177 -88 OFFCURVE",
"276 22 OFFCURVE",
"298 120 CURVE",
"304 575 LINE SMOOTH",
"304 596 OFFCURVE",
"316 609 OFFCURVE",
"337 612 CURVE SMOOTH",
"355 615 LINE",
"355 709 LINE",
"193 706 LINE",
"19 709 LINE",
"19 611 LINE",
"50 608 LINE SMOOTH",
"71 606 OFFCURVE",
"83 592 OFFCURVE",
"83 571 CURVE SMOOTH",
"88 222 LINE SMOOTH",
"90 94 OFFCURVE",
"71 -3 OFFCURVE",
"7 -85 CURVE",
"93 -143 LINE"
);
}
);
width = 374;
},
{
associatedMasterId = "1B5E7594-BD1E-41E1-80E1-0DE241437139";
background = {
components = (
{
name = I;
transform = "{1, 0, 0, 1, -38, 0}";
}
);
};
layerId = "5FEAFC23-CE29-4475-A910-56B6977470CB";
name = "Mar 30 18, 20:24";
paths = (
{
closed = 1;
nodes = (
"2 704 LINE",
"115 700 LINE",
"241 704 LINE",
"241 671 LINE",
"189 664 LINE SMOOTH",
"167 661 OFFCURVE",
"154 649 OFFCURVE",
"154 631 CURVE SMOOTH",
"152 65 LINE",
"134 -18 OFFCURVE",
"110 -80 OFFCURVE",
"58 -178 CURVE",
"19 -154 LINE",
"56 -75 OFFCURVE",
"85 8 OFFCURVE",
"85 165 CURVE SMOOTH",
"84 630 LINE SMOOTH",
"84 650 OFFCURVE",
"71 663 OFFCURVE",
"48 666 CURVE SMOOTH",
"2 671 LINE"
);
}
);
width = 236;
}
);
unicode = 004A;
},
{
color = 1;
glyphname = K;
lastChange = "2018-06-15 20:12:08 +0000";
layers = (
{
anchors = (
{
name = bottom;
position = "{364, 0}";
},
{
name = top;
position = "{364, 655}";
}
);
background = {
components = (
{
name = a;
transform = "{1, 0, 0, 1, 177, 0}";
}
);
};
guideLines = (
{
position = "{736, 611}";
}
);
layerId = "5A1ECF60-5C3D-4C60-84B4-C69E600E0422";
paths = (
{
closed = 1;
nodes = (
"598 566 LINE SMOOTH",
"611 580 OFFCURVE",
"628 594 OFFCURVE",
"646 598 CURVE SMOOTH",
"696 610 LINE",
"696 707 LINE",
"553 704 LINE",
"395 706 LINE",
"395 611 LINE",
"427 606 LINE SMOOTH",
"452 602 OFFCURVE",
"462 580 OFFCURVE",
"446 560 CURVE SMOOTH",
"275 344 LINE",
"293 227 LINE"
);
},
{
closed = 1;
nodes = (
"197 0 LINE",
"361 -3 LINE",
"361 89 LINE",
"336 91 LINE SMOOTH",
"315 93 OFFCURVE",
"303 105 OFFCURVE",
"303 126 CURVE SMOOTH",
"307 570 LINE SMOOTH",
"307 591 OFFCURVE",
"319 604 OFFCURVE",
"340 607 CURVE SMOOTH",
"362 610 LINE",
"362 707 LINE",
"201 706 LINE",
"35 709 LINE",
"35 610 LINE",
"54 606 LINE SMOOTH",
"75 602 OFFCURVE",
"86 590 OFFCURVE",
"86 569 CURVE SMOOTH",
"91 129 LINE SMOOTH",
"91 108 OFFCURVE",
"77 93 OFFCURVE",
"56 91 CURVE SMOOTH",
"34 89 LINE",
"34 -3 LINE"
);
},
{
closed = 1;
nodes = (
"732 105 LINE",
"714 135 LINE",
"680 127 LINE SMOOTH",
"656 121 OFFCURVE",
"646 128 OFFCURVE",
"636 150 CURVE SMOOTH",
"486 460 LINE",
"339 321 LINE",
"402 134 LINE SMOOTH",
"431 48 OFFCURVE",
"480 -51 OFFCURVE",
"683 1 CURVE"
);
}
);
width = 727;
},
{
anchors = (
{
name = bottom;
position = "{316, 0}";
},
{
name = top;
position = "{316, 670}";
}
);
background = {
components = (
{
name = R;
transform = "{1, 0, 0, 1, -13, 0}";
}
);
};
guideLines = (
{
angle = 90;
position = "{608, 101}";
}
);
layerId = "1B5E7594-BD1E-41E1-80E1-0DE241437139";
paths = (
{
closed = 1;
nodes = (
"532 621 LINE SMOOTH",
"548 641 OFFCURVE",
"565 657 OFFCURVE",
"587 664 CURVE SMOOTH",
"612 672 LINE",
"612 703 LINE",
"509 700 LINE",
"393 704 LINE",
"393 672 LINE",
"442 666 LINE SMOOTH",
"470 663 OFFCURVE",
"483 642 OFFCURVE",
"465 619 CURVE SMOOTH",
"176 250 LINE",
"184 187 LINE"
);
},
{
closed = 1;
nodes = (
"159 0 LINE",
"282 -3 LINE",
"282 26 LINE",
"228 35 LINE SMOOTH",
"204 39 OFFCURVE",
"191 51 OFFCURVE",
"191 75 CURVE SMOOTH",
"191 622 LINE SMOOTH",
"191 646 OFFCURVE",
"203 660 OFFCURVE",
"227 664 CURVE SMOOTH",
"280 672 LINE",
"280 704 LINE",
"154 700 LINE",
"41 704 LINE",
"41 672 LINE",
"87 666 LINE SMOOTH",
"111 663 OFFCURVE",
"124 645 OFFCURVE",
"124 621 CURVE SMOOTH",
"124 75 LINE SMOOTH",
"124 51 OFFCURVE",
"112 38 OFFCURVE",
"88 34 CURVE SMOOTH",
"40 26 LINE",
"40 -3 LINE"
);
},
{
closed = 1;
nodes = (
"627 47 LINE",
"617 68 LINE",
"567 49 LINE SMOOTH",
"548 42 OFFCURVE",
"537 43 OFFCURVE",
"525 63 CURVE SMOOTH",
"319 402 LINE",
"285 350 LINE",
"446 59 LINE SMOOTH",
"478 1 OFFCURVE",
"529 -29 OFFCURVE",
"603 4 CURVE"
);
}
);
width = 652;
}
);
unicode = 004B;
},
{
color = 1;
glyphname = L;
lastChange = "2018-06-15 20:12:08 +0000";
layers = (
{
anchors = (
{
name = bottom;
position = "{248, 0}";
},
{
name = center;
position = "{248, 350}";
},
{
name = top;
position = "{248, 670}";
},
{
name = topright;
position = "{487, 700}";
}
);
background = {
components = (
{
name = I;
transform = "{1, 0, 0, 1, 1, 0}";
}
);
};
layerId = "1B5E7594-BD1E-41E1-80E1-0DE241437139";
paths = (
{
closed = 1;
nodes = (
"495 133 LINE",
"451 133 LINE",
"435 54 OFFCURVE",
"419 48 OFFCURVE",
"367 46 CURVE SMOOTH",
"229 42 LINE SMOOTH",
"205 41 OFFCURVE",
"192 60 OFFCURVE",
"192 84 CURVE SMOOTH",
"192 621 LINE SMOOTH",
"192 645 OFFCURVE",
"204 659 OFFCURVE",
"228 663 CURVE SMOOTH",
"281 671 LINE",
"281 704 LINE",
"155 700 LINE",
"42 704 LINE",
"42 671 LINE",
"88 665 LINE SMOOTH",
"112 662 OFFCURVE",
"125 644 OFFCURVE",
"125 620 CURVE SMOOTH",
"125 75 LINE SMOOTH",
"125 51 OFFCURVE",
"113 38 OFFCURVE",
"89 34 CURVE SMOOTH",
"41 26 LINE",
"41 -3 LINE",
"158 0 LINE",
"477 -2 LINE"
);
}
);
width = 517;
},
{
anchors = (
{
name = bottom;
position = "{279, 0}";
},
{
name = center;
position = "{279, 353}";
},
{
name = top;
position = "{279, 655}";
},
{
name = topright;
position = "{538, 706}";
}
);
background = {
components = (
{
name = I;
transform = "{1, 0, 0, 1, 4, 0}";
}
);
};
layerId = "5A1ECF60-5C3D-4C60-84B4-C69E600E0422";
paths = (
{
closed = 1;
nodes = (
"565 205 LINE",
"467 205 LINE",
"456 134 OFFCURVE",
"444 113 OFFCURVE",
"386 112 CURVE SMOOTH",
"302 111 LINE",
"300 115 OFFCURVE",
"299 120 OFFCURVE",
"299 126 CURVE SMOOTH",
"303 575 LINE SMOOTH",
"303 596 OFFCURVE",
"315 609 OFFCURVE",
"336 612 CURVE SMOOTH",
"356 615 LINE",
"356 709 LINE",
"191 706 LINE",
"35 709 LINE",
"35 615 LINE",
"54 611 LINE SMOOTH",
"75 607 OFFCURVE",
"86 595 OFFCURVE",
"86 574 CURVE",
"91 129 LINE",
"91 108 OFFCURVE",
"77 93 OFFCURVE",
"56 91 CURVE SMOOTH",
"34 89 LINE",
"34 -3 LINE",
"181 0 LINE",
"541 -6 LINE"
);
}
);
width = 558;
}
);
unicode = 004C;
},
{
color = 1;
glyphname = M;
lastChange = "2018-06-15 20:12:08 +0000";
layers = (
{
anchors = (
{
name = bottom;
position = "{431, 0}";
},
{
name = top;
position = "{431, 670}";
}
);
background = {
components = (
{
name = V;
transform = "{1, 0, 0, 1, 107, 0}";
}
);
};
layerId = "1B5E7594-BD1E-41E1-80E1-0DE241437139";
paths = (
{
closed = 1;
nodes = (
"452 16 LINE",
"671 619 LINE",
"669 79 LINE SMOOTH",
"669 55 OFFCURVE",
"656 38 OFFCURVE",
"633 35 CURVE SMOOTH",
"568 26 LINE",
"568 -4 LINE",
"682 0 LINE",
"825 -4 LINE",
"825 28 LINE",
"767 35 LINE SMOOTH",
"745 38 OFFCURVE",
"735 59 OFFCURVE",
"735 83 CURVE SMOOTH",
"734 620 LINE SMOOTH",
"734 643 OFFCURVE",
"740 657 OFFCURVE",
"763 661 CURVE SMOOTH",
"817 671 LINE",
"817 704 LINE",
"725 700 LINE",
"645 702 LINE",
"433 102 LINE",
"425 102 LINE",
"220 702 LINE",
"144 700 LINE",
"44 704 LINE",
"44 669 LINE",
"89 663 LINE SMOOTH",
"113 660 OFFCURVE",
"125 644 OFFCURVE",
"125 620 CURVE SMOOTH",
"126 83 LINE SMOOTH",
"126 60 OFFCURVE",
"116 35 OFFCURVE",
"94 33 CURVE SMOOTH",
"41 28 LINE",
"41 -4 LINE",
"168 0 LINE",
"274 -4 LINE",
"274 26 LINE",
"214 38 LINE SMOOTH",
"191 43 OFFCURVE",
"179 57 OFFCURVE",
"179 82 CURVE SMOOTH",
"175 621 LINE",
"396 -9 LINE"
);
}
);
width = 861;
},
{
anchors = (
{
name = bottom;
position = "{437, 0}";
},
{
name = top;
position = "{437, 655}";
}
);
background = {
components = (
{
name = I;
transform = "{1, 0, 0, 1, 485, 0}";
},
{
name = H;
transform = "{1, 0, 0, 1, -5, 0}";
}
);
};
layerId = "5A1ECF60-5C3D-4C60-84B4-C69E600E0422";
paths = (
{
closed = 1;
nodes = (
"446 10 LINE",
"578 408 LINE",
"578 127 LINE SMOOTH",
"578 106 OFFCURVE",
"566 93 OFFCURVE",
"545 90 CURVE SMOOTH",
"517 86 LINE",
"517 -4 LINE",
"679 0 LINE",
"847 -3 LINE",
"847 86 LINE",
"814 91 LINE SMOOTH",
"793 94 OFFCURVE",
"782 107 OFFCURVE",
"782 128 CURVE SMOOTH",
"782 571 LINE SMOOTH",
"782 592 OFFCURVE",
"793 605 OFFCURVE",
"814 608 CURVE SMOOTH",
"842 612 LINE",
"842 709 LINE",
"701 706 LINE",
"569 709 LINE",
"448 358 LINE",
"433 358 LINE",
"323 710 LINE",
"183 706 LINE",
"34 709 LINE",
"34 611 LINE",
"59 605 LINE SMOOTH",
"80 600 OFFCURVE",
"91 589 OFFCURVE",
"91 568 CURVE SMOOTH",
"91 128 LINE SMOOTH",
"91 107 OFFCURVE",
"80 94 OFFCURVE",
"59 91 CURVE SMOOTH",
"28 86 LINE",
"28 -3 LINE",
"145 0 LINE",
"297 -3 LINE",
"297 86 LINE",
"247 95 LINE SMOOTH",
"226 99 OFFCURVE",
"215 110 OFFCURVE",
"215 132 CURVE SMOOTH",
"212 408 LINE",
"360 -5 LINE"
);
}
);
width = 874;
}
);
unicode = 004D;
},
{
color = 1;
glyphname = N;
lastChange = "2018-06-15 20:12:08 +0000";
layers = (
{
anchors = (
{
name = bottom;
position = "{357, 0}";
},
{
name = top;
position = "{357, 670}";
}
);
background = {
components = (
{
name = H;
transform = "{1, 0, 0, 1, -10, 0}";
}
);
};
layerId = "1B5E7594-BD1E-41E1-80E1-0DE241437139";
paths = (
{
closed = 1;
nodes = (
"597 -10 LINE",
"597 615 LINE SMOOTH",
"597 638 OFFCURVE",
"608 659 OFFCURVE",
"631 662 CURVE SMOOTH",
"682 669 LINE",
"682 704 LINE",
"569 700 LINE",
"449 701 LINE",
"449 666 LINE",
"502 661 LINE SMOOTH",
"531 658 OFFCURVE",
"545 646 OFFCURVE",
"545 615 CURVE SMOOTH",
"549 125 LINE",
"221 702 LINE",
"139 700 LINE",
"46 704 LINE",
"46 668 LINE",
"91 662 LINE SMOOTH",
"115 659 OFFCURVE",
"125 642 OFFCURVE",
"125 618 CURVE SMOOTH",
"125 88 LINE SMOOTH",
"125 63 OFFCURVE",
"115 44 OFFCURVE",
"92 40 CURVE SMOOTH",
"39 30 LINE",
"39 -4 LINE",
"150 0 LINE",
"273 -4 LINE",
"273 30 LINE",
"213 41 LINE SMOOTH",
"190 45 OFFCURVE",
"178 58 OFFCURVE",
"178 87 CURVE SMOOTH",
"176 637 LINE",
"559 -21 LINE"
);
}
);
width = 711;
},
{
anchors = (
{
name = bottom;
position = "{368, 0}";
},
{
name = top;
position = "{368, 655}";
}
);
background = {
components = (
{
name = H;
transform = "{1, 0, 0, 1, -25, 0}";
}
);
};
layerId = "5A1ECF60-5C3D-4C60-84B4-C69E600E0422";
paths = (
{
closed = 1;
nodes = (
"655 7 LINE",
"655 561 LINE SMOOTH",
"655 582 OFFCURVE",
"665 594 OFFCURVE",
"685 600 CURVE SMOOTH",
"716 610 LINE",
"716 709 LINE",
"599 706 LINE",
"424 709 LINE",
"424 610 LINE",
"480 600 LINE SMOOTH",
"504 596 OFFCURVE",
"520 572 OFFCURVE",
"520 553 CURVE SMOOTH",
"520 263 LINE",
"310 709 LINE",
"159 706 LINE",
"33 709 LINE",
"33 609 LINE",
"61 602 LINE SMOOTH",
"82 597 OFFCURVE",
"92 585 OFFCURVE",
"92 564 CURVE SMOOTH",
"92 135 LINE SMOOTH",
"92 115 OFFCURVE",
"78 98 OFFCURVE",
"57 94 CURVE SMOOTH",
"28 88 LINE",
"28 -3 LINE",
"147 0 LINE",
"321 -3 LINE",
"321 89 LINE",
"275 95 LINE SMOOTH",
"234 100 OFFCURVE",
"225 108 OFFCURVE",
"224 144 CURVE SMOOTH",
"220 403 LINE",
"444 -14 LINE"
);
}
);
width = 736;
},
{
associatedMasterId = "5A1ECF60-5C3D-4C60-84B4-C69E600E0422";
background = {
components = (
{
name = H;
transform = "{1, 0, 0, 1, 15, 0}";
}
);
};
backgroundImage = {
crop = "{{0, 0}, {522, 160}}";
imagePath = ../../../../Desktop/4727e6a4b0acdab98c17b3db3e0cf7.gif;
transform = "{4.27, 0, 0, 4.56, -1490, -20}";
};
layerId = "B0EC626A-5EF7-4134-BABA-7ED347DC724B";
name = "Mar 25 18, 18:35";
paths = (
{
closed = 1;
nodes = (
"168 0 LINE",
"322 -3 LINE",
"322 89 LINE",
"276 95 LINE SMOOTH",
"235 100 OFFCURVE",
"225 108 OFFCURVE",
"225 144 CURVE SMOOTH",
"221 433 LINE",
"465 -14 LINE",
"696 7 LINE",
"696 566 LINE SMOOTH",
"696 587 OFFCURVE",
"706 600 OFFCURVE",
"726 605 CURVE SMOOTH",
"765 615 LINE",
"765 709 LINE",
"640 706 LINE",
"465 709 LINE",
"465 615 LINE",
"521 605 LINE SMOOTH",
"545 601 OFFCURVE",
"561 577 OFFCURVE",
"561 558 CURVE SMOOTH",
"561 243 LINE",
"331 709 LINE",
"180 706 LINE",
"30 709 LINE",
"30 615 LINE",
"68 608 LINE SMOOTH",
"89 604 OFFCURVE",
"99 591 OFFCURVE",
"99 570 CURVE SMOOTH",
"99 135 LINE SMOOTH",
"99 115 OFFCURVE",
"85 98 OFFCURVE",
"64 94 CURVE SMOOTH",
"30 88 LINE",
"30 -3 LINE"
);
}
);
width = 753;
},
{
associatedMasterId = "1B5E7594-BD1E-41E1-80E1-0DE241437139";
background = {
components = (
{
name = H;
transform = "{1, 0, 0, 1, -35, 0}";
}
);
};
layerId = "1466BF85-56D3-43EC-A9AA-B58353706C3C";
name = "Mar 30 18, 20:24";
paths = (
{
closed = 1;
nodes = (
"113 0 LINE",
"236 -4 LINE",
"236 30 LINE",
"176 41 LINE SMOOTH",
"153 45 OFFCURVE",
"141 58 OFFCURVE",
"141 87 CURVE SMOOTH",
"138 639 LINE",
"526 -21 LINE",
"564 -10 LINE",
"564 615 LINE SMOOTH",
"564 638 OFFCURVE",
"575 659 OFFCURVE",
"598 662 CURVE SMOOTH",
"649 669 LINE",
"649 704 LINE",
"536 700 LINE",
"416 701 LINE",
"416 666 LINE",
"469 661 LINE SMOOTH",
"498 658 OFFCURVE",
"512 646 OFFCURVE",
"512 615 CURVE SMOOTH",
"516 125 LINE",
"184 704 LINE",
"102 700 LINE",
"9 704 LINE",
"9 668 LINE",
"54 662 LINE SMOOTH",
"78 659 OFFCURVE",
"88 642 OFFCURVE",
"88 618 CURVE SMOOTH",
"88 88 LINE SMOOTH",
"88 63 OFFCURVE",
"78 44 OFFCURVE",
"55 40 CURVE SMOOTH",
"2 30 LINE",
"2 -4 LINE"
);
}
);
width = 645;
}
);
unicode = 004E;
},
{
color = 1;
glyphname = O;
lastChange = "2018-06-15 20:12:08 +0000";
layers = (
{
anchors = (
{
name = bottom;
position = "{357, 0}";
},
{
name = center;
position = "{357, 350}";
},
{
name = ogonek;
position = "{655, 10}";
},
{
name = top;
position = "{357, 670}";
},
{
name = topleft;
position = "{5, 700}";
},
{
name = topright;
position = "{709, 700}";
}
);
background = {
components = (
{
name = H;
transform = "{1, 0, 0, 1, -19, 0}";
}
);
};
guideLines = (
{
angle = 90;
position = "{37, 687}";
},
{
angle = 90;
position = "{677, 683}";
}
);
layerId = "1B5E7594-BD1E-41E1-80E1-0DE241437139";
paths = (
{
closed = 1;
nodes = (
"548 -18 OFFCURVE",
"661 121 OFFCURVE",
"660 354 CURVE SMOOTH",
"659 575 OFFCURVE",
"546 718 OFFCURVE",
"357 718 CURVE SMOOTH",
"166 718 OFFCURVE",
"53 575 OFFCURVE",
"53 354 CURVE SMOOTH",
"53 122 OFFCURVE",
"166 -16 OFFCURVE",
"356 -17 CURVE SMOOTH"
);
},
{
closed = 1;
nodes = (
"213 31 OFFCURVE",
"129 151 OFFCURVE",
"129 354 CURVE SMOOTH",
"129 553 OFFCURVE",
"214 670 OFFCURVE",
"357 670 CURVE SMOOTH",
"502 670 OFFCURVE",
"588 553 OFFCURVE",
"588 354 CURVE SMOOTH",
"588 151 OFFCURVE",
"502 31 OFFCURVE",
"356 31 CURVE SMOOTH"
);
}
);
width = 713;
},
{
anchors = (
{
name = bottom;
position = "{351, 0}";
},
{
name = center;
position = "{351, 353}";
},
{
name = ogonek;
position = "{631, 10}";
},
{
name = top;
position = "{351, 655}";
},
{
name = topleft;
position = "{20, 706}";
},
{
name = topright;
position = "{681, 706}";
}
);
background = {
components = (
{
name = H;
transform = "{1, 0, 0, 1, -25, 0}";
}
);
paths = (
{
closed = 1;
nodes = (
"341 -58 LINE",
"360 -58 LINE",
"360 772 LINE",
"341 772 LINE"
);
}
);
};
layerId = "5A1ECF60-5C3D-4C60-84B4-C69E600E0422";
paths = (
{
closed = 1;
nodes = (
"565 -20 OFFCURVE",
"669 98 OFFCURVE",
"672 353 CURVE SMOOTH",
"676 607 OFFCURVE",
"572 727 OFFCURVE",
"350 725 CURVE SMOOTH",
"132 723 OFFCURVE",
"28 603 OFFCURVE",
"28 353 CURVE SMOOTH",
"28 98 OFFCURVE",
"132 -20 OFFCURVE",
"350 -20 CURVE SMOOTH"
);
},
{
closed = 1;
nodes = (
"292 105 OFFCURVE",
"277 155 OFFCURVE",
"276 345 CURVE SMOOTH",
"275 545 OFFCURVE",
"290 594 OFFCURVE",
"352 594 CURVE SMOOTH",
"411 594 OFFCURVE",
"426 545 OFFCURVE",
"427 345 CURVE SMOOTH",
"428 155 OFFCURVE",
"413 105 OFFCURVE",
"352 105 CURVE SMOOTH"
);
}
);
width = 701;
},
{
associatedMasterId = "1B5E7594-BD1E-41E1-80E1-0DE241437139";
background = {
components = (
{
name = H;
transform = "{1, 0, 0, 1, -28, 0}";
}
);
};
layerId = "5C9B3C6F-C594-46CE-B60B-51CCC91A5373";
name = "Mar 30 18, 20:24";
paths = (
{
closed = 1;
nodes = (
"521 -17 OFFCURVE",
"636 121 OFFCURVE",
"635 354 CURVE SMOOTH",
"634 591 OFFCURVE",
"516 718 OFFCURVE",
"332 718 CURVE SMOOTH",
"141 718 OFFCURVE",
"28 576 OFFCURVE",
"28 354 CURVE SMOOTH",
"28 111 OFFCURVE",
"140 -16 OFFCURVE",
"331 -17 CURVE SMOOTH"
);
},
{
closed = 1;
nodes = (
"188 31 OFFCURVE",
"104 166 OFFCURVE",
"104 357 CURVE SMOOTH",
"104 537 OFFCURVE",
"190 670 OFFCURVE",
"332 670 CURVE SMOOTH",
"476 670 OFFCURVE",
"563 550 OFFCURVE",
"563 357 CURVE SMOOTH",
"563 164 OFFCURVE",
"475 31 OFFCURVE",
"331 31 CURVE SMOOTH"
);
}
);
width = 663;
}
);
unicode = 004F;
},
{
glyphname = Oslash;
lastChange = "2018-06-15 20:12:08 +0000";
layers = (
{
anchors = (
{
name = bottom;
position = "{372, 0}";
},
{
name = top;
position = "{372, 700}";
}
);
components = (
{
name = O;
}
);
guideLines = (
{
angle = 55;
position = "{253, 352}";
}
);
layerId = "1B5E7594-BD1E-41E1-80E1-0DE241437139";
paths = (
{
closed = 1;
nodes = (
"104 -43 LINE",
"127 -39 LINE",
"671 744 LINE",
"642 765 LINE",
"622 758 LINE",
"76 -20 LINE"
);
}
);
width = 744;
},
{
anchors = (
{
name = bottom;
position = "{349, 0}";
},
{
name = top;
position = "{349, 706}";
}
);
components = (
{
name = O;
}
);
layerId = "5A1ECF60-5C3D-4C60-84B4-C69E600E0422";
paths = (
{
closed = 1;
nodes = (
"137 -86 LINE",
"160 -82 LINE",
"704 701 LINE",
"577 796 LINE",
"557 789 LINE",
"11 11 LINE"
);
}
);
width = 701;
},
{
anchors = (
{
name = bottom;
position = "{372, 0}";
},
{
name = top;
position = "{372, 700}";
}
);
associatedMasterId = "1B5E7594-BD1E-41E1-80E1-0DE241437139";
components = (
{
name = O;
}
);
layerId = "135415CB-1A68-4D47-BB6C-A10C18EB0C52";
name = "Light [130]";
paths = (
{
closed = 1;
nodes = (
"579 611 LINE",
"671 744 LINE",
"642 765 LINE",
"622 758 LINE",
"544 646 LINE"
);
},
{
closed = 1;
nodes = (
"180 125 LINE",
"76 -20 LINE",
"104 -43 LINE",
"127 -39 LINE",
"214 88 LINE"
);
}
);
width = 744;
},
{
anchors = (
{
name = bottom;
position = "{349, 0}";
},
{
name = top;
position = "{349, 706}";
}
);
associatedMasterId = "5A1ECF60-5C3D-4C60-84B4-C69E600E0422";
components = (
{
name = O;
}
);
layerId = "FA6976FC-E3DC-43FD-95D7-AACFCD418CFF";
name = "Black [130]";
paths = (
{
closed = 1;
nodes = (
"548 477 LINE",
"704 701 LINE",
"577 796 LINE",
"557 789 LINE",
"431 610 LINE"
);
},
{
closed = 1;
nodes = (
"185 260 LINE",
"11 11 LINE",
"137 -86 LINE",
"160 -82 LINE",
"275 94 LINE"
);
}
);
width = 701;
}
);
unicode = 00D8;
},
{
color = 1;
glyphname = P;
lastChange = "2018-06-15 20:12:08 +0000";
layers = (
{
anchors = (
{
name = bottom;
position = "{337, 0}";
},
{
name = top;
position = "{337, 655}";
}
);
background = {
components = (
{
name = R;
transform = "{1, 0, 0, 1, -5, 0}";
}
);
};
layerId = "5A1ECF60-5C3D-4C60-84B4-C69E600E0422";
paths = (
{
closed = 1;
nodes = (
"197 0 LINE",
"361 -3 LINE",
"361 89 LINE",
"336 91 LINE SMOOTH",
"315 93 OFFCURVE",
"303 105 OFFCURVE",
"303 126 CURVE SMOOTH",
"307 570 LINE SMOOTH",
"307 591 OFFCURVE",
"319 620 OFFCURVE",
"340 623 CURVE SMOOTH",
"362 626 LINE",
"362 709 LINE",
"201 706 LINE",
"35 709 LINE",
"35 610 LINE",
"54 606 LINE SMOOTH",
"75 602 OFFCURVE",
"86 590 OFFCURVE",
"86 569 CURVE SMOOTH",
"91 129 LINE SMOOTH",
"91 108 OFFCURVE",
"77 93 OFFCURVE",
"56 91 CURVE SMOOTH",
"34 89 LINE",
"34 -3 LINE"
);
},
{
closed = 1;
nodes = (
"392 -3 LINE",
"392 89 LINE",
"351 89 LINE",
"351 -3 LINE"
);
},
{
closed = 1;
nodes = (
"489 220 OFFCURVE",
"671 288 OFFCURVE",
"671 500 CURVE SMOOTH",
"671 706 OFFCURVE",
"537 718 OFFCURVE",
"268 706 CURVE",
"285 595 LINE",
"396 602 OFFCURVE",
"439 587 OFFCURVE",
"439 490 CURVE SMOOTH",
"439 405 OFFCURVE",
"411 341 OFFCURVE",
"230 382 CURVE",
"232 273 LINE"
);
}
);
width = 674;
},
{
anchors = (
{
name = bottom;
position = "{276, 0}";
},
{
name = top;
position = "{276, 670}";
}
);
background = {
components = (
{
name = H;
transform = "{1, 0, 0, 1, -1, 0}";
}
);
};
layerId = "1B5E7594-BD1E-41E1-80E1-0DE241437139";
paths = (
{
closed = 1;
nodes = (
"160 0 LINE",
"283 -3 LINE",
"283 26 LINE",
"229 35 LINE SMOOTH",
"205 39 OFFCURVE",
"192 51 OFFCURVE",
"192 75 CURVE SMOOTH",
"192 622 LINE SMOOTH",
"192 646 OFFCURVE",
"196 671 OFFCURVE",
"220 675 CURVE SMOOTH",
"273 683 LINE",
"281 704 LINE",
"155 700 LINE",
"42 704 LINE",
"42 672 LINE",
"88 666 LINE SMOOTH",
"112 663 OFFCURVE",
"125 645 OFFCURVE",
"125 621 CURVE SMOOTH",
"125 75 LINE SMOOTH",
"125 51 OFFCURVE",
"113 38 OFFCURVE",
"89 34 CURVE SMOOTH",
"41 26 LINE",
"41 -3 LINE"
);
},
{
closed = 1;
nodes = (
"302 -3 LINE",
"302 26 LINE",
"260 30 LINE",
"283 -3 LINE"
);
},
{
closed = 1;
nodes = (
"407 261 OFFCURVE",
"529 356 OFFCURVE",
"529 509 CURVE SMOOTH",
"529 691 OFFCURVE",
"387 716 OFFCURVE",
"166 700 CURVE",
"164 659 LINE",
"412 680 OFFCURVE",
"455 611 OFFCURVE",
"455 509 CURVE SMOOTH",
"455 375 OFFCURVE",
"386 322 OFFCURVE",
"169 342 CURVE",
"150 302 LINE"
);
}
);
width = 561;
}
);
unicode = 0050;
},
{
color = 1;
glyphname = Q;
lastChange = "2018-06-15 20:12:08 +0000";
layers = (
{
associatedMasterId = "5A1ECF60-5C3D-4C60-84B4-C69E600E0422";
components = (
{
name = O;
}
);
layerId = "30201244-EAB5-4B4D-BFDE-DE8E7A0844E1";
name = "Sep 25 17, 14:14";
paths = (
{
closed = 1;
nodes = (
"226 -16 OFFCURVE",
"104 -59 OFFCURVE",
"76 -74 CURVE",
"66 -172 LINE",
"88 -194 LINE",
"173 -181 OFFCURVE",
"244 -177 OFFCURVE",
"320 -177 CURVE SMOOTH",
"416 -177 OFFCURVE",
"503 -189 OFFCURVE",
"551 -205 CURVE",
"651 -108 LINE",
"633 -54 LINE",
"244 -88 LINE",
"523 0 LINE",
"347 15 LINE"
);
}
);
width = 719;
},
{
anchors = (
{
name = bottom;
position = "{352, 0}";
},
{
name = top;
position = "{352, 706}";
}
);
background = {
components = (
{
name = R;
transform = "{1, 0, 0, 1, -73, -164}";
}
);
};
guideLines = (
{
position = "{-831, -215}";
}
);
layerId = "5A1ECF60-5C3D-4C60-84B4-C69E600E0422";
paths = (
{
closed = 1;
nodes = (
"639 -59 LINE",
"621 -28 LINE",
"507 -73 OFFCURVE",
"325 -73 OFFCURVE",
"244 24 CURVE",
"54 166 LINE",
"163 -107 OFFCURVE",
"336 -281 OFFCURVE",
"578 -192 CURVE"
);
},
{
closed = 1;
nodes = (
"564 -14 OFFCURVE",
"668 98 OFFCURVE",
"671 353 CURVE SMOOTH",
"674 607 OFFCURVE",
"571 727 OFFCURVE",
"349 725 CURVE SMOOTH",
"131 723 OFFCURVE",
"27 603 OFFCURVE",
"27 353 CURVE SMOOTH",
"27 98 OFFCURVE",
"131 -14 OFFCURVE",
"349 -14 CURVE SMOOTH"
);
},
{
closed = 1;
nodes = (
"291 105 OFFCURVE",
"276 155 OFFCURVE",
"275 345 CURVE SMOOTH",
"274 545 OFFCURVE",
"289 594 OFFCURVE",
"351 594 CURVE SMOOTH",
"410 594 OFFCURVE",
"425 545 OFFCURVE",
"426 345 CURVE SMOOTH",
"427 155 OFFCURVE",
"412 105 OFFCURVE",
"351 105 CURVE SMOOTH"
);
}
);
width = 703;
},
{
anchors = (
{
name = bottom;
position = "{358, 0}";
},
{
name = top;
position = "{358, 700}";
}
);
background = {
components = (
{
name = R;
transform = "{1, 0, 0, 1, 91, -180}";
}
);
};
guideLines = (
{
angle = 90;
position = "{731, 323}";
}
);
layerId = "1B5E7594-BD1E-41E1-80E1-0DE241437139";
paths = (
{
closed = 1;
nodes = (
"620 -133 LINE",
"610 -113 LINE",
"450 -157 OFFCURVE",
"295 -103 OFFCURVE",
"161 79 CURVE",
"90 157 LINE",
"222 -160 OFFCURVE",
"436 -226 OFFCURVE",
"597 -177 CURVE"
);
},
{
closed = 1;
nodes = (
"549 -18 OFFCURVE",
"662 121 OFFCURVE",
"661 354 CURVE SMOOTH",
"660 575 OFFCURVE",
"547 718 OFFCURVE",
"358 718 CURVE SMOOTH",
"167 718 OFFCURVE",
"54 575 OFFCURVE",
"54 354 CURVE SMOOTH",
"54 122 OFFCURVE",
"167 -16 OFFCURVE",
"357 -17 CURVE SMOOTH"
);
},
{
closed = 1;
nodes = (
"214 31 OFFCURVE",
"130 151 OFFCURVE",
"130 354 CURVE SMOOTH",
"130 553 OFFCURVE",
"215 670 OFFCURVE",
"358 670 CURVE SMOOTH",
"503 670 OFFCURVE",
"589 553 OFFCURVE",
"589 354 CURVE SMOOTH",
"589 151 OFFCURVE",
"503 31 OFFCURVE",
"357 31 CURVE SMOOTH"
);
}
);
width = 714;
}
);
unicode = 0051;
},
{
color = 1;
glyphname = R;
lastChange = "2018-06-15 20:12:08 +0000";
layers = (
{
anchors = (
{
name = bottom;
position = "{357, 0}";
},
{
name = top;
position = "{357, 655}";
}
);
background = {
components = (
{
name = P;
transform = "{1, 0, 0, 1, -3, 0}";
}
);
};
layerId = "5A1ECF60-5C3D-4C60-84B4-C69E600E0422";
paths = (
{
closed = 1;
nodes = (
"197 0 LINE",
"361 -3 LINE",
"361 89 LINE",
"336 91 LINE SMOOTH",
"315 93 OFFCURVE",
"303 105 OFFCURVE",
"303 126 CURVE SMOOTH",
"307 570 LINE SMOOTH",
"307 591 OFFCURVE",
"319 634 OFFCURVE",
"340 637 CURVE SMOOTH",
"362 640 LINE",
"362 709 LINE",
"201 706 LINE",
"35 709 LINE",
"35 610 LINE",
"54 606 LINE SMOOTH",
"75 602 OFFCURVE",
"86 590 OFFCURVE",
"86 569 CURVE SMOOTH",
"91 129 LINE SMOOTH",
"91 108 OFFCURVE",
"77 93 OFFCURVE",
"56 91 CURVE SMOOTH",
"34 89 LINE",
"34 -3 LINE"
);
},
{
closed = 1;
nodes = (
"716 105 LINE",
"699 135 LINE",
"661 128 LINE SMOOTH",
"642 124 OFFCURVE",
"630 132 OFFCURVE",
"621 149 CURVE SMOOTH",
"517 334 LINE",
"339 332 LINE",
"392 135 LINE SMOOTH",
"416 45 OFFCURVE",
"461 -50 OFFCURVE",
"667 0 CURVE"
);
},
{
closed = 1;
nodes = (
"397 267 OFFCURVE",
"659 299 OFFCURVE",
"659 501 CURVE SMOOTH",
"659 707 OFFCURVE",
"515 718 OFFCURVE",
"268 706 CURVE",
"285 597 LINE",
"374 604 OFFCURVE",
"427 590 OFFCURVE",
"427 493 CURVE SMOOTH",
"427 415 OFFCURVE",
"389 380 OFFCURVE",
"230 394 CURVE",
"232 293 LINE"
);
}
);
width = 713;
},
{
anchors = (
{
name = bottom;
position = "{305, 0}";
},
{
name = top;
position = "{305, 670}";
}
);
background = {
components = (
{
name = H;
transform = "{1, 0, 0, 1, -2, 0}";
}
);
};
layerId = "1B5E7594-BD1E-41E1-80E1-0DE241437139";
paths = (
{
closed = 1;
nodes = (
"159 0 LINE",
"282 -3 LINE",
"282 26 LINE",
"228 35 LINE SMOOTH",
"204 39 OFFCURVE",
"191 51 OFFCURVE",
"191 75 CURVE SMOOTH",
"191 622 LINE SMOOTH",
"191 646 OFFCURVE",
"195 696 OFFCURVE",
"219 689 CURVE SMOOTH",
"280 672 LINE",
"280 704 LINE",
"154 700 LINE",
"41 704 LINE",
"41 672 LINE",
"87 666 LINE SMOOTH",
"111 663 OFFCURVE",
"124 645 OFFCURVE",
"124 621 CURVE SMOOTH",
"124 75 LINE SMOOTH",
"124 51 OFFCURVE",
"112 38 OFFCURVE",
"88 34 CURVE SMOOTH",
"40 26 LINE",
"40 -3 LINE"
);
},
{
closed = 1;
nodes = (
"612 47 LINE",
"602 68 LINE",
"552 49 LINE SMOOTH",
"533 42 OFFCURVE",
"522 43 OFFCURVE",
"510 63 CURVE SMOOTH",
"357 329 LINE",
"296 329 LINE",
"431 59 LINE SMOOTH",
"460 1 OFFCURVE",
"514 -29 OFFCURVE",
"588 4 CURVE"
);
},
{
closed = 1;
nodes = (
"378 290 OFFCURVE",
"508 356 OFFCURVE",
"508 516 CURVE SMOOTH",
"508 698 OFFCURVE",
"348 716 OFFCURVE",
"143 700 CURVE",
"151 659 LINE",
"383 681 OFFCURVE",
"436 615 OFFCURVE",
"436 513 CURVE SMOOTH",
"436 401 OFFCURVE",
"391 336 OFFCURVE",
"154 350 CURVE",
"145 309 LINE"
);
}
);
width = 624;
}
);
unicode = 0052;
},
{
color = 1;
glyphname = S;
lastChange = "2018-06-15 20:12:08 +0000";
layers = (
{
anchors = (
{
name = bottom;
position = "{281, 0}";
},
{
name = top;
position = "{281, 670}";
}
);
guideLines = (
{
angle = 82;
position = "{102, 450}";
},
{
position = "{703, 544}";
}
);
layerId = "1B5E7594-BD1E-41E1-80E1-0DE241437139";
paths = (
{
closed = 1;
nodes = (
"395 -16 OFFCURVE",
"512 47 OFFCURVE",
"512 190 CURVE SMOOTH",
"512 319 OFFCURVE",
"404 352 OFFCURVE",
"304 383 CURVE SMOOTH",
"214 411 OFFCURVE",
"130 437 OFFCURVE",
"131 526 CURVE SMOOTH",
"132 615 OFFCURVE",
"190 662 OFFCURVE",
"310 663 CURVE SMOOTH",
"422 664 OFFCURVE",
"436 654 OFFCURVE",
"425 554 CURVE",
"469 554 LINE",
"486 683 LINE",
"479 696 LINE",
"430 708 OFFCURVE",
"381 712 OFFCURVE",
"333 712 CURVE SMOOTH",
"189 712 OFFCURVE",
"66 655 OFFCURVE",
"66 520 CURVE SMOOTH",
"66 394 OFFCURVE",
"151 367 OFFCURVE",
"267 327 CURVE SMOOTH",
"360 295 OFFCURVE",
"450 265 OFFCURVE",
"448 165 CURVE SMOOTH",
"446 84 OFFCURVE",
"374 33 OFFCURVE",
"234 36 CURVE SMOOTH",
"111 39 OFFCURVE",
"101 58 OFFCURVE",
"113 160 CURVE",
"68 160 LINE",
"49 38 LINE",
"53 24 LINE",
"106 -5 OFFCURVE",
"161 -14 OFFCURVE",
"238 -15 CURVE SMOOTH"
);
}
);
width = 560;
},
{
anchors = (
{
name = bottom;
position = "{310, 0}";
},
{
name = top;
position = "{310, 655}";
}
);
background = {
components = (
{
name = C;
transform = "{1, 0, 0, 1, -44, 0}";
}
);
};
layerId = "5A1ECF60-5C3D-4C60-84B4-C69E600E0422";
paths = (
{
closed = 1;
nodes = (
"509 -22 OFFCURVE",
"594 64 OFFCURVE",
"595 227 CURVE SMOOTH",
"596 369 OFFCURVE",
"482 415 OFFCURVE",
"381 444 CURVE SMOOTH",
"302 467 OFFCURVE",
"244 485 OFFCURVE",
"244 537 CURVE SMOOTH",
"244 610 OFFCURVE",
"311 612 OFFCURVE",
"360 605 CURVE SMOOTH",
"430 595 OFFCURVE",
"424 537 OFFCURVE",
"415 490 CURVE",
"532 490 LINE",
"566 663 LINE",
"555 698 LINE",
"480 717 OFFCURVE",
"406 721 OFFCURVE",
"348 721 CURVE SMOOTH",
"180 721 OFFCURVE",
"44 661 OFFCURVE",
"43 488 CURVE SMOOTH",
"42 364 OFFCURVE",
"117 308 OFFCURVE",
"205 277 CURVE SMOOTH",
"301 243 OFFCURVE",
"389 225 OFFCURVE",
"387 156 CURVE SMOOTH",
"385 89 OFFCURVE",
"306 83 OFFCURVE",
"249 92 CURVE SMOOTH",
"197 100 OFFCURVE",
"166 123 OFFCURVE",
"187 221 CURVE",
"69 221 LINE",
"20 46 LINE",
"36 18 LINE",
"116 -11 OFFCURVE",
"203 -17 OFFCURVE",
"270 -18 CURVE SMOOTH"
);
}
);
width = 620;
},
{
associatedMasterId = "1B5E7594-BD1E-41E1-80E1-0DE241437139";
background = {
components = (
{
name = C;
transform = "{1, 0, 0, 1, -114, 0}";
}
);
};
guideLines = (
{
angle = 82;
position = "{77, 450}";
},
{
position = "{678, 544}";
}
);
layerId = "0621537E-4CF2-4CC9-9B4E-E3CD804081AB";
name = "Mar 30 18, 20:24";
paths = (
{
closed = 1;
nodes = (
"41 660 OFFCURVE",
"165 712 OFFCURVE",
"309 712 CURVE SMOOTH",
"357 712 OFFCURVE",
"406 708 OFFCURVE",
"455 696 CURVE",
"462 683 LINE",
"445 554 LINE",
"401 554 LINE",
"412 654 OFFCURVE",
"398 664 OFFCURVE",
"286 663 CURVE SMOOTH",
"166 662 OFFCURVE",
"100 615 OFFCURVE",
"99 526 CURVE SMOOTH",
"98 458 OFFCURVE",
"145 427 OFFCURVE",
"264 390 CURVE SMOOTH",
"368 358 OFFCURVE",
"487 329 OFFCURVE",
"487 190 CURVE SMOOTH",
"487 47 OFFCURVE",
"370 -16 OFFCURVE",
"213 -15 CURVE SMOOTH",
"136 -14 OFFCURVE",
"81 -5 OFFCURVE",
"28 24 CURVE",
"24 38 LINE",
"43 160 LINE",
"88 160 LINE",
"76 58 OFFCURVE",
"86 39 OFFCURVE",
"209 36 CURVE SMOOTH",
"349 33 OFFCURVE",
"421 84 OFFCURVE",
"423 165 CURVE SMOOTH",
"425 254 OFFCURVE",
"336 288 OFFCURVE",
"234 320 CURVE SMOOTH",
"127 354 OFFCURVE",
"28 397 OFFCURVE",
"34 525 CURVE SMOOTH"
);
}
);
width = 508;
}
);
unicode = 0053;
},
{
color = 1;
glyphname = T;
lastChange = "2018-06-15 20:12:08 +0000";
layers = (
{
anchors = (
{
name = bottom;
position = "{301, 0}";
},
{
name = center;
position = "{301, 350}";
},
{
name = top;
position = "{301, 670}";
}
);
background = {
components = (
{
name = H;
transform = "{1, 0, 0, 1, -93, 0}";
}
);
};
guideLines = (
{
position = "{-66, 555}";
}
);
layerId = "1B5E7594-BD1E-41E1-80E1-0DE241437139";
paths = (
{
closed = 1;
nodes = (
"300 0 LINE",
"423 -3 LINE",
"423 28 LINE",
"369 37 LINE SMOOTH",
"345 41 OFFCURVE",
"332 53 OFFCURVE",
"332 77 CURVE SMOOTH",
"332 611 LINE SMOOTH",
"332 626 OFFCURVE",
"331 643 OFFCURVE",
"334 656 CURVE",
"464 653 LINE SMOOTH",
"513 652 OFFCURVE",
"523 633 OFFCURVE",
"518 554 CURVE",
"559 554 LINE",
"579 687 LINE",
"575 703 LINE",
"301 700 LINE",
"27 703 LINE",
"23 687 LINE",
"38 554 LINE",
"83 554 LINE",
"79 634 OFFCURVE",
"89 650 OFFCURVE",
"129 651 CURVE SMOOTH",
"262 654 LINE",
"265 641 OFFCURVE",
"265 624 OFFCURVE",
"265 610 CURVE SMOOTH",
"265 77 LINE SMOOTH",
"265 53 OFFCURVE",
"253 40 OFFCURVE",
"229 36 CURVE SMOOTH",
"181 28 LINE",
"181 -3 LINE"
);
}
);
width = 601;
},
{
anchors = (
{
name = bottom;
position = "{326, 0}";
},
{
name = center;
position = "{326, 353}";
},
{
name = top;
position = "{326, 655}";
}
);
background = {
components = (
{
name = H;
transform = "{1, 0, 0, 1, -67, 0}";
}
);
};
layerId = "5A1ECF60-5C3D-4C60-84B4-C69E600E0422";
paths = (
{
closed = 1;
nodes = (
"326 0 LINE",
"533 -4 LINE",
"533 85 LINE",
"454 92 LINE SMOOTH",
"438 93 OFFCURVE",
"429 108 OFFCURVE",
"429 126 CURVE SMOOTH",
"433 560 LINE SMOOTH",
"433 579 OFFCURVE",
"433 590 OFFCURVE",
"434 604 CURVE",
"483 602 LINE SMOOTH",
"520 600 OFFCURVE",
"534 561 OFFCURVE",
"521 490 CURVE",
"633 490 LINE",
"660 688 LINE",
"639 710 LINE",
"325 706 LINE",
"17 710 LINE",
"-9 688 LINE",
"17 491 LINE",
"131 490 LINE",
"120 553 OFFCURVE",
"125 598 OFFCURVE",
"170 601 CURVE SMOOTH",
"215 604 LINE",
"215 590 OFFCURVE",
"216 577 OFFCURVE",
"216 559 CURVE SMOOTH",
"221 129 LINE",
"221 109 OFFCURVE",
"209 94 OFFCURVE",
"190 92 CURVE SMOOTH",
"123 85 LINE",
"123 -4 LINE"
);
}
);
width = 651;
},
{
associatedMasterId = "1B5E7594-BD1E-41E1-80E1-0DE241437139";
background = {
components = (
{
name = H;
transform = "{1, 0, 0, 1, -111, 0}";
}
);
};
guideLines = (
{
position = "{-84, 555}";
}
);
layerId = "C5929904-11A4-4B27-886A-82A423437620";
name = "Mar 30 18, 20:24";
paths = (
{
closed = 1;
nodes = (
"9 704 LINE",
"283 700 LINE",
"557 704 LINE",
"561 688 LINE",
"541 555 LINE",
"500 555 LINE",
"505 634 OFFCURVE",
"495 653 OFFCURVE",
"446 654 CURVE SMOOTH",
"317 656 LINE",
"313 643 OFFCURVE",
"314 626 OFFCURVE",
"314 611 CURVE SMOOTH",
"314 77 LINE SMOOTH",
"314 53 OFFCURVE",
"327 41 OFFCURVE",
"351 37 CURVE SMOOTH",
"405 28 LINE",
"405 -3 LINE",
"282 0 LINE",
"163 -3 LINE",
"163 28 LINE",
"211 36 LINE SMOOTH",
"235 40 OFFCURVE",
"247 53 OFFCURVE",
"247 77 CURVE SMOOTH",
"247 610 LINE SMOOTH",
"247 624 OFFCURVE",
"247 641 OFFCURVE",
"244 654 CURVE",
"111 652 LINE SMOOTH",
"71 651 OFFCURVE",
"61 635 OFFCURVE",
"65 555 CURVE",
"20 555 LINE",
"5 688 LINE"
);
}
);
width = 565;
}
);
unicode = 0054;
},
{
color = 1;
glyphname = U;
lastChange = "2018-06-15 20:12:08 +0000";
layers = (
{
anchors = (
{
name = bottom;
position = "{344, 0}";
},
{
name = ogonek;
position = "{626, 10}";
},
{
name = top;
position = "{344, 670}";
},
{
name = topright;
position = "{677, 700}";
}
);
background = {
components = (
{
name = H;
transform = "{1, 0, 0, 1, -16, 0}";
}
);
};
guideLines = (
{
position = "{260, 664}";
}
);
layerId = "1B5E7594-BD1E-41E1-80E1-0DE241437139";
paths = (
{
closed = 1;
nodes = (
"508 -15 OFFCURVE",
"581 75 OFFCURVE",
"581 244 CURVE SMOOTH",
"581 612 LINE SMOOTH",
"581 649 OFFCURVE",
"586 663 OFFCURVE",
"619 667 CURVE SMOOTH",
"653 671 LINE",
"653 704 LINE",
"551 700 LINE",
"430 704 LINE",
"430 671 LINE",
"477 665 LINE SMOOTH",
"512 661 OFFCURVE",
"526 648 OFFCURVE",
"526 611 CURVE SMOOTH",
"526 250 LINE SMOOTH",
"526 96 OFFCURVE",
"462 36 OFFCURVE",
"355 36 CURVE SMOOTH",
"211 36 OFFCURVE",
"173 117 OFFCURVE",
"174 280 CURVE SMOOTH",
"176 620 LINE SMOOTH",
"176 644 OFFCURVE",
"190 663 OFFCURVE",
"214 666 CURVE SMOOTH",
"259 671 LINE",
"259 704 LINE",
"142 700 LINE",
"31 704 LINE",
"31 671 LINE",
"73 667 LINE SMOOTH",
"97 665 OFFCURVE",
"105 647 OFFCURVE",
"105 622 CURVE SMOOTH",
"104 247 LINE SMOOTH",
"104 65 OFFCURVE",
"174 -15 OFFCURVE",
"332 -15 CURVE SMOOTH"
);
}
);
width = 684;
},
{
anchors = (
{
name = bottom;
position = "{348, 0}";
},
{
name = ogonek;
position = "{626, 10}";
},
{
name = top;
position = "{348, 655}";
},
{
name = topright;
position = "{675, 706}";
}
);
background = {
components = (
{
name = H;
transform = "{1, 0, 0, 1, -24, 0}";
}
);
};
layerId = "5A1ECF60-5C3D-4C60-84B4-C69E600E0422";
paths = (
{
closed = 1;
nodes = (
"565 -17 OFFCURVE",
"628 117 OFFCURVE",
"628 285 CURVE SMOOTH",
"628 558 LINE SMOOTH",
"628 587 OFFCURVE",
"630 604 OFFCURVE",
"657 610 CURVE SMOOTH",
"681 615 LINE",
"681 710 LINE",
"553 706 LINE",
"391 710 LINE",
"391 615 LINE",
"433 611 LINE SMOOTH",
"469 608 OFFCURVE",
"487 586 OFFCURVE",
"487 552 CURVE SMOOTH",
"487 274 LINE SMOOTH",
"487 187 OFFCURVE",
"455 133 OFFCURVE",
"388 133 CURVE SMOOTH",
"312 133 OFFCURVE",
"277 180 OFFCURVE",
"278 267 CURVE SMOOTH",
"280 548 LINE SMOOTH",
"280 584 OFFCURVE",
"287 602 OFFCURVE",
"315 608 CURVE SMOOTH",
"349 615 LINE",
"349 710 LINE",
"177 706 LINE",
"16 710 LINE",
"16 612 LINE",
"39 608 LINE SMOOTH",
"59 605 OFFCURVE",
"69 592 OFFCURVE",
"69 571 CURVE SMOOTH",
"68 278 LINE SMOOTH",
"67 71 OFFCURVE",
"151 -17 OFFCURVE",
"350 -17 CURVE SMOOTH"
);
}
);
width = 695;
},
{
associatedMasterId = "1B5E7594-BD1E-41E1-80E1-0DE241437139";
background = {
components = (
{
name = H;
transform = "{1, 0, 0, 1, -55, 0}";
}
);
};
guideLines = (
{
position = "{221, 664}";
}
);
layerId = "0A94CDA9-CC55-45D0-A3CC-1475F0087483";
name = "Mar 30 18, 20:24";
paths = (
{
closed = 1;
nodes = (
"2 704 LINE",
"103 700 LINE",
"220 704 LINE",
"220 671 LINE",
"175 666 LINE SMOOTH",
"151 663 OFFCURVE",
"137 644 OFFCURVE",
"137 620 CURVE SMOOTH",
"135 285 LINE SMOOTH",
"134 115 OFFCURVE",
"180 49 OFFCURVE",
"312 49 CURVE SMOOTH",
"416 49 OFFCURVE",
"489 108 OFFCURVE",
"489 254 CURVE SMOOTH",
"489 611 LINE SMOOTH",
"489 648 OFFCURVE",
"475 661 OFFCURVE",
"440 665 CURVE SMOOTH",
"393 671 LINE",
"393 704 LINE",
"512 700 LINE",
"619 704 LINE",
"619 671 LINE",
"585 667 LINE SMOOTH",
"552 663 OFFCURVE",
"542 649 OFFCURVE",
"542 612 CURVE SMOOTH",
"542 245 LINE SMOOTH",
"542 75 OFFCURVE",
"469 -15 OFFCURVE",
"292 -15 CURVE SMOOTH",
"139 -15 OFFCURVE",
"65 66 OFFCURVE",
"65 248 CURVE SMOOTH",
"66 622 LINE SMOOTH",
"66 647 OFFCURVE",
"58 664 OFFCURVE",
"34 667 CURVE SMOOTH",
"2 671 LINE"
);
}
);
width = 614;
}
);
unicode = 0055;
},
{
color = 1;
glyphname = V;
lastChange = "2018-06-15 20:12:08 +0000";
layers = (
{
anchors = (
{
name = bottom;
position = "{332, 0}";
},
{
name = top;
position = "{332, 670}";
}
);
background = {
components = (
{
name = H;
transform = "{1, 0, 0, 1, -43, 0}";
}
);
};
layerId = "1B5E7594-BD1E-41E1-80E1-0DE241437139";
paths = (
{
closed = 1;
nodes = (
"326 -2 OFFCURVE",
"349 7 OFFCURVE",
"371 15 CURVE",
"563 615 LINE SMOOTH",
"570 636 OFFCURVE",
"580 658 OFFCURVE",
"602 661 CURVE SMOOTH",
"652 668 LINE",
"652 704 LINE",
"530 700 LINE",
"399 704 LINE",
"399 668 LINE",
"456 661 LINE SMOOTH",
"494 656 OFFCURVE",
"502 628 OFFCURVE",
"494 602 CURVE SMOOTH",
"344 87 LINE",
"335 87 LINE",
"179 611 LINE SMOOTH",
"171 637 OFFCURVE",
"178 664 OFFCURVE",
"207 667 CURVE SMOOTH",
"253 672 LINE",
"253 704 LINE",
"131 700 LINE",
"10 704 LINE",
"10 672 LINE",
"56 667 LINE SMOOTH",
"81 664 OFFCURVE",
"92 650 OFFCURVE",
"101 623 CURVE SMOOTH",
"304 -10 LINE"
);
}
);
width = 662;
},
{
associatedMasterId = "5A1ECF60-5C3D-4C60-84B4-C69E600E0422";
background = {
components = (
{
name = H;
transform = "{1, 0, 0, 1, -34, 0}";
}
);
};
backgroundImage = {
crop = "{{0, 0}, {522, 160}}";
imagePath = ../../../../Desktop/4727e6a4b0acdab98c17b3db3e0cf7.gif;
transform = "{4.27, 0, 0, 4.56, -21, -20}";
};
layerId = "D11E9D99-8DDC-41A2-BA45-536D8CD21B53";
name = "Mar 25 18, 18:43";
paths = (
{
closed = 1;
nodes = (
"3 607 LINE SMOOTH",
"22 600 OFFCURVE",
"31 593 OFFCURVE",
"38 573 CURVE SMOOTH",
"256 -12 LINE",
"319 -4 OFFCURVE",
"361 4 OFFCURVE",
"401 7 CURVE",
"613 567 LINE SMOOTH",
"620 586 OFFCURVE",
"625 599 OFFCURVE",
"644 606 CURVE SMOOTH",
"667 614 LINE",
"668 709 LINE",
"545 704 LINE",
"397 708 LINE",
"397 614 LINE",
"448 607 LINE SMOOTH",
"470 604 OFFCURVE",
"480 581 OFFCURVE",
"473 560 CURVE SMOOTH",
"378 277 LINE",
"360 277 LINE",
"277 564 LINE SMOOTH",
"271 586 OFFCURVE",
"282 600 OFFCURVE",
"304 606 CURVE SMOOTH",
"332 614 LINE",
"332 708 LINE",
"132 704 LINE",
"-15 708 LINE",
"-15 614 LINE"
);
}
);
width = 658;
},
{
anchors = (
{
name = bottom;
position = "{314, 0}";
},
{
name = top;
position = "{314, 655}";
}
);
background = {
components = (
{
name = H;
transform = "{1, 0, 0, 1, -61, 0}";
}
);
};
layerId = "5A1ECF60-5C3D-4C60-84B4-C69E600E0422";
paths = (
{
closed = 1;
nodes = (
"262 -4 OFFCURVE",
"374 6 OFFCURVE",
"444 7 CURVE",
"586 567 LINE SMOOTH",
"591 586 OFFCURVE",
"598 599 OFFCURVE",
"617 606 CURVE SMOOTH",
"640 614 LINE",
"641 709 LINE",
"518 704 LINE",
"370 708 LINE",
"370 614 LINE",
"404 607 LINE SMOOTH",
"426 602 OFFCURVE",
"433 581 OFFCURVE",
"429 560 CURVE SMOOTH",
"352 180 LINE",
"331 180 LINE",
"272 564 LINE SMOOTH",
"268 587 OFFCURVE",
"277 600 OFFCURVE",
"299 606 CURVE SMOOTH",
"327 614 LINE",
"327 708 LINE",
"135 704 LINE",
"-12 708 LINE",
"-12 614 LINE",
"6 607 LINE SMOOTH",
"25 600 OFFCURVE",
"37 593 OFFCURVE",
"41 573 CURVE SMOOTH",
"169 -12 LINE"
);
}
);
width = 627;
},
{
associatedMasterId = "1B5E7594-BD1E-41E1-80E1-0DE241437139";
background = {
components = (
{
name = W;
transform = "{1, 0, 0, 1, -13, 0}";
}
);
};
layerId = "064BAA9B-EC15-4389-A818-99A668A1592B";
name = "Mar 30 18, 20:24";
paths = (
{
closed = 1;
nodes = (
"41 667 LINE SMOOTH",
"66 664 OFFCURVE",
"78 650 OFFCURVE",
"86 623 CURVE SMOOTH",
"274 -10 LINE",
"296 -2 OFFCURVE",
"319 7 OFFCURVE",
"341 15 CURVE",
"528 615 LINE SMOOTH",
"534 636 OFFCURVE",
"545 658 OFFCURVE",
"567 661 CURVE SMOOTH",
"617 668 LINE",
"617 704 LINE",
"495 700 LINE",
"364 704 LINE",
"364 668 LINE",
"421 661 LINE SMOOTH",
"459 656 OFFCURVE",
"466 628 OFFCURVE",
"459 602 CURVE SMOOTH",
"313 82 LINE",
"304 82 LINE",
"170 611 LINE SMOOTH",
"163 637 OFFCURVE",
"169 664 OFFCURVE",
"198 667 CURVE SMOOTH",
"244 672 LINE",
"244 704 LINE",
"120 700 LINE",
"-5 704 LINE",
"-5 672 LINE"
);
}
);
width = 613;
}
);
leftKerningGroup = V;
rightKerningGroup = V;
unicode = 0056;
},
{
color = 1;
glyphname = W;
lastChange = "2018-06-15 20:12:08 +0000";
layers = (
{
anchors = (
{
name = bottom;
position = "{498, 0}";
},
{
name = top;
position = "{498, 670}";
}
);
background = {
components = (
{
name = V;
transform = "{1, 0, 0, 1, 12, 0}";
},
{
name = V;
transform = "{1, 0, 0, 1, 355, 0}";
}
);
};
layerId = "1B5E7594-BD1E-41E1-80E1-0DE241437139";
paths = (
{
closed = 1;
nodes = (
"319 -2 OFFCURVE",
"342 7 OFFCURVE",
"364 15 CURVE",
"500 434 LINE",
"641 -10 LINE",
"663 -2 OFFCURVE",
"686 7 OFFCURVE",
"708 15 CURVE",
"898 615 LINE SMOOTH",
"906 639 OFFCURVE",
"915 657 OFFCURVE",
"942 663 CURVE SMOOTH",
"984 672 LINE",
"984 704 LINE",
"874 700 LINE",
"731 704 LINE",
"731 672 LINE",
"787 664 LINE SMOOTH",
"824 659 OFFCURVE",
"840 632 OFFCURVE",
"831 602 CURVE SMOOTH",
"684 93 LINE",
"676 93 LINE",
"490 706 LINE",
"431 689 LINE",
"425 678 LINE",
"473 524 LINE",
"339 93 LINE",
"332 93 LINE",
"174 611 LINE SMOOTH",
"166 637 OFFCURVE",
"182 660 OFFCURVE",
"208 664 CURVE SMOOTH",
"262 672 LINE",
"262 704 LINE",
"132 700 LINE",
"10 704 LINE",
"10 672 LINE",
"57 665 LINE SMOOTH",
"80 662 OFFCURVE",
"91 646 OFFCURVE",
"98 623 CURVE SMOOTH",
"297 -10 LINE"
);
}
);
width = 994;
},
{
anchors = (
{
name = bottom;
position = "{487, 0}";
},
{
name = top;
position = "{487, 655}";
}
);
background = {
components = (
{
name = V;
transform = "{1, 0, 0, 1, 322, 0}";
},
{
name = V;
transform = "{1, 0, 0, 1, -31, 0}";
}
);
};
guideLines = (
{
position = "{885, 195}";
}
);
layerId = "5A1ECF60-5C3D-4C60-84B4-C69E600E0422";
paths = (
{
closed = 1;
nodes = (
"240 -1 OFFCURVE",
"349 6 OFFCURVE",
"419 6 CURVE",
"480 242 LINE",
"539 -10 LINE",
"609 -3 OFFCURVE",
"719 4 OFFCURVE",
"789 6 CURVE",
"928 566 LINE SMOOTH",
"933 585 OFFCURVE",
"943 594 OFFCURVE",
"960 602 CURVE SMOOTH",
"988 615 LINE",
"988 709 LINE",
"863 706 LINE",
"702 709 LINE",
"702 615 LINE",
"756 602 LINE SMOOTH",
"778 597 OFFCURVE",
"787 581 OFFCURVE",
"782 559 CURVE SMOOTH",
"697 181 LINE",
"679 181 LINE",
"600 713 LINE",
"384 690 LINE",
"366 666 LINE",
"408 459 LINE",
"343 181 LINE",
"323 181 LINE",
"262 564 LINE SMOOTH",
"258 587 OFFCURVE",
"267 601 OFFCURVE",
"289 606 CURVE SMOOTH",
"321 614 LINE",
"321 708 LINE",
"125 706 LINE",
"-11 708 LINE",
"-11 614 LINE",
"8 606 LINE SMOOTH",
"27 598 OFFCURVE",
"36 593 OFFCURVE",
"40 573 CURVE SMOOTH",
"170 -10 LINE"
);
}
);
width = 973;
},
{
associatedMasterId = "1B5E7594-BD1E-41E1-80E1-0DE241437139";
background = {
components = (
{
name = I;
transform = "{1, 0, 0, 1, 624, 0}";
}
);
};
layerId = "1BA8BBAA-7E4E-4A81-86C2-6B597D792EE8";
name = "Mar 30 18, 20:24";
paths = (
{
closed = 1;
nodes = (
"42 665 LINE SMOOTH",
"65 662 OFFCURVE",
"77 646 OFFCURVE",
"83 623 CURVE SMOOTH",
"244 -10 LINE",
"266 -2 OFFCURVE",
"289 7 OFFCURVE",
"311 15 CURVE",
"460 446 LINE",
"594 -10 LINE",
"616 -2 OFFCURVE",
"639 7 OFFCURVE",
"661 15 CURVE",
"821 615 LINE SMOOTH",
"827 639 OFFCURVE",
"838 657 OFFCURVE",
"865 663 CURVE SMOOTH",
"907 672 LINE",
"907 704 LINE",
"797 700 LINE",
"654 704 LINE",
"654 672 LINE",
"710 664 LINE SMOOTH",
"747 659 OFFCURVE",
"761 632 OFFCURVE",
"754 602 CURVE SMOOTH",
"637 93 LINE",
"629 93 LINE",
"457 706 LINE",
"398 690 LINE",
"392 679 LINE",
"434 532 LINE",
"289 93 LINE",
"282 93 LINE",
"159 611 LINE SMOOTH",
"153 637 OFFCURVE",
"167 660 OFFCURVE",
"193 664 CURVE SMOOTH",
"247 672 LINE",
"247 704 LINE",
"117 700 LINE",
"-5 704 LINE",
"-5 672 LINE"
);
}
);
width = 902;
}
);
unicode = 0057;
},
{
color = 1;
glyphname = X;
lastChange = "2018-06-15 20:12:08 +0000";
layers = (
{
anchors = (
{
name = bottom;
position = "{351, 0}";
},
{
name = top;
position = "{351, 670}";
}
);
background = {
paths = (
{
closed = 1;
nodes = (
"133 118 OFFCURVE",
"89 67 OFFCURVE",
"29 49 CURVE",
"22 4 LINE",
"26 -4 LINE",
"37 -3 OFFCURVE",
"49 -3 OFFCURVE",
"61 -1 CURVE SMOOTH",
"82 2 OFFCURVE",
"106 1 OFFCURVE",
"127 1 CURVE SMOOTH",
"146 1 OFFCURVE",
"174 0 OFFCURVE",
"197 -4 CURVE",
"210 -5 OFFCURVE",
"225 -6 OFFCURVE",
"239 -7 CURVE",
"246 40 LINE",
"244 44 LINE",
"204 48 OFFCURVE",
"185 59 OFFCURVE",
"185 77 CURVE SMOOTH",
"185 87 OFFCURVE",
"189 99 OFFCURVE",
"196 112 CURVE SMOOTH",
"203 125 OFFCURVE",
"217 146 OFFCURVE",
"237 175 CURVE SMOOTH",
"331 308 LINE",
"442 129 LINE SMOOTH",
"455 108 OFFCURVE",
"462 94 OFFCURVE",
"462 81 CURVE SMOOTH",
"462 69 OFFCURVE",
"456 59 OFFCURVE",
"443 53 CURVE SMOOTH",
"430 47 OFFCURVE",
"410 43 OFFCURVE",
"383 42 CURVE",
"379 0 LINE",
"382 -8 LINE",
"401 -7 OFFCURVE",
"419 -5 OFFCURVE",
"439 -4 CURVE",
"471 0 OFFCURVE",
"511 1 OFFCURVE",
"540 1 CURVE SMOOTH",
"563 1 OFFCURVE",
"595 1 OFFCURVE",
"620 -1 CURVE SMOOTH",
"636 -2 OFFCURVE",
"651 -3 OFFCURVE",
"666 -3 CURVE",
"673 44 LINE",
"671 49 LINE",
"607 54 OFFCURVE",
"568 83 OFFCURVE",
"532 140 CURVE SMOOTH",
"383 373 LINE",
"506 540 LINE SMOOTH",
"534 578 OFFCURVE",
"553 602 OFFCURVE",
"573 620 CURVE SMOOTH",
"593 638 OFFCURVE",
"613 646 OFFCURVE",
"645 654 CURVE",
"651 694 LINE",
"647 702 LINE",
"636 701 OFFCURVE",
"623 701 OFFCURVE",
"612 700 CURVE",
"593 699 OFFCURVE",
"567 697 OFFCURVE",
"548 697 CURVE SMOOTH",
"529 697 OFFCURVE",
"501 697 OFFCURVE",
"478 701 CURVE",
"464 702 OFFCURVE",
"450 704 OFFCURVE",
"436 705 CURVE",
"430 662 LINE",
"432 658 LINE",
"453 656 OFFCURVE",
"468 653 OFFCURVE",
"478 648 CURVE",
"487 643 OFFCURVE",
"491 635 OFFCURVE",
"491 625 CURVE SMOOTH",
"491 618 OFFCURVE",
"486 606 OFFCURVE",
"477 589 CURVE SMOOTH",
"459 555 OFFCURVE",
"429 514 OFFCURVE",
"398 471 CURVE SMOOTH",
"382 449 OFFCURVE",
"368 429 OFFCURVE",
"357 413 CURVE",
"323 469 OFFCURVE",
"295 516 OFFCURVE",
"274 553 CURVE SMOOTH",
"253 590 OFFCURVE",
"242 612 OFFCURVE",
"242 621 CURVE SMOOTH",
"242 633 OFFCURVE",
"248 643 OFFCURVE",
"260 648 CURVE SMOOTH",
"273 654 OFFCURVE",
"293 658 OFFCURVE",
"321 660 CURVE",
"325 699 LINE",
"321 706 LINE",
"310 705 OFFCURVE",
"297 703 OFFCURVE",
"283 702 CURVE",
"258 699 OFFCURVE",
"224 697 OFFCURVE",
"184 697 CURVE SMOOTH",
"173 697 OFFCURVE",
"158 697 OFFCURVE",
"142 697 CURVE SMOOTH",
"125 697 OFFCURVE",
"108 697 OFFCURVE",
"93 699 CURVE SMOOTH",
"76 701 OFFCURVE",
"56 700 OFFCURVE",
"37 701 CURVE",
"31 658 LINE",
"33 654 LINE",
"95 645 OFFCURVE",
"140 616 OFFCURVE",
"173 563 CURVE SMOOTH",
"306 349 LINE",
"194 200 LINE SMOOTH"
);
}
);
};
guideLines = (
{
angle = 58;
position = "{373, 414}";
}
);
layerId = "1B5E7594-BD1E-41E1-80E1-0DE241437139";
paths = (
{
closed = 1;
nodes = (
"552 0 LINE",
"678 -4 LINE",
"678 30 LINE",
"618 35 LINE SMOOTH",
"598 37 OFFCURVE",
"586 48 OFFCURVE",
"574 66 CURVE SMOOTH",
"379 364 LINE",
"364 379 LINE",
"226 611 LINE SMOOTH",
"207 643 OFFCURVE",
"207 659 OFFCURVE",
"244 666 CURVE SMOOTH",
"283 673 LINE",
"283 704 LINE",
"155 700 LINE",
"40 704 LINE",
"40 665 LINE",
"77 662 LINE SMOOTH",
"105 660 OFFCURVE",
"120 651 OFFCURVE",
"134 629 CURVE SMOOTH",
"308 350 LINE",
"328 330 LINE",
"486 81 LINE SMOOTH",
"502 56 OFFCURVE",
"491 35 OFFCURVE",
"462 30 CURVE SMOOTH",
"438 26 LINE",
"438 -4 LINE"
);
},
{
closed = 1;
nodes = (
"121 0 LINE",
"254 -4 LINE",
"254 28 LINE",
"205 38 LINE SMOOTH",
"177 44 OFFCURVE",
"172 67 OFFCURVE",
"188 90 CURVE SMOOTH",
"345 321 LINE",
"315 359 LINE",
"117 78 LINE SMOOTH",
"101 56 OFFCURVE",
"86 44 OFFCURVE",
"71 40 CURVE SMOOTH",
"24 27 LINE",
"24 -4 LINE"
);
},
{
closed = 1;
nodes = (
"570 622 LINE SMOOTH",
"589 649 OFFCURVE",
"602 660 OFFCURVE",
"625 664 CURVE SMOOTH",
"664 671 LINE",
"664 704 LINE",
"550 700 LINE",
"429 704 LINE",
"429 674 LINE",
"474 668 LINE SMOOTH",
"509 663 OFFCURVE",
"525 648 OFFCURVE",
"495 604 CURVE SMOOTH",
"346 387 LINE",
"369 339 LINE"
);
}
);
width = 702;
},
{
anchors = (
{
name = bottom;
position = "{361, 0}";
},
{
name = top;
position = "{361, 655}";
}
);
background = {
components = (
{
name = H;
transform = "{1, 0, 0, 1, -13, 0}";
}
);
};
layerId = "5A1ECF60-5C3D-4C60-84B4-C69E600E0422";
paths = (
{
closed = 1;
nodes = (
"545 0 LINE",
"720 -3 LINE",
"720 85 LINE",
"693 90 LINE SMOOTH",
"663 96 OFFCURVE",
"643 114 OFFCURVE",
"629 137 CURVE SMOOTH",
"456 408 LINE",
"413 427 LINE",
"335 564 LINE SMOOTH",
"323 586 OFFCURVE",
"329 605 OFFCURVE",
"354 610 CURVE SMOOTH",
"386 616 LINE",
"386 710 LINE",
"190 706 LINE",
"10 710 LINE",
"10 614 LINE",
"32 611 LINE SMOOTH",
"62 607 OFFCURVE",
"84 587 OFFCURVE",
"98 565 CURVE SMOOTH",
"281 274 LINE",
"312 283 LINE",
"400 137 LINE SMOOTH",
"413 115 OFFCURVE",
"406 96 OFFCURVE",
"382 91 CURVE SMOOTH",
"354 85 LINE",
"354 -3 LINE"
);
},
{
closed = 1;
nodes = (
"137 0 LINE",
"312 -3 LINE",
"312 85 LINE",
"273 94 LINE SMOOTH",
"249 100 OFFCURVE",
"242 117 OFFCURVE",
"256 140 CURVE SMOOTH",
"379 342 LINE",
"304 451 LINE",
"89 125 LINE SMOOTH",
"80 111 OFFCURVE",
"67 103 OFFCURVE",
"51 99 CURVE SMOOTH",
"0 85 LINE",
"0 -3 LINE"
);
},
{
closed = 1;
nodes = (
"635 572 LINE SMOOTH",
"645 586 OFFCURVE",
"664 599 OFFCURVE",
"682 604 CURVE SMOOTH",
"713 613 LINE",
"713 710 LINE",
"572 706 LINE",
"430 710 LINE",
"430 615 LINE",
"456 610 LINE SMOOTH",
"480 605 OFFCURVE",
"490 582 OFFCURVE",
"477 561 CURVE SMOOTH",
"330 334 LINE",
"425 285 LINE"
);
}
);
width = 721;
},
{
associatedMasterId = "1B5E7594-BD1E-41E1-80E1-0DE241437139";
background = {
components = (
{
name = I;
transform = "{1, 0, 0, 1, -22, 0}";
}
);
};
layerId = "60EF86C4-48F6-4F44-A339-852B058069A3";
name = "Mar 30 18, 20:24";
paths = (
{
closed = 1;
nodes = (
"350 331 LINE",
"540 622 LINE SMOOTH",
"558 650 OFFCURVE",
"572 660 OFFCURVE",
"595 664 CURVE SMOOTH",
"634 671 LINE",
"634 704 LINE",
"520 700 LINE",
"401 704 LINE",
"401 674 LINE",
"446 668 LINE SMOOTH",
"481 663 OFFCURVE",
"495 650 OFFCURVE",
"467 604 CURVE SMOOTH",
"322 360 LINE"
);
},
{
closed = 1;
nodes = (
"57 662 LINE SMOOTH",
"85 660 OFFCURVE",
"101 651 OFFCURVE",
"114 629 CURVE SMOOTH",
"286 350 LINE",
"304 330 LINE",
"444 81 LINE SMOOTH",
"458 56 OFFCURVE",
"449 35 OFFCURVE",
"420 30 CURVE SMOOTH",
"396 26 LINE",
"396 -4 LINE",
"513 0 LINE",
"639 -4 LINE",
"639 30 LINE",
"579 35 LINE SMOOTH",
"559 37 OFFCURVE",
"546 48 OFFCURVE",
"535 66 CURVE SMOOTH",
"359 360 LINE",
"346 376 LINE",
"211 611 LINE SMOOTH",
"192 643 OFFCURVE",
"192 659 OFFCURVE",
"229 666 CURVE SMOOTH",
"268 673 LINE",
"268 704 LINE",
"135 700 LINE",
"20 704 LINE",
"20 665 LINE"
);
},
{
closed = 1;
nodes = (
"301 379 LINE",
"113 78 LINE SMOOTH",
"98 55 OFFCURVE",
"82 43 OFFCURVE",
"67 40 CURVE SMOOTH",
"0 27 LINE",
"0 -4 LINE",
"117 0 LINE",
"250 -4 LINE",
"250 28 LINE",
"201 38 LINE SMOOTH",
"173 44 OFFCURVE",
"170 65 OFFCURVE",
"184 90 CURVE SMOOTH",
"329 350 LINE"
);
}
);
width = 641;
}
);
unicode = 0058;
},
{
color = 1;
glyphname = Y;
lastChange = "2018-06-15 20:12:08 +0000";
layers = (
{
anchors = (
{
name = bottom;
position = "{297, 0}";
},
{
name = top;
position = "{297, 670}";
},
{
name = topleft;
position = "{35, 700}";
}
);
background = {
components = (
{
name = I;
transform = "{1, 0, 0, 1, 135, 0}";
}
);
};
layerId = "1B5E7594-BD1E-41E1-80E1-0DE241437139";
paths = (
{
closed = 1;
nodes = (
"292 0 LINE",
"430 -4 LINE",
"430 27 LINE",
"364 37 LINE SMOOTH",
"340 41 OFFCURVE",
"327 51 OFFCURVE",
"327 79 CURVE SMOOTH",
"327 253 LINE",
"501 623 LINE SMOOTH",
"511 644 OFFCURVE",
"521 656 OFFCURVE",
"543 661 CURVE SMOOTH",
"585 670 LINE",
"585 704 LINE",
"477 700 LINE",
"350 703 LINE",
"350 669 LINE",
"414 662 LINE SMOOTH",
"446 659 OFFCURVE",
"451 641 OFFCURVE",
"440 616 CURVE SMOOTH",
"307 310 LINE",
"172 618 LINE SMOOTH",
"161 644 OFFCURVE",
"170 665 OFFCURVE",
"198 667 CURVE SMOOTH",
"249 670 LINE",
"249 703 LINE",
"108 700 LINE",
"11 703 LINE",
"11 666 LINE",
"41 664 LINE SMOOTH",
"62 663 OFFCURVE",
"74 650 OFFCURVE",
"83 631 CURVE SMOOTH",
"260 242 LINE",
"260 80 LINE SMOOTH",
"260 52 OFFCURVE",
"247 41 OFFCURVE",
"223 37 CURVE SMOOTH",
"162 27 LINE",
"162 -4 LINE"
);
}
);
width = 595;
},
{
anchors = (
{
name = bottom;
position = "{291, 0}";
},
{
name = top;
position = "{291, 655}";
},
{
name = topleft;
position = "{20, 706}";
}
);
background = {
components = (
{
name = H;
transform = "{1, 0, 0, 1, -70, 0}";
}
);
};
layerId = "5A1ECF60-5C3D-4C60-84B4-C69E600E0422";
paths = (
{
closed = 1;
nodes = (
"282 0 LINE",
"471 -3 LINE",
"471 90 LINE",
"426 96 LINE SMOOTH",
"400 99 OFFCURVE",
"392 122 OFFCURVE",
"392 148 CURVE SMOOTH",
"392 263 LINE",
"542 567 LINE SMOOTH",
"552 588 OFFCURVE",
"559 602 OFFCURVE",
"580 608 CURVE SMOOTH",
"602 614 LINE",
"602 710 LINE",
"478 706 LINE",
"345 710 LINE",
"345 616 LINE",
"383 607 LINE SMOOTH",
"406 602 OFFCURVE",
"410 583 OFFCURVE",
"400 561 CURVE SMOOTH",
"323 388 LINE",
"255 565 LINE SMOOTH",
"246 589 OFFCURVE",
"255 606 OFFCURVE",
"278 610 CURVE SMOOTH",
"309 616 LINE",
"309 710 LINE",
"130 706 LINE",
"-19 710 LINE",
"-19 614 LINE",
"1 610 LINE SMOOTH",
"19 606 OFFCURVE",
"27 595 OFFCURVE",
"34 579 CURVE SMOOTH",
"181 260 LINE",
"181 150 LINE SMOOTH",
"181 124 OFFCURVE",
"173 104 OFFCURVE",
"146 99 CURVE SMOOTH",
"94 90 LINE",
"94 -3 LINE"
);
}
);
width = 582;
},
{
associatedMasterId = "1B5E7594-BD1E-41E1-80E1-0DE241437139";
background = {
components = (
{
name = I;
transform = "{1, 0, 0, 1, 158, 0}";
}
);
};
layerId = "D0DCB068-EADD-442C-A995-67A1BBE596E9";
name = "Mar 25 18, 19:22";
paths = (
{
closed = 1;
nodes = (
"64 664 LINE SMOOTH",
"85 663 OFFCURVE",
"97 650 OFFCURVE",
"106 631 CURVE SMOOTH",
"282 242 LINE",
"282 80 LINE SMOOTH",
"282 52 OFFCURVE",
"269 41 OFFCURVE",
"245 37 CURVE SMOOTH",
"184 27 LINE",
"184 -4 LINE",
"315 0 LINE",
"453 -4 LINE",
"453 27 LINE",
"387 37 LINE SMOOTH",
"363 41 OFFCURVE",
"350 51 OFFCURVE",
"350 79 CURVE SMOOTH",
"350 253 LINE",
"524 623 LINE SMOOTH",
"534 644 OFFCURVE",
"544 656 OFFCURVE",
"566 661 CURVE SMOOTH",
"608 670 LINE",
"608 704 LINE",
"500 700 LINE",
"373 703 LINE",
"373 669 LINE",
"437 662 LINE SMOOTH",
"469 659 OFFCURVE",
"474 641 OFFCURVE",
"463 616 CURVE SMOOTH",
"330 310 LINE",
"195 618 LINE SMOOTH",
"184 644 OFFCURVE",
"193 665 OFFCURVE",
"221 667 CURVE SMOOTH",
"272 670 LINE",
"272 703 LINE",
"131 700 LINE",
"34 703 LINE",
"34 666 LINE"
);
}
);
width = 641;
},
{
associatedMasterId = "1B5E7594-BD1E-41E1-80E1-0DE241437139";
background = {
components = (
{
name = I;
transform = "{1, 0, 0, 1, 120, 0}";
}
);
};
layerId = "3FC52F69-A015-42E6-A58C-8FEA9CA80B5F";
name = "Mar 30 18, 20:24";
paths = (
{
closed = 1;
nodes = (
"26 664 LINE SMOOTH",
"47 663 OFFCURVE",
"59 650 OFFCURVE",
"68 631 CURVE SMOOTH",
"245 242 LINE",
"245 80 LINE SMOOTH",
"245 52 OFFCURVE",
"232 41 OFFCURVE",
"208 37 CURVE SMOOTH",
"147 27 LINE",
"147 -4 LINE",
"277 0 LINE",
"415 -4 LINE",
"415 27 LINE",
"349 37 LINE SMOOTH",
"325 41 OFFCURVE",
"312 51 OFFCURVE",
"312 79 CURVE SMOOTH",
"312 253 LINE",
"486 623 LINE SMOOTH",
"496 644 OFFCURVE",
"506 656 OFFCURVE",
"528 661 CURVE SMOOTH",
"570 670 LINE",
"570 704 LINE",
"462 700 LINE",
"335 703 LINE",
"335 669 LINE",
"399 662 LINE SMOOTH",
"431 659 OFFCURVE",
"436 641 OFFCURVE",
"425 616 CURVE SMOOTH",
"292 310 LINE",
"157 618 LINE SMOOTH",
"146 644 OFFCURVE",
"155 665 OFFCURVE",
"183 667 CURVE SMOOTH",
"234 670 LINE",
"234 703 LINE",
"93 700 LINE",
"-4 703 LINE",
"-4 666 LINE"
);
}
);
width = 566;
}
);
unicode = 0059;
},
{
color = 1;
glyphname = Z;
lastChange = "2018-06-15 20:12:08 +0000";
layers = (
{
anchors = (
{
name = bottom;
position = "{287, 0}";
},
{
name = top;
position = "{287, 670}";
}
);
guideLines = (
{
position = "{-56, 545}";
}
);
layerId = "1B5E7594-BD1E-41E1-80E1-0DE241437139";
paths = (
{
closed = 1;
nodes = (
"532 24 LINE",
"508 160 LINE",
"469 160 LINE",
"473 80 OFFCURVE",
"463 46 OFFCURVE",
"417 46 CURVE SMOOTH",
"126 44 LINE",
"189 140 LINE",
"530 671 LINE",
"516 696 LINE",
"73 701 LINE",
"56 683 LINE",
"71 546 LINE",
"111 546 LINE",
"107 621 OFFCURVE",
"120 649 OFFCURVE",
"163 649 CURVE SMOOTH",
"442 652 LINE",
"381 564 LINE",
"36 31 LINE",
"48 6 LINE",
"514 -1 LINE"
);
}
);
width = 573;
},
{
anchors = (
{
name = bottom;
position = "{312, 0}";
},
{
name = top;
position = "{312, 655}";
}
);
layerId = "5A1ECF60-5C3D-4C60-84B4-C69E600E0422";
paths = (
{
closed = 1;
nodes = (
"597 28 LINE",
"562 270 LINE",
"446 271 LINE",
"456 138 OFFCURVE",
"420 108 OFFCURVE",
"374 107 CURVE SMOOTH",
"253 104 LINE",
"310 170 LINE",
"607 628 LINE",
"572 706 LINE",
"57 708 LINE",
"40 689 LINE",
"64 428 LINE",
"181 428 LINE",
"181 566 OFFCURVE",
"209 589 OFFCURVE",
"268 590 CURVE SMOOTH",
"367 592 LINE",
"312 530 LINE",
"14 82 LINE",
"47 -3 LINE",
"577 -4 LINE"
);
}
);
width = 625;
}
);
unicode = 005A;
},
{
color = 1;
glyphname = a;
lastChange = "2018-06-15 20:34:38 +0000";
layers = (
{
anchors = (
{
name = bottom;
position = "{235, 0}";
},
{
name = ogonek;
position = "{435, 10}";
},
{
name = top;
position = "{235, 500}";
}
);
background = {
anchors = (
{
name = bottom;
position = "{177, 0}";
},
{
name = top;
position = "{177, 500}";
}
);
components = (
{
name = n;
transform = "{1, 0, 0, 1, -129, 0}";
}
);
};
guideLines = (
{
position = "{982, 64}";
},
{
position = "{-379, 473}";
},
{
position = "{787, 508}";
}
);
layerId = "1B5E7594-BD1E-41E1-80E1-0DE241437139";
paths = (
{
closed = 1;
nodes = (
"469 47 LINE",
"459 68 LINE",
"403 46 LINE SMOOTH",
"368 32 OFFCURVE",
"375 66 OFFCURVE",
"376 94 CURVE SMOOTH",
"382 360 LINE SMOOTH",
"384 457 OFFCURVE",
"323 508 OFFCURVE",
"237 508 CURVE SMOOTH",
"183 508 OFFCURVE",
"132 493 OFFCURVE",
"69 453 CURVE",
"75 422 LINE",
"87 417 LINE",
"246 495 OFFCURVE",
"315 440 OFFCURVE",
"314 363 CURVE SMOOTH",
"311 103 LINE SMOOTH",
"310 34 OFFCURVE",
"333 -37 OFFCURVE",
"444 3 CURVE"
);
},
{
closed = 1;
nodes = (
"251 -9 OFFCURVE",
"321 64 OFFCURVE",
"339 81 CURVE",
"342 113 LINE",
"296 83 OFFCURVE",
"231 44 OFFCURVE",
"164 44 CURVE SMOOTH",
"76 44 OFFCURVE",
"67 197 OFFCURVE",
"197 234 CURVE SMOOTH",
"341 276 LINE",
"349 320 LINE",
"252 295 LINE SMOOTH",
"128 263 OFFCURVE",
"27 222 OFFCURVE",
"27 122 CURVE SMOOTH",
"27 33 OFFCURVE",
"73 -9 OFFCURVE",
"156 -9 CURVE SMOOTH"
);
}
);
width = 476;
},
{
anchors = (
{
name = bottom;
position = "{273, 0}";
},
{
name = ogonek;
position = "{493, 10}";
},
{
name = top;
position = "{273, 506}";
}
);
associatedMasterId = "5A1ECF60-5C3D-4C60-84B4-C69E600E0422";
background = {
components = (
{
name = n;
transform = "{1, 0, 0, 1, -86, 0}";
}
);
};
guideLines = (
{
position = "{-570, 515}";
}
);
layerId = "9FD0948A-3B3C-48ED-B7B7-DC69A5FF59CF";
name = "Apr 21 18, 16:38";
paths = (
{
closed = 1;
nodes = (
"558 105 LINE",
"540 134 LINE",
"502 126 LINE SMOOTH",
"478 121 OFFCURVE",
"464 132 OFFCURVE",
"466 156 CURVE SMOOTH",
"480 337 LINE SMOOTH",
"491 475 OFFCURVE",
"419 522 OFFCURVE",
"304 522 CURVE SMOOTH",
"235 522 OFFCURVE",
"146 506 OFFCURVE",
"58 478 CURVE",
"76 373 LINE",
"96 359 LINE",
"222 399 OFFCURVE",
"281 403 OFFCURVE",
"280 322 CURVE SMOOTH",
"277 111 LINE SMOOTH",
"276 39 OFFCURVE",
"329 -46 OFFCURVE",
"510 0 CURVE"
);
},
{
closed = 1;
nodes = (
"275 -16 OFFCURVE",
"330 107 OFFCURVE",
"343 137 CURVE",
"350 185 LINE",
"316 145 OFFCURVE",
"278 106 OFFCURVE",
"230 115 CURVE SMOOTH",
"188 123 OFFCURVE",
"191 200 OFFCURVE",
"260 214 CURVE SMOOTH",
"372 237 LINE",
"359 309 LINE",
"199 288 LINE SMOOTH",
"58 270 OFFCURVE",
"10 233 OFFCURVE",
"8 131 CURVE SMOOTH",
"6 30 OFFCURVE",
"79 -16 OFFCURVE",
"168 -16 CURVE SMOOTH"
);
}
);
width = 548;
},
{
anchors = (
{
name = bottom;
position = "{273, 0}";
},
{
name = ogonek;
position = "{493, 10}";
},
{
name = top;
position = "{273, 506}";
}
);
associatedMasterId = "5A1ECF60-5C3D-4C60-84B4-C69E600E0422";
background = {
components = (
{
name = e;
transform = "{-0.86603, -0.5, 0.5, -0.86603, 386, 604}";
}
);
};
guideLines = (
{
position = "{-199, 521}";
}
);
layerId = "76089A52-712C-4DF9-81B7-E39B493A0F3E";
name = "Jun 15 18, 20:56";
paths = (
{
closed = 1;
nodes = (
"558 105 LINE",
"540 134 LINE",
"502 126 LINE SMOOTH",
"478 121 OFFCURVE",
"464 132 OFFCURVE",
"466 156 CURVE SMOOTH",
"480 337 LINE SMOOTH",
"491 464 OFFCURVE",
"419 508 OFFCURVE",
"310 517 CURVE SMOOTH",
"218 525 OFFCURVE",
"116 499 OFFCURVE",
"52 436 CURVE",
"73 358 LINE",
"94 347 LINE",
"214 390 OFFCURVE",
"281 396 OFFCURVE",
"280 319 CURVE SMOOTH",
"277 111 LINE SMOOTH",
"276 39 OFFCURVE",
"329 -46 OFFCURVE",
"510 0 CURVE"
);
},
{
closed = 1;
nodes = (
"275 -16 OFFCURVE",
"330 107 OFFCURVE",
"343 137 CURVE",
"350 185 LINE",
"316 145 OFFCURVE",
"278 106 OFFCURVE",
"230 115 CURVE SMOOTH",
"188 123 OFFCURVE",
"191 200 OFFCURVE",
"260 214 CURVE SMOOTH",
"372 237 LINE",
"359 309 LINE",
"199 288 LINE SMOOTH",
"58 270 OFFCURVE",
"10 233 OFFCURVE",
"8 131 CURVE SMOOTH",
"6 30 OFFCURVE",
"79 -16 OFFCURVE",
"168 -16 CURVE SMOOTH"
);
}
);
width = 548;
},
{
anchors = (
{
name = bottom;
position = "{274, 0}";
},
{
name = ogonek;
position = "{494, 10}";
},
{
name = top;
position = "{274, 506}";
}
);
background = {
components = (
{
name = e;
transform = "{-0.86603, -0.5, 0.5, -0.86603, 387, 604}";
}
);
};
guideLines = (
{
position = "{-198, 521}";
}
);
layerId = "5A1ECF60-5C3D-4C60-84B4-C69E600E0422";
paths = (
{
closed = 1;
nodes = (
"559 105 LINE",
"541 134 LINE",
"503 126 LINE SMOOTH",
"479 121 OFFCURVE",
"465 132 OFFCURVE",
"467 156 CURVE SMOOTH",
"481 337 LINE SMOOTH",
"492 464 OFFCURVE",
"418 518 OFFCURVE",
"309 521 CURVE SMOOTH",
"225 523 OFFCURVE",
"139 506 OFFCURVE",
"54 457 CURVE",
"74 366 LINE",
"95 355 LINE",
"209 412 OFFCURVE",
"282 395 OFFCURVE",
"281 318 CURVE SMOOTH",
"278 111 LINE SMOOTH",
"277 39 OFFCURVE",
"330 -46 OFFCURVE",
"511 0 CURVE"
);
},
{
closed = 1;
nodes = (
"276 -16 OFFCURVE",
"331 107 OFFCURVE",
"344 137 CURVE",
"351 185 LINE",
"317 145 OFFCURVE",
"279 106 OFFCURVE",
"231 115 CURVE SMOOTH",
"189 123 OFFCURVE",
"192 200 OFFCURVE",
"261 214 CURVE SMOOTH",
"373 237 LINE",
"360 309 LINE",
"200 288 LINE SMOOTH",
"59 270 OFFCURVE",
"11 233 OFFCURVE",
"9 131 CURVE SMOOTH",
"7 30 OFFCURVE",
"80 -16 OFFCURVE",
"169 -16 CURVE SMOOTH"
);
}
);
width = 549;
}
);
unicode = 0061;
},
{
glyphname = ae;
lastChange = "2018-06-15 20:12:08 +0000";
layers = (
{
anchors = (
{
name = bottom;
position = "{251, 0}";
},
{
name = ogonek;
position = "{451, 10}";
},
{
name = top;
position = "{251, 500}";
}
);
components = (
{
name = e;
transform = "{1, 0, 0, 1, 265, 0}";
}
);
layerId = "1B5E7594-BD1E-41E1-80E1-0DE241437139";
paths = (
{
closed = 1;
nodes = (
"268 295 LINE SMOOTH",
"144 263 OFFCURVE",
"43 222 OFFCURVE",
"43 122 CURVE SMOOTH",
"43 33 OFFCURVE",
"89 -9 OFFCURVE",
"172 -9 CURVE SMOOTH",
"267 -9 OFFCURVE",
"374 68 OFFCURVE",
"392 85 CURVE",
"358 115 LINE",
"314 82 OFFCURVE",
"247 44 OFFCURVE",
"180 44 CURVE SMOOTH",
"92 44 OFFCURVE",
"83 197 OFFCURVE",
"213 234 CURVE SMOOTH",
"357 276 LINE",
"365 320 LINE"
);
},
{
closed = 1;
nodes = (
"99 417 LINE",
"192 458 OFFCURVE",
"253 469 OFFCURVE",
"290 448 CURVE SMOOTH",
"313 435 OFFCURVE",
"327 398 OFFCURVE",
"327 365 CURVE SMOOTH",
"328 198 LINE",
"387 94 LINE",
"395 342 LINE SMOOTH",
"399 467 OFFCURVE",
"338 505 OFFCURVE",
"246 505 CURVE SMOOTH",
"194 505 OFFCURVE",
"137 496 OFFCURVE",
"76 482 CURVE",
"87 422 LINE"
);
}
);
width = 501;
},
{
anchors = (
{
name = bottom;
position = "{275, 0}";
},
{
name = ogonek;
position = "{495, 10}";
},
{
name = top;
position = "{275, 506}";
}
);
components = (
{
alignment = -1;
name = e;
transform = "{1, 0, 0, 1, 271, 0}";
}
);
layerId = "5A1ECF60-5C3D-4C60-84B4-C69E600E0422";
paths = (
{
closed = 1;
nodes = (
"201 288 LINE SMOOTH",
"60 270 OFFCURVE",
"12 233 OFFCURVE",
"10 131 CURVE SMOOTH",
"8 30 OFFCURVE",
"81 -16 OFFCURVE",
"170 -16 CURVE SMOOTH",
"317 -16 OFFCURVE",
"414 82 OFFCURVE",
"427 112 CURVE",
"352 185 LINE",
"318 145 OFFCURVE",
"280 106 OFFCURVE",
"232 115 CURVE SMOOTH",
"190 123 OFFCURVE",
"193 200 OFFCURVE",
"262 214 CURVE SMOOTH",
"374 237 LINE",
"361 309 LINE"
);
},
{
closed = 1;
nodes = (
"113 335 LINE",
"199 380 OFFCURVE",
"238 383 OFFCURVE",
"261 372 CURVE SMOOTH",
"284 361 OFFCURVE",
"288 316 OFFCURVE",
"289 261 CURVE SMOOTH",
"291 111 LINE",
"468 156 LINE",
"478 288 LINE SMOOTH",
"482 344 OFFCURVE",
"433 519 OFFCURVE",
"301 519 CURVE SMOOTH",
"203 519 OFFCURVE",
"145 505 OFFCURVE",
"58 487 CURVE",
"82 355 LINE"
);
}
);
width = 1079;
}
);
unicode = 00E6;
},
{
color = 1;
glyphname = b;
lastChange = "2018-06-15 20:34:38 +0000";
layers = (
{
anchors = (
{
name = bottom;
position = "{296, 0}";
},
{
name = top;
position = "{296, 806}";
}
);
background = {
components = (
{
name = o;
transform = "{1, 0, 0, 1, 1, 0}";
}
);
};
components = (
{
name = _part_bowl;
transform = "{1, 0, 0, 1, 15, 4}";
}
);
guideLines = (
{
position = "{860, 512}";
},
{
position = "{594, 519}";
}
);
layerId = "5A1ECF60-5C3D-4C60-84B4-C69E600E0422";
paths = (
{
closed = 1;
nodes = (
"168 -4 OFFCURVE",
"252 75 OFFCURVE",
"252 139 CURVE SMOOTH",
"257 797 LINE",
"239 813 LINE",
"159 798 OFFCURVE",
"76 789 OFFCURVE",
"0 785 CURVE",
"0 696 LINE",
"27 694 LINE SMOOTH",
"50 692 OFFCURVE",
"62 674 OFFCURVE",
"62 648 CURVE SMOOTH",
"61 216 LINE SMOOTH",
"61 132 OFFCURVE",
"58 108 OFFCURVE",
"26 56 CURVE",
"26 30 LINE",
"106 -12 LINE"
);
}
);
width = 586;
},
{
associatedMasterId = "5A1ECF60-5C3D-4C60-84B4-C69E600E0422";
background = {
components = (
{
name = l;
transform = "{1, 0, 0, 1, -7, 0}";
}
);
};
components = (
{
name = _part_bowl;
piece = {
"d,q" = 1;
};
transform = "{1, 0, 0, 1, 19, 0}";
}
);
guideLines = (
{
position = "{868, 512}";
}
);
layerId = "5D8F6F35-3986-4236-B2A1-A726FE419699";
name = "Jan 1 18, 16:26";
paths = (
{
closed = 1;
nodes = (
"261 85 LINE",
"234 75 LINE",
"200 0 LINE",
"63 0 LINE",
"64 648 LINE SMOOTH",
"64 674 OFFCURVE",
"51 692 OFFCURVE",
"24 694 CURVE SMOOTH",
"2 696 LINE",
"2 785 LINE",
"78 789 OFFCURVE",
"163 798 OFFCURVE",
"243 813 CURVE",
"261 797 LINE"
);
}
);
width = 585;
},
{
anchors = (
{
name = bottom;
position = "{272, 0}";
},
{
name = top;
position = "{272, 800}";
}
);
background = {
components = (
{
name = p;
transform = "{1, 0, 0, 1, 7, 0}";
}
);
};
components = (
{
name = _part_bowl;
transform = "{1, 0, 0, 1, 74, 3}";
}
);
guideLines = (
{
position = "{7, 511}";
}
);
layerId = "1B5E7594-BD1E-41E1-80E1-0DE241437139";
paths = (
{
closed = 1;
nodes = (
"117 11 OFFCURVE",
"150 65 OFFCURVE",
"150 95 CURVE SMOOTH",
"157 790 LINE",
"148 796 LINE",
"103 787 OFFCURVE",
"56 780 OFFCURVE",
"7 775 CURVE",
"7 742 LINE",
"54 737 LINE SMOOTH",
"76 735 OFFCURVE",
"89 716 OFFCURVE",
"89 697 CURVE SMOOTH",
"86 159 LINE SMOOTH",
"86 86 OFFCURVE",
"83 58 OFFCURVE",
"45 18 CURVE",
"45 8 LINE",
"77 -7 LINE"
);
}
);
width = 538;
}
);
unicode = 0062;
},
{
color = 1;
glyphname = c;
lastChange = "2018-06-15 20:34:38 +0000";
layers = (
{
anchors = (
{
name = bottom;
position = "{220, 0}";
},
{
name = top;
position = "{220, 500}";
}
);
background = {
components = (
{
name = d;
}
);
};
guideLines = (
{
position = "{-418, -12}";
},
{
position = "{-79, 104}";
},
{
angle = 90;
position = "{410, 376}";
}
);
layerId = "1B5E7594-BD1E-41E1-80E1-0DE241437139";
paths = (
{
closed = 1;
nodes = (
"310 -12 OFFCURVE",
"365 4 OFFCURVE",
"417 39 CURVE",
"410 71 LINE",
"396 76 LINE",
"231 3 OFFCURVE",
"106 65 OFFCURVE",
"106 250 CURVE SMOOTH",
"106 355 OFFCURVE",
"162 462 OFFCURVE",
"266 463 CURVE SMOOTH",
"336 464 OFFCURVE",
"360 453 OFFCURVE",
"351 362 CURVE",
"397 362 LINE",
"413 493 LINE",
"370 504 OFFCURVE",
"330 510 OFFCURVE",
"292 510 CURVE SMOOTH",
"139 510 OFFCURVE",
"35 417 OFFCURVE",
"35 230 CURVE SMOOTH",
"35 82 OFFCURVE",
"137 -12 OFFCURVE",
"260 -12 CURVE SMOOTH"
);
}
);
width = 450;
},
{
associatedMasterId = "5A1ECF60-5C3D-4C60-84B4-C69E600E0422";
background = {
components = (
{
name = f;
transform = "{1, 0, 0, 1, 86, -292}";
}
);
};
guideLines = (
{
angle = 71;
position = "{489, 195}";
}
);
layerId = "D2923922-0CE0-4161-8498-9E8833351EE1";
name = "Mar 24 18, 09:10";
paths = (
{
closed = 1;
nodes = (
"16 72 OFFCURVE",
"126 -16 OFFCURVE",
"265 -16 CURVE SMOOTH",
"316 -16 OFFCURVE",
"371 -4 OFFCURVE",
"427 21 CURVE",
"470 146 LINE",
"450 171 LINE",
"302 117 OFFCURVE",
"215 150 OFFCURVE",
"215 274 CURVE SMOOTH",
"215 375 OFFCURVE",
"328 407 OFFCURVE",
"450 325 CURVE",
"470 358 LINE",
"429 498 LINE",
"398 512 OFFCURVE",
"365 514 OFFCURVE",
"307 514 CURVE SMOOTH",
"138 514 OFFCURVE",
"13 413 OFFCURVE",
"15 234 CURVE SMOOTH"
);
}
);
width = 497;
},
{
associatedMasterId = "5A1ECF60-5C3D-4C60-84B4-C69E600E0422";
background = {
components = (
{
name = a;
transform = "{1, 0, 0, 1, -71, 0}";
}
);
};
guideLines = (
{
angle = 90;
position = "{485, 233}";
},
{
angle = 104;
position = "{309, 737}";
}
);
layerId = "44D4AAF8-6F01-49FE-B371-198FF1005D8F";
name = "Mar 25 18, 15:57";
paths = (
{
closed = 1;
nodes = (
"30 80 OFFCURVE",
"111 -14 OFFCURVE",
"273 -14 CURVE SMOOTH",
"362 -14 OFFCURVE",
"388 -11 OFFCURVE",
"427 0 CURVE",
"476 114 LINE",
"455 125 LINE",
"319 71 OFFCURVE",
"234 118 OFFCURVE",
"238 264 CURVE SMOOTH",
"241 355 OFFCURVE",
"259 393 OFFCURVE",
"291 393 CURVE SMOOTH",
"324 393 OFFCURVE",
"345 380 OFFCURVE",
"328 279 CURVE",
"445 279 LINE",
"491 488 LINE",
"450 508 OFFCURVE",
"367 517 OFFCURVE",
"309 517 CURVE SMOOTH",
"143 517 OFFCURVE",
"30 429 OFFCURVE",
"30 250 CURVE SMOOTH"
);
}
);
width = 508;
},
{
anchors = (
{
name = bottom;
position = "{248, 0}";
},
{
name = top;
position = "{248, 506}";
}
);
background = {
components = (
{
name = s;
transform = "{1, 0, 0, 1, 8, 0}";
}
);
};
guideLines = (
{
angle = 90;
position = "{471, 233}";
},
{
angle = 104;
position = "{295, 737}";
},
{
position = "{683, -15}";
}
);
layerId = "5A1ECF60-5C3D-4C60-84B4-C69E600E0422";
paths = (
{
closed = 1;
nodes = (
"348 -15 OFFCURVE",
"428 21 OFFCURVE",
"471 64 CURVE",
"449 144 LINE",
"428 155 LINE",
"292 101 OFFCURVE",
"220 108 OFFCURVE",
"224 264 CURVE SMOOTH",
"226 355 OFFCURVE",
"246 394 OFFCURVE",
"278 394 CURVE SMOOTH",
"320 394 OFFCURVE",
"335 380 OFFCURVE",
"318 279 CURVE",
"435 279 LINE",
"477 488 LINE",
"436 508 OFFCURVE",
"353 517 OFFCURVE",
"295 517 CURVE SMOOTH",
"129 517 OFFCURVE",
"16 429 OFFCURVE",
"16 250 CURVE SMOOTH",
"16 80 OFFCURVE",
"97 -15 OFFCURVE",
"259 -15 CURVE SMOOTH"
);
}
);
width = 498;
},
{
associatedMasterId = "1B5E7594-BD1E-41E1-80E1-0DE241437139";
background = {
components = (
{
name = e;
transform = "{1, 0, 0, 1, -12, 0}";
}
);
};
guideLines = (
{
position = "{-435, -12}";
},
{
position = "{-96, 104}";
},
{
angle = 90;
position = "{393, 376}";
}
);
layerId = "732E030C-7C47-4A96-BECC-1C98936547C9";
name = "Mar 30 18, 20:24";
paths = (
{
closed = 1;
nodes = (
"18 82 OFFCURVE",
"120 -12 OFFCURVE",
"243 -12 CURVE SMOOTH",
"293 -12 OFFCURVE",
"348 4 OFFCURVE",
"400 39 CURVE",
"393 71 LINE",
"379 76 LINE",
"214 3 OFFCURVE",
"89 65 OFFCURVE",
"89 250 CURVE SMOOTH",
"89 355 OFFCURVE",
"145 462 OFFCURVE",
"249 463 CURVE SMOOTH",
"319 464 OFFCURVE",
"343 453 OFFCURVE",
"334 362 CURVE",
"380 362 LINE",
"396 493 LINE",
"353 504 OFFCURVE",
"313 510 OFFCURVE",
"275 510 CURVE SMOOTH",
"122 510 OFFCURVE",
"18 417 OFFCURVE",
"18 230 CURVE SMOOTH"
);
}
);
width = 410;
}
);
unicode = 0063;
},
{
color = 1;
glyphname = d;
lastChange = "2018-06-15 20:34:38 +0000";
layers = (
{
anchors = (
{
name = bottom;
position = "{302, 0}";
},
{
name = center;
position = "{302, 253}";
},
{
name = top;
position = "{302, 806}";
},
{
name = topright;
position = "{587, 506}";
}
);
components = (
{
name = _part_bowl;
transform = "{-1, 0, 0, -1, 571, 505}";
}
);
guideLines = (
{
position = "{1612, 513}";
},
{
position = "{508, 523}";
},
{
position = "{-318, -11}";
}
);
layerId = "5A1ECF60-5C3D-4C60-84B4-C69E600E0422";
paths = (
{
closed = 1;
nodes = (
"612 108 LINE",
"595 136 LINE",
"572 129 LINE SMOOTH",
"549 122 OFFCURVE",
"530 131 OFFCURVE",
"530 157 CURVE SMOOTH",
"532 796 LINE",
"514 813 LINE",
"434 798 OFFCURVE",
"352 789 OFFCURVE",
"272 785 CURVE",
"272 696 LINE",
"299 693 LINE SMOOTH",
"319 691 OFFCURVE",
"334 674 OFFCURVE",
"334 651 CURVE SMOOTH",
"334 121 LINE SMOOTH",
"334 13 OFFCURVE",
"416 -38 OFFCURVE",
"563 0 CURVE"
);
}
);
width = 607;
},
{
associatedMasterId = "5A1ECF60-5C3D-4C60-84B4-C69E600E0422";
background = {
components = (
{
name = a;
transform = "{1, 0, 0, 1, 11, 0}";
}
);
};
components = (
{
name = _part_bowl;
piece = {
"d,q" = 1;
};
transform = "{-1, 0, 0, -1, 564, 503}";
}
);
guideLines = (
{
position = "{1596, 513}";
}
);
layerId = "CFCDB457-61D1-46E7-AB5D-2509F62BF86E";
name = "Sep 24 17, 15:06";
paths = (
{
closed = 1;
nodes = (
"260 783 LINE",
"496 811 LINE",
"521 789 LINE",
"522 136 LINE",
"317 116 LINE",
"318 687 LINE",
"260 700 LINE"
);
},
{
closed = 1;
nodes = (
"579 17 LINE",
"363 -11 LINE",
"338 11 LINE",
"322 164 LINE",
"521 203 LINE",
"521 113 LINE",
"579 100 LINE"
);
}
);
width = 594;
},
{
anchors = (
{
name = bottom;
position = "{275, 0}";
},
{
name = center;
position = "{275, 250}";
},
{
name = top;
position = "{275, 800}";
},
{
name = topright;
position = "{549, 500}";
}
);
background = {
components = (
{
name = o;
transform = "{1, 0, 0, 1, -36, 0}";
}
);
};
components = (
{
name = _part_bowl;
transform = "{-1, 0, 0, -1, 463, 497}";
}
);
layerId = "1B5E7594-BD1E-41E1-80E1-0DE241437139";
paths = (
{
closed = 1;
nodes = (
"547 48 LINE",
"537 68 LINE",
"491 49 LINE SMOOTH",
"463 37 OFFCURVE",
"452 42 OFFCURVE",
"452 74 CURVE SMOOTH",
"459 790 LINE",
"450 796 LINE",
"402 787 OFFCURVE",
"355 780 OFFCURVE",
"308 775 CURVE",
"308 742 LINE",
"352 737 LINE SMOOTH",
"376 734 OFFCURVE",
"390 720 OFFCURVE",
"390 695 CURVE SMOOTH",
"389 98 LINE SMOOTH",
"389 24 OFFCURVE",
"417 -36 OFFCURVE",
"523 3 CURVE"
);
}
);
width = 556;
}
);
unicode = 0064;
},
{
glyphname = eth;
lastChange = "2018-06-15 20:12:08 +0000";
layers = (
{
anchors = (
{
name = bottom;
position = "{295, 500}";
},
{
name = center;
position = "{295, 250}";
},
{
name = top;
position = "{295, -300}";
},
{
name = topright;
position = "{569, 0}";
}
);
background = {
components = (
{
name = o;
transform = "{1, 0, 0, 1, 1, 0}";
}
);
};
layerId = "1B5E7594-BD1E-41E1-80E1-0DE241437139";
paths = (
{
closed = 1;
nodes = (
"392 444 OFFCURVE",
"342 458 OFFCURVE",
"280 458 CURVE SMOOTH",
"197 458 OFFCURVE",
"131 388 OFFCURVE",
"131 262 CURVE SMOOTH",
"131 253 LINE SMOOTH",
"131 110 OFFCURVE",
"190 33 OFFCURVE",
"287 33 CURVE SMOOTH",
"383 33 OFFCURVE",
"438 105 OFFCURVE",
"444 273 CURVE SMOOTH",
"453 534 OFFCURVE",
"254 698 OFFCURVE",
"85 744 CURVE",
"106 790 LINE",
"280 755 OFFCURVE",
"517 565 OFFCURVE",
"517 293 CURVE SMOOTH",
"517 81 OFFCURVE",
"427 -14 OFFCURVE",
"286 -14 CURVE SMOOTH",
"150 -14 OFFCURVE",
"55 95 OFFCURVE",
"55 257 CURVE SMOOTH",
"55 410 OFFCURVE",
"157 508 OFFCURVE",
"268 508 CURVE SMOOTH",
"324 508 OFFCURVE",
"391 494 OFFCURVE",
"431 429 CURVE",
"439 383 LINE"
);
},
{
closed = 1;
nodes = (
"476 747 LINE",
"492 743 LINE",
"504 716 LINE",
"158 542 LINE",
"140 545 LINE",
"126 573 LINE"
);
}
);
width = 589;
},
{
anchors = (
{
name = bottom;
position = "{306, 506}";
},
{
name = center;
position = "{306, 253}";
},
{
name = top;
position = "{306, -300}";
},
{
name = topright;
position = "{591, 0}";
}
);
layerId = "5A1ECF60-5C3D-4C60-84B4-C69E600E0422";
paths = (
{
closed = 1;
nodes = (
"332 380 OFFCURVE",
"315 390 OFFCURVE",
"290 390 CURVE SMOOTH",
"262 390 OFFCURVE",
"250 371 OFFCURVE",
"250 333 CURVE SMOOTH",
"250 177 LINE SMOOTH",
"250 136 OFFCURVE",
"257 103 OFFCURVE",
"296 103 CURVE SMOOTH",
"336 103 OFFCURVE",
"349 127 OFFCURVE",
"349 303 CURVE SMOOTH",
"349 562 OFFCURVE",
"262 662 OFFCURVE",
"80 709 CURVE",
"67 733 LINE",
"104 804 LINE",
"333 800 OFFCURVE",
"571 594 OFFCURVE",
"571 325 CURVE SMOOTH",
"571 170 OFFCURVE",
"528 -13 OFFCURVE",
"298 -13 CURVE SMOOTH",
"133 -13 OFFCURVE",
"27 51 OFFCURVE",
"27 264 CURVE SMOOTH",
"27 412 OFFCURVE",
"90 518 OFFCURVE",
"226 518 CURVE SMOOTH",
"301 518 OFFCURVE",
"361 436 OFFCURVE",
"401 364 CURVE",
"350 359 LINE"
);
},
{
closed = 1;
nodes = (
"458 803 LINE",
"488 802 LINE",
"522 714 LINE",
"140 527 LINE",
"104 529 LINE",
"73 610 LINE"
);
}
);
width = 611;
}
);
unicode = 00F0;
},
{
color = 1;
glyphname = e;
lastChange = "2018-06-15 20:35:15 +0000";
layers = (
{
anchors = (
{
name = bottom;
position = "{238, 0}";
},
{
name = ogonek;
position = "{443, 10}";
},
{
name = top;
position = "{258, 500}";
}
);
background = {
components = (
{
name = o;
transform = "{1, 0, 0, 1, -20, 0}";
}
);
};
guideLines = (
{
angle = 71;
position = "{483, 186}";
},
{
angle = 90;
position = "{436, 428}";
}
);
layerId = "1B5E7594-BD1E-41E1-80E1-0DE241437139";
paths = (
{
closed = 1;
nodes = (
"312 -14 OFFCURVE",
"377 5 OFFCURVE",
"432 45 CURVE",
"425 76 LINE",
"410 82 LINE",
"268 5 OFFCURVE",
"109 56 OFFCURVE",
"109 231 CURVE SMOOTH",
"109 353 OFFCURVE",
"153 464 OFFCURVE",
"261 464 CURVE SMOOTH",
"346 464 OFFCURVE",
"373 421 OFFCURVE",
"365 325 CURVE",
"88 324 LINE",
"81 282 LINE",
"429 284 LINE",
"457 454 OFFCURVE",
"393 510 OFFCURVE",
"265 510 CURVE SMOOTH",
"131 510 OFFCURVE",
"36 408 OFFCURVE",
"36 240 CURVE SMOOTH",
"36 73 OFFCURVE",
"137 -6 OFFCURVE",
"250 -12 CURVE SMOOTH"
);
}
);
width = 476;
},
{
anchors = (
{
name = bottom;
position = "{265, 0}";
},
{
name = ogonek;
position = "{476, 10}";
},
{
name = top;
position = "{265, 506}";
}
);
background = {
components = (
{
name = o;
transform = "{1, 0, 0, 1, -14, 0}";
}
);
};
guideLines = (
{
position = "{688, -15}";
}
);
layerId = "5A1ECF60-5C3D-4C60-84B4-C69E600E0422";
paths = (
{
closed = 1;
nodes = (
"348 -16 OFFCURVE",
"434 2 OFFCURVE",
"496 65 CURVE",
"474 144 LINE",
"454 155 LINE",
"284 94 OFFCURVE",
"226 108 OFFCURVE",
"223 268 CURVE SMOOTH",
"221 374 OFFCURVE",
"239 424 OFFCURVE",
"277 424 CURVE SMOOTH",
"315 424 OFFCURVE",
"325 382 OFFCURVE",
"318 327 CURVE",
"121 326 LINE",
"115 243 LINE",
"488 244 LINE",
"531 440 OFFCURVE",
"465 527 OFFCURVE",
"281 522 CURVE SMOOTH",
"87 517 OFFCURVE",
"16 399 OFFCURVE",
"16 249 CURVE SMOOTH",
"16 87 OFFCURVE",
"104 -16 OFFCURVE",
"273 -16 CURVE SMOOTH"
);
}
);
width = 530;
}
);
unicode = 0065;
},
{
glyphname = eogonek;
lastChange = "2018-06-15 20:12:08 +0000";
layers = (
{
components = (
{
name = e;
}
);
layerId = "1B5E7594-BD1E-41E1-80E1-0DE241437139";
paths = (
{
closed = 1;
nodes = (
"445 39 LINE",
"268 -43 OFFCURVE",
"256 -211 OFFCURVE",
"435 -147 CURVE",
"445 -179 LINE",
"212 -282 OFFCURVE",
"195 -49 OFFCURVE",
"361 6 CURVE"
);
}
);
width = 513;
},
{
components = (
{
name = e;
}
);
layerId = "5A1ECF60-5C3D-4C60-84B4-C69E600E0422";
paths = (
{
closed = 1;
nodes = (
"466 39 LINE",
"311 -58 OFFCURVE",
"319 -167 OFFCURVE",
"483 -120 CURVE",
"500 -179 LINE",
"226 -288 OFFCURVE",
"151 -65 OFFCURVE",
"352 -5 CURVE"
);
}
);
width = 529;
}
);
unicode = 0119;
},
{
color = 1;
glyphname = f;
lastChange = "2018-06-15 20:34:38 +0000";
layers = (
{
anchors = (
{
name = bottom;
position = "{195, 0}";
},
{
name = top;
position = "{195, 806}";
}
);
layerId = "5A1ECF60-5C3D-4C60-84B4-C69E600E0422";
paths = (
{
closed = 1;
nodes = (
"200 0 LINE",
"366 -4 LINE",
"366 88 LINE",
"314 92 LINE SMOOTH",
"288 94 OFFCURVE",
"274 113 OFFCURVE",
"274 139 CURVE SMOOTH",
"276 397 LINE",
"372 394 LINE",
"373 487 LINE",
"356 506 LINE",
"259 506 LINE",
"233 547 OFFCURVE",
"224 594 OFFCURVE",
"244 625 CURVE SMOOTH",
"265 657 OFFCURVE",
"328 665 OFFCURVE",
"370 636 CURVE",
"390 672 LINE",
"359 800 LINE",
"286 813 OFFCURVE",
"206 815 OFFCURVE",
"153 776 CURVE SMOOTH",
"89 730 OFFCURVE",
"73 633 OFFCURVE",
"85 506 CURVE",
"28 506 LINE",
"28 403 LINE",
"50 401 LINE SMOOTH",
"74 399 OFFCURVE",
"81 384 OFFCURVE",
"81 359 CURVE SMOOTH",
"85 134 LINE SMOOTH",
"85 108 OFFCURVE",
"73 94 OFFCURVE",
"51 91 CURVE SMOOTH",
"29 88 LINE",
"29 -4 LINE"
);
}
);
width = 386;
},
{
anchors = (
{
name = bottom;
position = "{154, 0}";
},
{
name = top;
position = "{154, 800}";
}
);
background = {
components = (
{
name = h;
transform = "{1, 0, 0, 1, 8, 0}";
}
);
};
guideLines = (
{
position = "{-581, 482}";
},
{
position = "{970, 795}";
}
);
layerId = "1B5E7594-BD1E-41E1-80E1-0DE241437139";
paths = (
{
closed = 1;
nodes = (
"137 0 LINE",
"282 -4 LINE",
"282 28 LINE",
"208 34 LINE SMOOTH",
"183 36 OFFCURVE",
"170 50 OFFCURVE",
"170 76 CURVE SMOOTH",
"171 454 LINE",
"295 453 LINE",
"296 494 LINE",
"289 500 LINE",
"172 498 LINE",
"160 644 OFFCURVE",
"164 698 OFFCURVE",
"181 721 CURVE SMOOTH",
"200 746 OFFCURVE",
"236 752 OFFCURVE",
"296 719 CURVE",
"306 728 LINE",
"290 793 LINE",
"231 807 OFFCURVE",
"186 804 OFFCURVE",
"146 757 CURVE SMOOTH",
"103 706 OFFCURVE",
"107 621 OFFCURVE",
"107 500 CURVE",
"36 500 LINE",
"36 463 LINE",
"69 462 LINE SMOOTH",
"99 461 OFFCURVE",
"106 450 OFFCURVE",
"106 424 CURVE SMOOTH",
"106 75 LINE SMOOTH",
"106 51 OFFCURVE",
"93 36 OFFCURVE",
"69 33 CURVE SMOOTH",
"35 29 LINE",
"35 -4 LINE"
);
}
);
width = 311;
},
{
anchors = (
{
name = bottom;
position = "{195, 0}";
},
{
name = top;
position = "{195, 806}";
}
);
associatedMasterId = "5A1ECF60-5C3D-4C60-84B4-C69E600E0422";
background = {
components = (
{
name = n;
}
);
};
layerId = "02A62DDF-6394-435E-BA9A-33552124C998";
name = "Apr 18 18, 18:42";
paths = (
{
closed = 1;
nodes = (
"200 0 LINE",
"366 -4 LINE",
"366 88 LINE",
"314 92 LINE SMOOTH",
"288 94 OFFCURVE",
"274 113 OFFCURVE",
"274 139 CURVE SMOOTH",
"276 397 LINE",
"372 394 LINE",
"373 487 LINE",
"356 506 LINE",
"255 506 LINE",
"228 547 OFFCURVE",
"229 596 OFFCURVE",
"254 632 CURVE SMOOTH",
"277 665 OFFCURVE",
"328 682 OFFCURVE",
"370 653 CURVE",
"390 689 LINE",
"359 800 LINE",
"286 813 OFFCURVE",
"206 815 OFFCURVE",
"153 776 CURVE SMOOTH",
"89 730 OFFCURVE",
"73 633 OFFCURVE",
"85 506 CURVE",
"28 506 LINE",
"28 403 LINE",
"50 401 LINE SMOOTH",
"74 399 OFFCURVE",
"81 384 OFFCURVE",
"81 359 CURVE SMOOTH",
"85 134 LINE SMOOTH",
"85 108 OFFCURVE",
"73 94 OFFCURVE",
"51 91 CURVE SMOOTH",
"29 88 LINE",
"29 -4 LINE"
);
}
);
width = 386;
},
{
anchors = (
{
name = bottom;
position = "{154, 0}";
},
{
name = top;
position = "{154, 800}";
}
);
associatedMasterId = "1B5E7594-BD1E-41E1-80E1-0DE241437139";
background = {
components = (
{
name = g;
transform = "{-1, 0, 0, -1, 400, 607}";
}
);
};
guideLines = (
{
position = "{-581, 482}";
}
);
layerId = "20EB6E29-F5EA-4400-9BB1-6A38541C8453";
name = "Apr 21 18, 15:55";
paths = (
{
closed = 1;
nodes = (
"137 0 LINE",
"282 -4 LINE",
"282 28 LINE",
"212 34 LINE SMOOTH",
"187 36 OFFCURVE",
"174 50 OFFCURVE",
"174 76 CURVE SMOOTH",
"175 454 LINE",
"295 453 LINE",
"296 494 LINE",
"289 500 LINE",
"172 498 LINE",
"164 643 OFFCURVE",
"169 693 OFFCURVE",
"196 720 CURVE SMOOTH",
"227 751 OFFCURVE",
"285 746 OFFCURVE",
"359 700 CURVE",
"376 714 LINE",
"362 781 LINE",
"147 835 OFFCURVE",
"107 718 OFFCURVE",
"107 500 CURVE",
"36 500 LINE",
"36 463 LINE",
"69 462 LINE SMOOTH",
"99 461 OFFCURVE",
"106 450 OFFCURVE",
"106 424 CURVE SMOOTH",
"106 75 LINE SMOOTH",
"106 51 OFFCURVE",
"93 36 OFFCURVE",
"69 33 CURVE SMOOTH",
"35 29 LINE",
"35 -4 LINE"
);
}
);
width = 311;
}
);
unicode = 0066;
},
{
color = 1;
glyphname = g;
lastChange = "2018-06-15 20:34:38 +0000";
layers = (
{
anchors = (
{
name = bottom;
position = "{275, -200}";
},
{
name = top;
position = "{275, 506}";
}
);
background = {
components = (
{
name = n;
transform = "{1, 0, 0, 1, 292, 0}";
},
{
name = o;
transform = "{1, 0, 0, 1, -44, 0}";
}
);
};
guideLines = (
{
angle = 90;
position = "{12, 193}";
}
);
layerId = "5A1ECF60-5C3D-4C60-84B4-C69E600E0422";
paths = (
{
closed = 1;
nodes = (
"387 -205 OFFCURVE",
"545 -150 OFFCURVE",
"545 -29 CURVE SMOOTH",
"545 54 OFFCURVE",
"502 88 OFFCURVE",
"412 94 CURVE SMOOTH",
"228 106 LINE SMOOTH",
"206 107 OFFCURVE",
"200 116 OFFCURVE",
"212 136 CURVE SMOOTH",
"233 172 LINE",
"157 188 LINE",
"46 95 LINE",
"46 26 LINE",
"274 -14 LINE SMOOTH",
"316 -21 OFFCURVE",
"331 -30 OFFCURVE",
"331 -51 CURVE SMOOTH",
"331 -73 OFFCURVE",
"300 -82 OFFCURVE",
"252 -82 CURVE SMOOTH",
"169 -82 OFFCURVE",
"64 -40 OFFCURVE",
"30 -11 CURVE",
"-7 -48 LINE",
"25 -177 LINE",
"69 -190 OFFCURVE",
"140 -205 OFFCURVE",
"245 -205 CURVE SMOOTH"
);
},
{
closed = 1;
nodes = (
"414 144 OFFCURVE",
"505 222 OFFCURVE",
"505 329 CURVE SMOOTH",
"505 359 OFFCURVE",
"479 396 OFFCURVE",
"458 429 CURVE",
"440 471 LINE",
"405 498 OFFCURVE",
"351 523 OFFCURVE",
"271 523 CURVE SMOOTH",
"107 523 OFFCURVE",
"21 450 OFFCURVE",
"19 326 CURVE SMOOTH",
"17 211 OFFCURVE",
"113 144 OFFCURVE",
"259 144 CURVE SMOOTH"
);
},
{
closed = 1;
nodes = (
"237 233 OFFCURVE",
"225 246 OFFCURVE",
"225 328 CURVE SMOOTH",
"225 408 OFFCURVE",
"237 422 OFFCURVE",
"267 422 CURVE SMOOTH",
"290 422 OFFCURVE",
"304 409 OFFCURVE",
"304 328 CURVE SMOOTH",
"304 245 OFFCURVE",
"290 233 OFFCURVE",
"263 233 CURVE SMOOTH"
);
},
{
closed = 1;
nodes = (
"558 489 LINE",
"541 506 LINE",
"369 499 LINE",
"396 414 LINE",
"559 403 LINE"
);
}
);
width = 562;
},
{
anchors = (
{
name = bottom;
position = "{240, -200}";
},
{
name = top;
position = "{240, 500}";
}
);
background = {
components = (
{
name = f;
transform = "{1, 0, 0, 1, 187, 0}";
}
);
};
layerId = "1B5E7594-BD1E-41E1-80E1-0DE241437139";
paths = (
{
closed = 1;
nodes = (
"332 -207 OFFCURVE",
"462 -157 OFFCURVE",
"462 -49 CURVE SMOOTH",
"462 2 OFFCURVE",
"430 45 OFFCURVE",
"332 56 CURVE SMOOTH",
"154 76 LINE SMOOTH",
"127 79 OFFCURVE",
"125 91 OFFCURVE",
"143 119 CURVE SMOOTH",
"188 189 LINE",
"145 199 LINE",
"57 79 LINE",
"58 41 LINE",
"297 2 LINE SMOOTH",
"380 -12 OFFCURVE",
"400 -36 OFFCURVE",
"395 -70 CURVE SMOOTH",
"389 -113 OFFCURVE",
"325 -151 OFFCURVE",
"236 -151 CURVE SMOOTH",
"149 -151 OFFCURVE",
"92 -128 OFFCURVE",
"41 -91 CURVE",
"22 -106 LINE",
"39 -173 LINE",
"85 -195 OFFCURVE",
"144 -207 OFFCURVE",
"205 -207 CURVE SMOOTH"
);
},
{
closed = 1;
nodes = (
"343 158 OFFCURVE",
"426 227 OFFCURVE",
"426 331 CURVE SMOOTH",
"426 386 OFFCURVE",
"400 448 OFFCURVE",
"365 461 CURVE",
"353 477 LINE",
"323 496 OFFCURVE",
"284 506 OFFCURVE",
"230 506 CURVE SMOOTH",
"123 506 OFFCURVE",
"41 436 OFFCURVE",
"41 331 CURVE SMOOTH",
"41 220 OFFCURVE",
"116 158 OFFCURVE",
"230 158 CURVE SMOOTH"
);
},
{
closed = 1;
nodes = (
"163 200 OFFCURVE",
"113 248 OFFCURVE",
"113 334 CURVE SMOOTH",
"113 412 OFFCURVE",
"169 464 OFFCURVE",
"230 464 CURVE SMOOTH",
"311 464 OFFCURVE",
"356 417 OFFCURVE",
"356 334 CURVE SMOOTH",
"356 255 OFFCURVE",
"305 202 OFFCURVE",
"230 201 CURVE SMOOTH"
);
},
{
closed = 1;
nodes = (
"474 493 LINE",
"465 500 LINE",
"283 495 LINE",
"291 464 LINE",
"474 449 LINE"
);
}
);
width = 500;
}
);
unicode = 0067;
},
{
color = 1;
glyphname = h;
lastChange = "2018-06-15 20:34:38 +0000";
layers = (
{
anchors = (
{
name = bottom;
position = "{290, 0}";
},
{
name = center;
position = "{290, 400}";
},
{
name = top;
position = "{290, 800}";
}
);
background = {
components = (
{
name = n;
transform = "{1, 0, 0, 1, 14, 0}";
}
);
};
components = (
{
name = n_bow;
transform = "{1, 0, 0, 1, 147, 0}";
}
);
guideLines = (
{
position = "{192, 435}";
}
);
layerId = "1B5E7594-BD1E-41E1-80E1-0DE241437139";
paths = (
{
closed = 1;
nodes = (
"133 0 LINE",
"252 -4 LINE",
"252 31 LINE",
"206 34 LINE SMOOTH",
"172 36 OFFCURVE",
"162 55 OFFCURVE",
"162 81 CURVE SMOOTH",
"166 790 LINE",
"157 796 LINE",
"110 787 OFFCURVE",
"63 780 OFFCURVE",
"16 775 CURVE",
"16 743 LINE",
"57 739 LINE SMOOTH",
"90 736 OFFCURVE",
"98 714 OFFCURVE",
"98 692 CURVE SMOOTH",
"98 75 LINE SMOOTH",
"98 45 OFFCURVE",
"83 34 OFFCURVE",
"59 33 CURVE SMOOTH",
"16 31 LINE",
"16 -4 LINE"
);
}
);
width = 580;
},
{
anchors = (
{
name = bottom;
position = "{310, 0}";
},
{
name = center;
position = "{310, 403}";
},
{
name = top;
position = "{310, 806}";
}
);
background = {
components = (
{
name = u;
transform = "{1, 0, 0, 1, 5, 0}";
}
);
};
components = (
{
name = n_bow;
transform = "{1, 0, 0, 1, -14, 0}";
}
);
layerId = "5A1ECF60-5C3D-4C60-84B4-C69E600E0422";
paths = (
{
closed = 1;
nodes = (
"159 0 LINE",
"293 -3 LINE",
"295 90 LINE",
"285 93 LINE SMOOTH",
"262 100 OFFCURVE",
"264 112 OFFCURVE",
"264 135 CURVE SMOOTH",
"269 796 LINE",
"251 813 LINE",
"171 798 OFFCURVE",
"85 789 OFFCURVE",
"5 785 CURVE",
"5 696 LINE",
"32 693 LINE SMOOTH",
"52 691 OFFCURVE",
"67 674 OFFCURVE",
"67 651 CURVE SMOOTH",
"71 131 LINE SMOOTH",
"71 110 OFFCURVE",
"60 98 OFFCURVE",
"38 94 CURVE SMOOTH",
"10 89 LINE",
"9 -3 LINE"
);
}
);
width = 604;
}
);
unicode = 0068;
},
{
color = 1;
glyphname = i;
lastChange = "2018-06-15 20:12:08 +0000";
layers = (
{
anchors = (
{
name = bottom;
position = "{149, 0}";
}
);
background = {
components = (
{
name = n;
transform = "{1, 0, 0, 1, 55, 0}";
}
);
};
components = (
{
name = idotless;
},
{
name = dotaccentcomb;
transform = "{1, 0, 0, 1, 17, 0}";
}
);
guideLines = (
{
position = "{-300, 31}";
}
);
layerId = "1B5E7594-BD1E-41E1-80E1-0DE241437139";
width = 289;
},
{
anchors = (
{
name = bottom;
position = "{177, 0}";
}
);
background = {
components = (
{
name = n;
transform = "{1, 0, 0, 1, 7, 0}";
}
);
paths = (
{
closed = 1;
nodes = (
"254 599 OFFCURVE",
"292 638 OFFCURVE",
"292 712 CURVE SMOOTH",
"292 786 OFFCURVE",
"254 824 OFFCURVE",
"180 824 CURVE SMOOTH",
"106 824 OFFCURVE",
"67 786 OFFCURVE",
"67 712 CURVE SMOOTH",
"67 638 OFFCURVE",
"106 599 OFFCURVE",
"180 599 CURVE SMOOTH"
);
}
);
};
components = (
{
name = idotless;
},
{
name = dotaccentcomb;
transform = "{1, 0, 0, 1, 66, 0}";
}
);
layerId = "5A1ECF60-5C3D-4C60-84B4-C69E600E0422";
width = 355;
},
{
associatedMasterId = "1B5E7594-BD1E-41E1-80E1-0DE241437139";
background = {
components = (
{
name = n;
transform = "{1, 0, 0, 1, -34, 0}";
}
);
};
guideLines = (
{
position = "{-389, 31}";
}
);
layerId = "B694085D-22B3-4DBD-BA43-CA60526A5349";
name = "Mar 30 18, 20:24";
paths = (
{
closed = 1;
nodes = (
"136 676 OFFCURVE",
"157 697 OFFCURVE",
"157 733 CURVE SMOOTH",
"157 768 OFFCURVE",
"136 789 OFFCURVE",
"101 789 CURVE SMOOTH",
"65 789 OFFCURVE",
"44 768 OFFCURVE",
"44 733 CURVE SMOOTH",
"44 697 OFFCURVE",
"65 676 OFFCURVE",
"101 676 CURVE SMOOTH"
);
},
{
closed = 1;
nodes = (
"-5 471 LINE",
"44 480 OFFCURVE",
"88 495 OFFCURVE",
"133 506 CURVE",
"142 500 LINE",
"135 76 LINE SMOOTH",
"135 46 OFFCURVE",
"150 35 OFFCURVE",
"174 34 CURVE SMOOTH",
"224 32 LINE",
"224 -4 LINE",
"107 0 LINE",
"-6 -4 LINE",
"-6 32 LINE",
"33 34 LINE SMOOTH",
"57 35 OFFCURVE",
"72 46 OFFCURVE",
"72 76 CURVE SMOOTH",
"72 403 LINE SMOOTH",
"72 425 OFFCURVE",
"68 438 OFFCURVE",
"35 440 CURVE SMOOTH",
"-5 443 LINE"
);
}
);
width = 211;
}
);
unicode = 0069;
},
{
color = 1;
glyphname = idotless;
lastChange = "2018-06-15 20:12:08 +0000";
layers = (
{
anchors = (
{
name = bottom;
position = "{154, 0}";
},
{
name = ogonek;
position = "{278, 10}";
},
{
name = top;
position = "{149, 500}";
}
);
layerId = "1B5E7594-BD1E-41E1-80E1-0DE241437139";
paths = (
{
closed = 1;
nodes = (
"152 0 LINE",
"269 -4 LINE",
"269 32 LINE",
"219 34 LINE SMOOTH",
"195 35 OFFCURVE",
"180 46 OFFCURVE",
"180 76 CURVE SMOOTH",
"187 500 LINE",
"178 506 LINE",
"133 500 OFFCURVE",
"89 499 OFFCURVE",
"40 499 CURVE",
"40 462 LINE",
"80 459 LINE SMOOTH",
"113 457 OFFCURVE",
"117 425 OFFCURVE",
"117 403 CURVE SMOOTH",
"117 76 LINE SMOOTH",
"117 46 OFFCURVE",
"102 35 OFFCURVE",
"78 34 CURVE SMOOTH",
"39 32 LINE",
"39 -4 LINE"
);
}
);
width = 289;
},
{
anchors = (
{
name = bottom;
position = "{179, 0}";
},
{
name = ogonek;
position = "{317, 10}";
},
{
name = top;
position = "{179, 506}";
}
);
background = {
components = (
{
name = u;
transform = "{1, 0, 0, 1, 14, 0}";
}
);
};
layerId = "5A1ECF60-5C3D-4C60-84B4-C69E600E0422";
paths = (
{
closed = 1;
nodes = (
"178 0 LINE",
"342 -3 LINE",
"342 89 LINE",
"315 91 LINE SMOOTH",
"294 93 OFFCURVE",
"278 107 OFFCURVE",
"278 128 CURVE SMOOTH",
"285 504 LINE",
"266 523 LINE",
"190 509 OFFCURVE",
"106 505 OFFCURVE",
"26 501 CURVE",
"26 407 LINE",
"53 404 LINE SMOOTH",
"72 402 OFFCURVE",
"84 388 OFFCURVE",
"84 367 CURVE SMOOTH",
"84 128 LINE SMOOTH",
"84 108 OFFCURVE",
"74 96 OFFCURVE",
"54 93 CURVE SMOOTH",
"26 89 LINE",
"26 -3 LINE"
);
}
);
width = 355;
},
{
anchors = (
{
name = bottom;
position = "{156, 0}";
},
{
name = ogonek;
position = "{280, 10}";
},
{
name = top;
position = "{151, 500}";
}
);
associatedMasterId = "1B5E7594-BD1E-41E1-80E1-0DE241437139";
layerId = "384F6E9A-9FCF-4DA4-A0B4-B01932ECAC24";
name = "Apr 15 18, 15:52";
paths = (
{
closed = 1;
nodes = (
"42 471 LINE",
"91 480 OFFCURVE",
"135 495 OFFCURVE",
"180 506 CURVE",
"189 500 LINE",
"182 76 LINE SMOOTH",
"182 46 OFFCURVE",
"197 35 OFFCURVE",
"221 34 CURVE SMOOTH",
"271 32 LINE",
"271 -4 LINE",
"154 0 LINE",
"41 -4 LINE",
"41 32 LINE",
"80 34 LINE SMOOTH",
"104 35 OFFCURVE",
"119 46 OFFCURVE",
"119 76 CURVE SMOOTH",
"119 403 LINE SMOOTH",
"119 425 OFFCURVE",
"115 438 OFFCURVE",
"82 440 CURVE SMOOTH",
"42 443 LINE"
);
}
);
width = 289;
}
);
leftMetricsKey = n;
rightMetricsKey = n;
unicode = 0131;
},
{
color = 1;
glyphname = j;
lastChange = "2018-06-15 20:34:38 +0000";
layers = (
{
background = {
components = (
{
name = i;
transform = "{1, 0, 0, 1, -21, 0}";
}
);
};
guideLines = (
{
position = "{-454, -195}";
}
);
layerId = "1B5E7594-BD1E-41E1-80E1-0DE241437139";
paths = (
{
closed = 1;
nodes = (
"140 -82 OFFCURVE",
"152 -30 OFFCURVE",
"162 105 CURVE",
"168 500 LINE",
"159 506 LINE",
"113 500 OFFCURVE",
"67 499 OFFCURVE",
"21 499 CURVE",
"21 462 LINE",
"65 459 LINE SMOOTH",
"88 457 OFFCURVE",
"100 441 OFFCURVE",
"100 418 CURVE SMOOTH",
"97 133 LINE SMOOTH",
"96 -1 OFFCURVE",
"82 -67 OFFCURVE",
"37 -190 CURVE",
"68 -208 LINE"
);
},
{
closed = 1;
nodes = (
"149 680 OFFCURVE",
"176 707 OFFCURVE",
"176 738 CURVE SMOOTH",
"176 768 OFFCURVE",
"149 795 OFFCURVE",
"119 795 CURVE SMOOTH",
"88 795 OFFCURVE",
"61 768 OFFCURVE",
"61 738 CURVE SMOOTH",
"61 707 OFFCURVE",
"88 680 OFFCURVE",
"119 680 CURVE SMOOTH"
);
}
);
width = 243;
},
{
background = {
components = (
{
name = i;
transform = "{1, 0, 0, 1, -12, 0}";
}
);
};
guideLines = (
{
position = "{596, 519}";
}
);
layerId = "5A1ECF60-5C3D-4C60-84B4-C69E600E0422";
paths = (
{
closed = 1;
nodes = (
"177 -161 OFFCURVE",
"232 -72 OFFCURVE",
"264 85 CURVE",
"273 505 LINE",
"256 523 LINE",
"181 509 OFFCURVE",
"86 505 OFFCURVE",
"13 501 CURVE",
"13 404 LINE",
"37 402 LINE SMOOTH",
"65 400 OFFCURVE",
"73 381 OFFCURVE",
"73 354 CURVE SMOOTH",
"73 142 LINE SMOOTH",
"73 53 OFFCURVE",
"55 -104 OFFCURVE",
"18 -170 CURVE",
"108 -215 LINE"
);
},
{
closed = 1;
nodes = (
"224 599 OFFCURVE",
"275 650 OFFCURVE",
"275 712 CURVE SMOOTH",
"275 773 OFFCURVE",
"224 824 OFFCURVE",
"163 824 CURVE SMOOTH",
"101 824 OFFCURVE",
"50 773 OFFCURVE",
"50 712 CURVE SMOOTH",
"50 650 OFFCURVE",
"101 599 OFFCURVE",
"163 599 CURVE SMOOTH"
);
}
);
width = 321;
},
{
associatedMasterId = "1B5E7594-BD1E-41E1-80E1-0DE241437139";
background = {
components = (
{
name = n;
transform = "{1, 0, 0, 1, -40, 0}";
}
);
};
layerId = "C3D92DA9-7F99-4CA1-B04F-6DEC7586144A";
name = "Mar 30 18, 20:24";
paths = (
{
closed = 1;
nodes = (
"135 135 LINE",
"125 0 OFFCURVE",
"113 -52 OFFCURVE",
"41 -178 CURVE",
"10 -160 LINE",
"55 -37 OFFCURVE",
"69 29 OFFCURVE",
"70 163 CURVE SMOOTH",
"71 402 LINE SMOOTH",
"71 425 OFFCURVE",
"59 437 OFFCURVE",
"36 439 CURVE SMOOTH",
"-11 443 LINE",
"-11 472 LINE",
"35 478 OFFCURVE",
"86 495 OFFCURVE",
"132 505 CURVE",
"141 499 LINE"
);
},
{
closed = 1;
nodes = (
"122 680 OFFCURVE",
"149 707 OFFCURVE",
"149 738 CURVE SMOOTH",
"149 768 OFFCURVE",
"122 795 OFFCURVE",
"92 795 CURVE SMOOTH",
"61 795 OFFCURVE",
"34 768 OFFCURVE",
"34 738 CURVE SMOOTH",
"34 707 OFFCURVE",
"61 680 OFFCURVE",
"92 680 CURVE SMOOTH"
);
}
);
width = 186;
}
);
unicode = 006A;
},
{
color = 1;
glyphname = k;
lastChange = "2018-06-15 20:34:38 +0000";
layers = (
{
anchors = (
{
name = bottom;
position = "{265, 0}";
},
{
name = top;
position = "{265, 800}";
}
);
background = {
components = (
{
name = x;
transform = "{1, 0, 0, 1, -17, 0}";
}
);
};
layerId = "1B5E7594-BD1E-41E1-80E1-0DE241437139";
paths = (
{
closed = 1;
nodes = (
"130 0 LINE",
"249 -4 LINE",
"249 31 LINE",
"202 33 LINE SMOOTH",
"175 34 OFFCURVE",
"159 47 OFFCURVE",
"159 71 CURVE SMOOTH",
"167 790 LINE",
"158 796 LINE",
"111 787 OFFCURVE",
"62 780 OFFCURVE",
"15 775 CURVE",
"15 743 LINE",
"56 739 LINE SMOOTH",
"89 736 OFFCURVE",
"97 716 OFFCURVE",
"97 694 CURVE SMOOTH",
"97 75 LINE SMOOTH",
"97 45 OFFCURVE",
"82 34 OFFCURVE",
"58 33 CURVE SMOOTH",
"15 31 LINE",
"15 -4 LINE"
);
},
{
closed = 1;
nodes = (
"530 47 LINE",
"520 68 LINE",
"467 47 LINE SMOOTH",
"451 41 OFFCURVE",
"442 45 OFFCURVE",
"432 62 CURVE SMOOTH",
"288 303 LINE",
"244 257 LINE",
"350 62 LINE SMOOTH",
"382 4 OFFCURVE",
"432 -29 OFFCURVE",
"506 4 CURVE"
);
},
{
closed = 1;
nodes = (
"416 408 LINE SMOOTH",
"450 441 OFFCURVE",
"464 454 OFFCURVE",
"505 460 CURVE",
"505 497 LINE",
"404 493 LINE",
"289 497 LINE",
"289 458 LINE",
"339 456 LINE SMOOTH",
"370 455 OFFCURVE",
"377 434 OFFCURVE",
"357 414 CURVE SMOOTH",
"129 183 LINE",
"144 138 LINE"
);
}
);
width = 544;
},
{
anchors = (
{
name = bottom;
position = "{312, 0}";
},
{
name = top;
position = "{312, 806}";
}
);
background = {
components = (
{
name = n;
transform = "{1, 0, 0, 1, -20, 0}";
}
);
};
guideLines = (
{
angle = 90;
position = "{594, 339}";
}
);
layerId = "5A1ECF60-5C3D-4C60-84B4-C69E600E0422";
paths = (
{
closed = 1;
nodes = (
"159 0 LINE",
"306 -3 LINE",
"308 88 LINE",
"287 94 LINE SMOOTH",
"265 100 OFFCURVE",
"264 112 OFFCURVE",
"264 135 CURVE SMOOTH",
"269 796 LINE",
"251 813 LINE",
"171 798 OFFCURVE",
"85 789 OFFCURVE",
"5 785 CURVE",
"5 696 LINE",
"32 693 LINE SMOOTH",
"52 691 OFFCURVE",
"67 674 OFFCURVE",
"67 651 CURVE SMOOTH",
"71 131 LINE SMOOTH",
"71 110 OFFCURVE",
"60 98 OFFCURVE",
"38 94 CURVE SMOOTH",
"10 89 LINE",
"9 -3 LINE"
);
},
{
closed = 1;
nodes = (
"626 107 LINE",
"608 135 LINE",
"569 127 LINE SMOOTH",
"548 123 OFFCURVE",
"537 134 OFFCURVE",
"526 153 CURVE SMOOTH",
"427 325 LINE",
"292 216 LINE",
"327 113 LINE SMOOTH",
"357 25 OFFCURVE",
"399 -40 OFFCURVE",
"577 1 CURVE"
);
},
{
closed = 1;
nodes = (
"483 360 LINE SMOOTH",
"514 387 OFFCURVE",
"546 402 OFFCURVE",
"589 409 CURVE",
"589 506 LINE",
"449 503 LINE",
"308 506 LINE",
"308 410 LINE",
"334 406 LINE SMOOTH",
"363 402 OFFCURVE",
"376 374 OFFCURVE",
"339 341 CURVE SMOOTH",
"219 231 LINE",
"234 137 LINE"
);
}
);
width = 623;
}
);
unicode = 006B;
},
{
color = 1;
glyphname = l;
lastChange = "2018-06-15 20:34:38 +0000";
layers = (
{
anchors = (
{
name = bottom;
position = "{131, 0}";
},
{
name = center;
position = "{131, 400}";
},
{
name = top;
position = "{131, 800}";
},
{
name = topright;
position = "{252, 800}";
}
);
background = {
components = (
{
name = i;
transform = "{1, 0, 0, 1, -20, 290}";
}
);
};
layerId = "1B5E7594-BD1E-41E1-80E1-0DE241437139";
paths = (
{
closed = 1;
nodes = (
"131 0 LINE",
"250 -4 LINE",
"250 31 LINE",
"203 33 LINE SMOOTH",
"176 34 OFFCURVE",
"160 47 OFFCURVE",
"160 71 CURVE SMOOTH",
"168 790 LINE",
"159 796 LINE",
"112 787 OFFCURVE",
"63 780 OFFCURVE",
"16 775 CURVE",
"16 743 LINE",
"57 739 LINE SMOOTH",
"90 736 OFFCURVE",
"98 716 OFFCURVE",
"98 694 CURVE SMOOTH",
"98 75 LINE SMOOTH",
"98 45 OFFCURVE",
"83 34 OFFCURVE",
"59 33 CURVE SMOOTH",
"16 31 LINE",
"16 -4 LINE"
);
}
);
width = 262;
},
{
anchors = (
{
name = bottom;
position = "{168, 0}";
},
{
name = center;
position = "{168, 403}";
},
{
name = top;
position = "{168, 806}";
},
{
name = topright;
position = "{316, 806}";
}
);
background = {
components = (
{
name = i;
transform = "{1, 0, 0, 1, -13, 0}";
}
);
};
guideLines = (
{
angle = 105;
position = "{-535, 559}";
}
);
layerId = "5A1ECF60-5C3D-4C60-84B4-C69E600E0422";
paths = (
{
closed = 1;
nodes = (
"160 0 LINE",
"321 -3 LINE",
"323 90 LINE",
"299 94 LINE SMOOTH",
"277 98 OFFCURVE",
"265 112 OFFCURVE",
"265 135 CURVE SMOOTH",
"270 796 LINE",
"252 813 LINE",
"172 798 OFFCURVE",
"86 789 OFFCURVE",
"6 785 CURVE",
"6 696 LINE",
"33 693 LINE SMOOTH",
"53 691 OFFCURVE",
"68 674 OFFCURVE",
"68 651 CURVE SMOOTH",
"72 131 LINE SMOOTH",
"72 110 OFFCURVE",
"61 98 OFFCURVE",
"39 94 CURVE SMOOTH",
"11 89 LINE",
"10 -3 LINE"
);
}
);
width = 336;
},
{
associatedMasterId = "1B5E7594-BD1E-41E1-80E1-0DE241437139";
background = {
components = (
{
name = n;
transform = "{1, 0, 0, 1, -18, 292}";
}
);
};
layerId = "C4FD5C51-5F13-4287-B422-EBE9D398E7B3";
name = "Mar 30 18, 20:24";
paths = (
{
closed = 1;
nodes = (
"-13 775 LINE",
"34 780 OFFCURVE",
"83 787 OFFCURVE",
"130 796 CURVE",
"139 790 LINE",
"131 71 LINE SMOOTH",
"131 47 OFFCURVE",
"147 34 OFFCURVE",
"174 33 CURVE SMOOTH",
"221 31 LINE",
"221 -4 LINE",
"102 0 LINE",
"-13 -4 LINE",
"-13 31 LINE",
"30 33 LINE SMOOTH",
"54 34 OFFCURVE",
"69 45 OFFCURVE",
"69 75 CURVE SMOOTH",
"69 694 LINE SMOOTH",
"69 716 OFFCURVE",
"61 736 OFFCURVE",
"28 739 CURVE SMOOTH",
"-13 743 LINE"
);
}
);
width = 208;
}
);
unicode = 006C;
},
{
color = 1;
glyphname = m;
lastChange = "2018-06-15 20:34:38 +0000";
layers = (
{
anchors = (
{
name = bottom;
position = "{436, 0}";
},
{
name = top;
position = "{436, 500}";
}
);
background = {
components = (
{
name = n;
transform = "{1, 0, 0, 1, 329, 0}";
}
);
};
components = (
{
name = n_bow;
transform = "{1, 0, 0, 1, 442, 0}";
},
{
name = n_stem;
transform = "{1, 0, 0, 1, 29, 0}";
}
);
guideLines = (
{
position = "{654, 453}";
}
);
layerId = "1B5E7594-BD1E-41E1-80E1-0DE241437139";
paths = (
{
closed = 1;
nodes = (
"449 0 LINE",
"562 -4 LINE",
"562 31 LINE",
"514 33 LINE SMOOTH",
"492 34 OFFCURVE",
"476 46 OFFCURVE",
"476 69 CURVE SMOOTH",
"478 360 LINE SMOOTH",
"479 453 OFFCURVE",
"423 508 OFFCURVE",
"340 508 CURVE SMOOTH",
"259 508 OFFCURVE",
"204 466 OFFCURVE",
"152 420 CURVE",
"148 388 LINE",
"338 505 OFFCURVE",
"412 440 OFFCURVE",
"412 363 CURVE SMOOTH",
"412 82 LINE SMOOTH",
"412 54 OFFCURVE",
"405 38 OFFCURVE",
"370 35 CURVE SMOOTH",
"326 31 LINE",
"326 -4 LINE"
);
}
);
width = 875;
},
{
anchors = (
{
name = bottom;
position = "{453, 0}";
},
{
name = top;
position = "{453, 506}";
}
);
background = {
components = (
{
name = n;
}
);
};
components = (
{
name = n_bow;
transform = "{1, 0, 0, 1, 282, 0}";
},
{
name = n_stem;
}
);
layerId = "5A1ECF60-5C3D-4C60-84B4-C69E600E0422";
paths = (
{
closed = 1;
nodes = (
"467 0 LINE",
"589 -4 LINE",
"589 88 LINE",
"580 90 LINE SMOOTH",
"562 94 OFFCURVE",
"559 100 OFFCURVE",
"559 127 CURVE SMOOTH",
"560 372 LINE SMOOTH",
"560 455 OFFCURVE",
"518 522 OFFCURVE",
"415 522 CURVE SMOOTH",
"352 522 OFFCURVE",
"284 484 OFFCURVE",
"241 398 CURVE",
"226 332 LINE",
"325 415 OFFCURVE",
"360 374 OFFCURVE",
"361 311 CURVE SMOOTH",
"363 130 LINE SMOOTH",
"363 104 OFFCURVE",
"358 96 OFFCURVE",
"348 93 CURVE SMOOTH",
"339 90 LINE",
"337 -4 LINE"
);
}
);
width = 900;
},
{
associatedMasterId = "1B5E7594-BD1E-41E1-80E1-0DE241437139";
background = {
components = (
{
name = n;
transform = "{1, 0, 0, 1, 300, 0}";
}
);
};
components = (
{
name = n_bow;
transform = "{1, 0, 0, 1, 413, 0}";
},
{
name = n_stem;
}
);
guideLines = (
{
position = "{625, 453}";
}
);
layerId = "EB443756-9981-4201-8DF9-A7AC68688DE9";
name = "Mar 30 18, 20:24";
paths = (
{
closed = 1;
nodes = (
"175 466 OFFCURVE",
"230 508 OFFCURVE",
"311 508 CURVE SMOOTH",
"394 508 OFFCURVE",
"450 453 OFFCURVE",
"449 360 CURVE SMOOTH",
"447 69 LINE SMOOTH",
"447 46 OFFCURVE",
"463 34 OFFCURVE",
"485 33 CURVE SMOOTH",
"533 31 LINE",
"533 -4 LINE",
"420 0 LINE",
"297 -4 LINE",
"297 31 LINE",
"341 35 LINE SMOOTH",
"376 38 OFFCURVE",
"383 54 OFFCURVE",
"383 82 CURVE SMOOTH",
"383 363 LINE SMOOTH",
"383 440 OFFCURVE",
"309 505 OFFCURVE",
"119 388 CURVE",
"123 420 LINE"
);
}
);
width = 854;
}
);
unicode = 006D;
},
{
color = 1;
glyphname = n_bow;
lastChange = "2018-06-15 20:19:29 +0000";
layers = (
{
background = {
components = (
{
name = n_stem;
transform = "{1, 0, 0, 1, 189, 0}";
}
);
};
layerId = "1B5E7594-BD1E-41E1-80E1-0DE241437139";
paths = (
{
closed = 1;
nodes = (
"311 0 LINE",
"424 -4 LINE",
"424 31 LINE",
"376 33 LINE SMOOTH",
"354 34 OFFCURVE",
"338 46 OFFCURVE",
"338 69 CURVE SMOOTH",
"340 360 LINE SMOOTH",
"341 453 OFFCURVE",
"285 508 OFFCURVE",
"202 508 CURVE SMOOTH",
"121 508 OFFCURVE",
"56 472 OFFCURVE",
"4 426 CURVE",
"0 394 LINE",
"193 505 OFFCURVE",
"272 440 OFFCURVE",
"272 363 CURVE SMOOTH",
"272 82 LINE SMOOTH",
"272 45 OFFCURVE",
"260 34 OFFCURVE",
"186 31 CURVE",
"186 -4 LINE"
);
}
);
width = 424;
},
{
guideLines = (
{
position = "{862, 453}";
}
);
layerId = "5A1ECF60-5C3D-4C60-84B4-C69E600E0422";
paths = (
{
closed = 1;
nodes = (
"466 0 LINE",
"604 -4 LINE",
"605 88 LINE",
"583 90 LINE SMOOTH",
"566 92 OFFCURVE",
"550 100 OFFCURVE",
"551 127 CURVE SMOOTH",
"559 372 LINE SMOOTH",
"562 455 OFFCURVE",
"517 522 OFFCURVE",
"414 522 CURVE SMOOTH",
"351 522 OFFCURVE",
"279 486 OFFCURVE",
"236 400 CURVE",
"225 334 LINE",
"324 417 OFFCURVE",
"359 374 OFFCURVE",
"359 311 CURVE SMOOTH",
"360 130 LINE SMOOTH",
"360 94 OFFCURVE",
"347 92 OFFCURVE",
"330 90 CURVE",
"331 -4 LINE"
);
}
);
width = 620;
},
{
associatedMasterId = "1B5E7594-BD1E-41E1-80E1-0DE241437139";
layerId = "19B4AB72-2810-48F9-8ABA-2E63CDD6DB48";
name = "Mar 30 18, 20:24";
paths = (
{
closed = 1;
nodes = (
"47 472 OFFCURVE",
"112 508 OFFCURVE",
"193 508 CURVE SMOOTH",
"276 508 OFFCURVE",
"332 453 OFFCURVE",
"331 360 CURVE SMOOTH",
"329 69 LINE SMOOTH",
"329 46 OFFCURVE",
"345 34 OFFCURVE",
"367 33 CURVE SMOOTH",
"415 31 LINE",
"415 -4 LINE",
"302 0 LINE",
"179 -4 LINE",
"179 31 LINE",
"253 34 OFFCURVE",
"265 45 OFFCURVE",
"265 82 CURVE SMOOTH",
"265 363 LINE SMOOTH",
"265 440 OFFCURVE",
"184 505 OFFCURVE",
"-9 394 CURVE",
"-5 426 LINE"
);
}
);
width = 402;
}
);
},
{
color = 1;
glyphname = n_stem;
lastChange = "2018-06-15 20:19:16 +0000";
layers = (
{
background = {
components = (
{
name = i;
transform = "{1, 0, 0, 1, -36, 0}";
}
);
};
layerId = "1B5E7594-BD1E-41E1-80E1-0DE241437139";
paths = (
{
closed = 1;
nodes = (
"118 0 LINE",
"236 -4 LINE",
"236 31 LINE",
"160 34 OFFCURVE",
"149 43 OFFCURVE",
"149 80 CURVE SMOOTH",
"150 410 LINE",
"147 428 LINE",
"147 500 LINE",
"138 506 LINE",
"95 500 OFFCURVE",
"55 498 OFFCURVE",
"2 496 CURVE",
"2 462 LINE",
"46 459 LINE SMOOTH",
"79 457 OFFCURVE",
"83 428 OFFCURVE",
"83 385 CURVE SMOOTH",
"83 75 LINE SMOOTH",
"83 45 OFFCURVE",
"69 34 OFFCURVE",
"40 33 CURVE SMOOTH",
"1 31 LINE",
"1 -4 LINE"
);
}
);
width = 236;
},
{
background = {
components = (
{
name = i;
}
);
};
layerId = "5A1ECF60-5C3D-4C60-84B4-C69E600E0422";
paths = (
{
closed = 1;
nodes = (
"174 0 LINE",
"312 -3 LINE",
"314 90 LINE",
"290 93 OFFCURVE",
"280 98 OFFCURVE",
"280 127 CURVE SMOOTH",
"281 404 LINE",
"274 435 LINE",
"275 506 LINE",
"257 523 LINE",
"183 509 OFFCURVE",
"107 505 OFFCURVE",
"27 501 CURVE",
"26 407 LINE",
"53 404 LINE SMOOTH",
"73 402 OFFCURVE",
"84 388 OFFCURVE",
"84 362 CURVE SMOOTH",
"84 131 LINE SMOOTH",
"84 110 OFFCURVE",
"75 98 OFFCURVE",
"53 94 CURVE SMOOTH",
"27 89 LINE",
"26 -3 LINE"
);
}
);
width = 343;
},
{
associatedMasterId = "1B5E7594-BD1E-41E1-80E1-0DE241437139";
layerId = "28B82E86-0A02-4803-AB3B-3DE0D3122E6B";
name = "Mar 30 18, 20:24";
paths = (
{
closed = 1;
nodes = (
"57 483 OFFCURVE",
"91 494 OFFCURVE",
"137 506 CURVE",
"146 500 LINE",
"146 428 LINE",
"149 410 LINE",
"149 80 LINE SMOOTH",
"149 43 OFFCURVE",
"159 34 OFFCURVE",
"235 31 CURVE",
"235 -4 LINE",
"117 0 LINE",
"-1 -4 LINE",
"-1 31 LINE",
"38 33 LINE SMOOTH",
"67 34 OFFCURVE",
"79 47 OFFCURVE",
"79 74 CURVE SMOOTH",
"81 384 LINE SMOOTH",
"81 406 OFFCURVE",
"80 436 OFFCURVE",
"47 439 CURVE SMOOTH",
"-1 443 LINE",
"-1 471 LINE"
);
}
);
width = 222;
}
);
},
{
color = 1;
glyphname = o;
lastChange = "2018-06-15 20:34:38 +0000";
layers = (
{
anchors = (
{
name = bottom;
position = "{265, 0}";
},
{
name = center;
position = "{265, 250}";
},
{
name = ogonek;
position = "{492, 10}";
},
{
name = top;
position = "{265, 500}";
},
{
name = topright;
position = "{529, 500}";
}
);
guideLines = (
{
position = "{873, 509}";
}
);
layerId = "1B5E7594-BD1E-41E1-80E1-0DE241437139";
paths = (
{
closed = 1;
nodes = (
"396 -14 OFFCURVE",
"494 76 OFFCURVE",
"495 257 CURVE SMOOTH",
"496 402 OFFCURVE",
"397 511 OFFCURVE",
"265 511 CURVE SMOOTH",
"134 511 OFFCURVE",
"36 402 OFFCURVE",
"35 257 CURVE SMOOTH",
"34 76 OFFCURVE",
"129 -14 OFFCURVE",
"265 -14 CURVE SMOOTH"
);
},
{
closed = 1;
nodes = (
"156 31 OFFCURVE",
"113 128 OFFCURVE",
"113 240 CURVE SMOOTH",
"113 244 OFFCURVE",
"113 257 OFFCURVE",
"113 261 CURVE SMOOTH",
"113 363 OFFCURVE",
"165 466 OFFCURVE",
"265 466 CURVE SMOOTH",
"370 466 OFFCURVE",
"420 371 OFFCURVE",
"420 262 CURVE SMOOTH",
"420 258 OFFCURVE",
"420 244 OFFCURVE",
"420 240 CURVE SMOOTH",
"420 128 OFFCURVE",
"373 31 OFFCURVE",
"265 31 CURVE SMOOTH"
);
}
);
width = 530;
},
{
anchors = (
{
name = bottom;
position = "{289, 0}";
},
{
name = center;
position = "{289, 253}";
},
{
name = ogonek;
position = "{519, 10}";
},
{
name = top;
position = "{289, 506}";
},
{
name = topright;
position = "{557, 506}";
}
);
background = {
paths = (
{
closed = 1;
nodes = (
"460 -13 OFFCURVE",
"557 79 OFFCURVE",
"559 259 CURVE SMOOTH",
"561 431 OFFCURVE",
"469 519 OFFCURVE",
"289 518 CURVE SMOOTH",
"110 517 OFFCURVE",
"18 428 OFFCURVE",
"18 259 CURVE SMOOTH",
"18 79 OFFCURVE",
"106 -13 OFFCURVE",
"285 -13 CURVE SMOOTH"
);
},
{
closed = 1;
nodes = (
"328 419 OFFCURVE",
"335 395 OFFCURVE",
"335 369 CURVE SMOOTH",
"335 345 OFFCURVE",
"335 162 OFFCURVE",
"335 149 CURVE SMOOTH",
"335 115 OFFCURVE",
"327 80 OFFCURVE",
"288 80 CURVE SMOOTH",
"248 80 OFFCURVE",
"242 115 OFFCURVE",
"242 149 CURVE SMOOTH",
"242 163 OFFCURVE",
"242 346 OFFCURVE",
"242 369 CURVE SMOOTH",
"242 395 OFFCURVE",
"247 419 OFFCURVE",
"288 419 CURVE SMOOTH"
);
}
);
};
guideLines = (
{
position = "{993, 517}";
},
{
position = "{998, 421}";
},
{
angle = -0.1936;
position = "{-303, 525}";
},
{
position = "{-605, -16}";
}
);
layerId = "5A1ECF60-5C3D-4C60-84B4-C69E600E0422";
paths = (
{
closed = 1;
nodes = (
"460 -16 OFFCURVE",
"557 73 OFFCURVE",
"559 257 CURVE SMOOTH",
"561 434 OFFCURVE",
"469 524 OFFCURVE",
"289 523 CURVE SMOOTH",
"110 522 OFFCURVE",
"18 431 OFFCURVE",
"18 257 CURVE SMOOTH",
"18 73 OFFCURVE",
"106 -16 OFFCURVE",
"285 -16 CURVE SMOOTH"
);
},
{
closed = 1;
nodes = (
"249 95 OFFCURVE",
"242 135 OFFCURVE",
"242 161 CURVE SMOOTH",
"242 235 OFFCURVE",
"242 279 OFFCURVE",
"242 342 CURVE SMOOTH",
"242 376 OFFCURVE",
"250 411 OFFCURVE",
"289 411 CURVE SMOOTH",
"329 411 OFFCURVE",
"335 376 OFFCURVE",
"335 342 CURVE SMOOTH",
"335 278 OFFCURVE",
"335 234 OFFCURVE",
"335 161 CURVE SMOOTH",
"335 135 OFFCURVE",
"330 95 OFFCURVE",
"289 95 CURVE SMOOTH"
);
}
);
width = 577;
},
{
associatedMasterId = "1B5E7594-BD1E-41E1-80E1-0DE241437139";
background = {
components = (
{
name = n;
transform = "{1, 0, 0, 1, -59, 0}";
}
);
};
guideLines = (
{
position = "{854, 505}";
}
);
layerId = "976344E7-440A-453F-B045-D700F7E77F33";
name = "Mar 30 18, 20:24";
paths = (
{
closed = 1;
nodes = (
"377 -14 OFFCURVE",
"473 95 OFFCURVE",
"474 257 CURVE SMOOTH",
"475 402 OFFCURVE",
"378 511 OFFCURVE",
"247 511 CURVE SMOOTH",
"115 511 OFFCURVE",
"19 402 OFFCURVE",
"18 257 CURVE SMOOTH",
"17 95 OFFCURVE",
"110 -14 OFFCURVE",
"245 -14 CURVE SMOOTH"
);
},
{
closed = 1;
nodes = (
"137 31 OFFCURVE",
"96 138 OFFCURVE",
"96 257 CURVE SMOOTH",
"96 261 OFFCURVE",
"96 264 OFFCURVE",
"96 268 CURVE SMOOTH",
"96 363 OFFCURVE",
"146 466 OFFCURVE",
"247 466 CURVE SMOOTH",
"351 466 OFFCURVE",
"399 371 OFFCURVE",
"399 269 CURVE SMOOTH",
"399 265 OFFCURVE",
"399 261 OFFCURVE",
"399 257 CURVE SMOOTH",
"399 138 OFFCURVE",
"354 31 OFFCURVE",
"245 31 CURVE SMOOTH"
);
}
);
width = 492;
}
);
unicode = 006F;
},
{
glyphname = oslash;
lastChange = "2018-06-15 20:12:08 +0000";
layers = (
{
components = (
{
name = o;
}
);
guideLines = (
{
angle = 55;
position = "{253, 352}";
}
);
layerId = "1B5E7594-BD1E-41E1-80E1-0DE241437139";
paths = (
{
closed = 1;
nodes = (
"63 -84 LINE",
"81 -79 LINE",
"529 570 LINE",
"502 593 LINE",
"486 587 LINE",
"37 -59 LINE"
);
}
);
width = 568;
},
{
components = (
{
name = o;
}
);
layerId = "5A1ECF60-5C3D-4C60-84B4-C69E600E0422";
paths = (
{
closed = 1;
nodes = (
"93 -119 LINE",
"124 -118 LINE",
"590 550 LINE",
"497 625 LINE",
"451 623 LINE",
"-16 -42 LINE"
);
}
);
width = 577;
},
{
associatedMasterId = "1B5E7594-BD1E-41E1-80E1-0DE241437139";
components = (
{
name = o;
}
);
layerId = "4FB7395A-7902-4D71-97CE-BD0B2180ADCE";
name = "Light [110]";
paths = (
{
closed = 1;
nodes = (
"424 405 LINE",
"538 563 LINE",
"506 587 LINE",
"490 582 LINE",
"388 443 LINE"
);
},
{
closed = 1;
nodes = (
"129 90 LINE",
"27 -50 LINE",
"58 -76 LINE",
"76 -72 LINE",
"169 55 LINE"
);
}
);
width = 568;
},
{
associatedMasterId = "5A1ECF60-5C3D-4C60-84B4-C69E600E0422";
components = (
{
name = o;
}
);
layerId = "41C99D80-B7B3-45D7-BD78-5DD4BCF9E5BB";
name = "Black [110]";
paths = (
{
closed = 1;
nodes = (
"447 356 LINE",
"585 547 LINE",
"494 622 LINE",
"448 621 LINE",
"326 453 LINE"
);
},
{
closed = 1;
nodes = (
"136 162 LINE",
"-10 -37 LINE",
"97 -116 LINE",
"128 -116 LINE",
"261 67 LINE"
);
}
);
width = 577;
}
);
unicode = 00F8;
},
{
glyphname = oe;
lastChange = "2018-06-15 20:12:08 +0000";
layers = (
{
layerId = "1B5E7594-BD1E-41E1-80E1-0DE241437139";
paths = (
{
closed = 1;
nodes = (
"751 464 OFFCURVE",
"778 421 OFFCURVE",
"770 325 CURVE",
"493 324 LINE",
"486 282 LINE",
"834 284 LINE",
"862 454 OFFCURVE",
"798 510 OFFCURVE",
"670 510 CURVE SMOOTH",
"536 510 OFFCURVE",
"441 408 OFFCURVE",
"441 240 CURVE SMOOTH",
"441 73 OFFCURVE",
"542 -6 OFFCURVE",
"655 -12 CURVE SMOOTH",
"717 -14 OFFCURVE",
"782 5 OFFCURVE",
"837 45 CURVE",
"830 76 LINE",
"815 82 LINE",
"673 5 OFFCURVE",
"514 56 OFFCURVE",
"514 231 CURVE SMOOTH",
"514 353 OFFCURVE",
"558 464 OFFCURVE",
"666 464 CURVE SMOOTH"
);
},
{
closed = 1;
nodes = (
"416 -14 OFFCURVE",
"514 76 OFFCURVE",
"515 257 CURVE SMOOTH",
"516 402 OFFCURVE",
"417 511 OFFCURVE",
"285 511 CURVE SMOOTH",
"154 511 OFFCURVE",
"56 402 OFFCURVE",
"55 257 CURVE SMOOTH",
"54 76 OFFCURVE",
"149 -14 OFFCURVE",
"285 -14 CURVE SMOOTH"
);
},
{
closed = 1;
nodes = (
"176 31 OFFCURVE",
"133 128 OFFCURVE",
"133 240 CURVE SMOOTH",
"133 244 OFFCURVE",
"133 257 OFFCURVE",
"133 261 CURVE SMOOTH",
"133 363 OFFCURVE",
"185 466 OFFCURVE",
"285 466 CURVE SMOOTH",
"390 466 OFFCURVE",
"440 371 OFFCURVE",
"440 262 CURVE SMOOTH",
"440 258 OFFCURVE",
"440 244 OFFCURVE",
"440 240 CURVE SMOOTH",
"440 128 OFFCURVE",
"393 31 OFFCURVE",
"285 31 CURVE SMOOTH"
);
}
);
width = 899;
},
{
layerId = "5A1ECF60-5C3D-4C60-84B4-C69E600E0422";
paths = (
{
closed = 1;
nodes = (
"650 424 OFFCURVE",
"660 386 OFFCURVE",
"653 331 CURVE",
"456 330 LINE",
"450 249 LINE",
"823 250 LINE",
"862 446 OFFCURVE",
"800 527 OFFCURVE",
"616 522 CURVE SMOOTH",
"442 517 OFFCURVE",
"371 384 OFFCURVE",
"371 229 CURVE SMOOTH",
"371 123 OFFCURVE",
"409 -16 OFFCURVE",
"608 -16 CURVE SMOOTH",
"683 -16 OFFCURVE",
"769 2 OFFCURVE",
"831 65 CURVE",
"809 144 LINE",
"789 155 LINE",
"619 94 OFFCURVE",
"535 108 OFFCURVE",
"538 268 CURVE SMOOTH",
"540 374 OFFCURVE",
"574 424 OFFCURVE",
"612 424 CURVE SMOOTH"
);
},
{
closed = 1;
nodes = (
"460 -16 OFFCURVE",
"537 73 OFFCURVE",
"539 257 CURVE SMOOTH",
"541 434 OFFCURVE",
"469 524 OFFCURVE",
"289 523 CURVE SMOOTH",
"110 522 OFFCURVE",
"18 431 OFFCURVE",
"18 257 CURVE SMOOTH",
"18 73 OFFCURVE",
"106 -16 OFFCURVE",
"285 -16 CURVE SMOOTH"
);
},
{
closed = 1;
nodes = (
"249 95 OFFCURVE",
"242 135 OFFCURVE",
"242 161 CURVE SMOOTH",
"242 235 OFFCURVE",
"242 279 OFFCURVE",
"242 342 CURVE SMOOTH",
"242 376 OFFCURVE",
"250 411 OFFCURVE",
"289 411 CURVE SMOOTH",
"329 411 OFFCURVE",
"335 376 OFFCURVE",
"335 342 CURVE SMOOTH",
"335 278 OFFCURVE",
"335 234 OFFCURVE",
"335 161 CURVE SMOOTH",
"335 135 OFFCURVE",
"330 95 OFFCURVE",
"289 95 CURVE SMOOTH"
);
}
);
width = 864;
}
);
leftMetricsKey = o;
rightMetricsKey = e;
unicode = 0153;
},
{
color = 1;
glyphname = p;
lastChange = "2018-06-15 20:34:38 +0000";
layers = (
{
anchors = (
{
name = bottom;
position = "{275, 0}";
},
{
name = top;
position = "{275, 500}";
}
);
background = {
components = (
{
name = n;
transform = "{1, 0, 0, 1, -26, 0}";
}
);
};
components = (
{
name = _part_bowl;
transform = "{1, 0, 0, 1, 83, 3}";
}
);
guideLines = (
{
position = "{836, -183}";
},
{
position = "{-449, -11}";
},
{
position = "{164, 511}";
}
);
layerId = "1B5E7594-BD1E-41E1-80E1-0DE241437139";
paths = (
{
closed = 1;
nodes = (
"129 -197 LINE",
"247 -200 LINE",
"247 -165 LINE",
"203 -162 LINE SMOOTH",
"170 -160 OFFCURVE",
"161 -144 OFFCURVE",
"161 -116 CURVE SMOOTH",
"161 411 LINE",
"158 428 LINE",
"158 500 LINE",
"149 506 LINE",
"110 499 OFFCURVE",
"69 497 OFFCURVE",
"17 496 CURVE",
"17 462 LINE",
"61 459 LINE SMOOTH",
"94 457 OFFCURVE",
"98 424 OFFCURVE",
"98 402 CURVE SMOOTH",
"96 -123 LINE SMOOTH",
"96 -150 OFFCURVE",
"84 -163 OFFCURVE",
"55 -164 CURVE SMOOTH",
"16 -166 LINE",
"16 -201 LINE"
);
}
);
width = 547;
},
{
anchors = (
{
name = bottom;
position = "{303, 0}";
},
{
name = top;
position = "{303, 506}";
}
);
background = {
components = (
{
name = i;
transform = "{1, 0, 0, 1, -14, 0}";
}
);
};
components = (
{
name = _part_bowl;
transform = "{1, 0, 0, 1, 25, 4}";
}
);
layerId = "5A1ECF60-5C3D-4C60-84B4-C69E600E0422";
paths = (
{
closed = 1;
nodes = (
"175 -200 LINE",
"341 -204 LINE",
"341 -114 LINE",
"310 -112 LINE SMOOTH",
"280 -110 OFFCURVE",
"267 -98 OFFCURVE",
"267 -80 CURVE SMOOTH",
"268 399 LINE",
"259 439 LINE",
"260 507 LINE",
"243 524 LINE",
"170 509 OFFCURVE",
"92 503 OFFCURVE",
"13 501 CURVE",
"13 406 LINE",
"43 403 LINE SMOOTH",
"63 401 OFFCURVE",
"71 382 OFFCURVE",
"71 361 CURVE SMOOTH",
"71 -72 LINE SMOOTH",
"71 -94 OFFCURVE",
"61 -107 OFFCURVE",
"43 -110 CURVE SMOOTH",
"15 -114 LINE",
"15 -204 LINE"
);
}
);
width = 596;
}
);
unicode = 0070;
},
{
glyphname = thorn;
lastChange = "2018-06-15 20:12:08 +0000";
layers = (
{
anchors = (
{
name = bottom;
position = "{292, 0}";
},
{
name = top;
position = "{292, 500}";
}
);
background = {
components = (
{
name = h;
transform = "{1, 0, 0, 1, 2, 0}";
}
);
};
components = (
{
name = _part_bowl;
transform = "{1, 0, 0, 1, 100, 0}";
}
);
layerId = "1B5E7594-BD1E-41E1-80E1-0DE241437139";
paths = (
{
closed = 1;
nodes = (
"146 -197 LINE",
"264 -201 LINE",
"264 -166 LINE",
"220 -163 LINE SMOOTH",
"187 -161 OFFCURVE",
"178 -145 OFFCURVE",
"178 -117 CURVE",
"178 790 LINE",
"169 796 LINE",
"127 790 OFFCURVE",
"86 781 OFFCURVE",
"28 774 CURVE",
"28 743 LINE",
"76 738 LINE SMOOTH",
"106 735 OFFCURVE",
"110 709 OFFCURVE",
"110 687 CURVE SMOOTH",
"108 -123 LINE SMOOTH",
"108 -150 OFFCURVE",
"96 -163 OFFCURVE",
"67 -164 CURVE SMOOTH",
"28 -166 LINE",
"28 -201 LINE"
);
}
);
width = 583;
},
{
anchors = (
{
name = bottom;
position = "{303, 0}";
},
{
name = top;
position = "{303, 506}";
}
);
background = {
components = (
{
name = h;
}
);
};
components = (
{
name = _part_bowl;
piece = {
"d,q" = 1;
};
transform = "{1, 0, 0, 1, 31, 7}";
}
);
layerId = "5A1ECF60-5C3D-4C60-84B4-C69E600E0422";
paths = (
{
closed = 1;
nodes = (
"13 784 LINE",
"92 786 OFFCURVE",
"185 798 OFFCURVE",
"258 813 CURVE",
"275 796 LINE",
"272 -80 LINE SMOOTH",
"272 -98 OFFCURVE",
"287 -110 OFFCURVE",
"317 -112 CURVE SMOOTH",
"348 -114 LINE",
"348 -204 LINE",
"175 -200 LINE",
"15 -204 LINE",
"15 -114 LINE",
"43 -110 LINE SMOOTH",
"61 -107 OFFCURVE",
"71 -94 OFFCURVE",
"71 -72 CURVE SMOOTH",
"71 650 LINE SMOOTH",
"71 671 OFFCURVE",
"63 690 OFFCURVE",
"43 692 CURVE SMOOTH",
"13 695 LINE"
);
}
);
width = 606;
}
);
unicode = 00FE;
},
{
color = 1;
glyphname = q;
lastChange = "2018-06-15 20:34:38 +0000";
layers = (
{
anchors = (
{
name = bottom;
position = "{266, 0}";
},
{
name = top;
position = "{266, 500}";
}
);
background = {
components = (
{
name = l;
transform = "{1, 0, 0, 1, 282, 0}";
}
);
};
components = (
{
name = _part_bowl;
transform = "{-1, 0, 0, -1, 464, 497}";
}
);
guideLines = (
{
position = "{597, -167}";
},
{
position = "{596, -202}";
}
);
layerId = "1B5E7594-BD1E-41E1-80E1-0DE241437139";
paths = (
{
closed = 1;
nodes = (
"418 -198 LINE",
"526 -202 LINE",
"526 -167 LINE",
"487 -164 LINE SMOOTH",
"466 -162 OFFCURVE",
"455 -148 OFFCURVE",
"455 -123 CURVE SMOOTH",
"455 374 LINE SMOOTH",
"455 418 OFFCURVE",
"459 449 OFFCURVE",
"476 489 CURVE",
"476 500 LINE",
"444 515 LINE",
"416 489 OFFCURVE",
"390 443 OFFCURVE",
"390 411 CURVE SMOOTH",
"390 -121 LINE SMOOTH",
"390 -145 OFFCURVE",
"379 -160 OFFCURVE",
"356 -162 CURVE SMOOTH",
"302 -166 LINE",
"302 -202 LINE"
);
}
);
width = 539;
},
{
associatedMasterId = "5A1ECF60-5C3D-4C60-84B4-C69E600E0422";
guideLines = (
{
position = "{-219, 516}";
}
);
layerId = "8D1CA527-C9E7-4B61-BD44-A1816776B035";
name = "Jan 1 18, 16:39";
paths = (
{
closed = 1;
nodes = (
"245 -112 LINE",
"293 -107 LINE SMOOTH",
"321 -104 OFFCURVE",
"332 -80 OFFCURVE",
"332 -49 CURVE SMOOTH",
"330 421 LINE",
"363 396 LINE",
"448 516 LINE",
"526 516 LINE",
"525 -65 LINE SMOOTH",
"525 -88 OFFCURVE",
"537 -102 OFFCURVE",
"559 -106 CURVE SMOOTH",
"583 -110 LINE",
"581 -203 LINE",
"420 -200 LINE",
"244 -204 LINE"
);
},
{
closed = 1;
nodes = (
"389 146 LINE",
"349 64 OFFCURVE",
"285 -8 OFFCURVE",
"191 -8 CURVE SMOOTH",
"78 -8 OFFCURVE",
"15 91 OFFCURVE",
"15 236 CURVE SMOOTH",
"15 410 OFFCURVE",
"104 520 OFFCURVE",
"235 520 CURVE SMOOTH",
"355 520 OFFCURVE",
"401 481 OFFCURVE",
"433 391 CURVE",
"347 378 LINE",
"332 394 OFFCURVE",
"313 403 OFFCURVE",
"292 402 CURVE SMOOTH",
"259 400 OFFCURVE",
"240 366 OFFCURVE",
"238 279 CURVE SMOOTH",
"235 169 OFFCURVE",
"252 125 OFFCURVE",
"290 125 CURVE SMOOTH",
"311 125 OFFCURVE",
"330 132 OFFCURVE",
"347 145 CURVE"
);
}
);
width = 583;
},
{
anchors = (
{
name = bottom;
position = "{285, 0}";
},
{
name = top;
position = "{285, 506}";
}
);
background = {
components = (
{
name = o;
transform = "{1, 0, 0, 1, -34, 0}";
}
);
};
components = (
{
name = _part_bowl;
piece = {
"d,q" = 1;
};
transform = "{-1, 0, 0, -1, 571, 505}";
}
);
guideLines = (
{
position = "{-226, 516}";
}
);
layerId = "5A1ECF60-5C3D-4C60-84B4-C69E600E0422";
paths = (
{
closed = 1;
nodes = (
"413 -200 LINE",
"574 -203 LINE",
"576 -110 LINE",
"552 -106 LINE SMOOTH",
"530 -102 OFFCURVE",
"518 -88 OFFCURVE",
"518 -65 CURVE SMOOTH",
"520 286 LINE SMOOTH",
"520 358 OFFCURVE",
"524 406 OFFCURVE",
"556 454 CURVE",
"556 481 LINE",
"471 523 LINE",
"394 514 OFFCURVE",
"327 418 OFFCURVE",
"327 384 CURVE SMOOTH",
"325 -49 LINE SMOOTH",
"325 -80 OFFCURVE",
"314 -104 OFFCURVE",
"286 -107 CURVE SMOOTH",
"238 -112 LINE",
"237 -204 LINE"
);
}
);
width = 581;
},
{
associatedMasterId = "1B5E7594-BD1E-41E1-80E1-0DE241437139";
background = {
components = (
{
name = p;
transform = "{1, 0, 0, 1, -52, 0}";
}
);
};
components = (
{
name = _part_bowl;
transform = "{-1, 0, 0, -1, 534, 499}";
}
);
layerId = "9A02D587-E3D9-4210-883C-CB67A1F7F378";
name = "Mar 30 18, 20:24";
paths = (
{
closed = 1;
nodes = (
"281 -161 LINE",
"335 -157 LINE SMOOTH",
"358 -155 OFFCURVE",
"369 -140 OFFCURVE",
"369 -116 CURVE SMOOTH",
"369 402 LINE SMOOTH",
"369 434 OFFCURVE",
"395 480 OFFCURVE",
"423 506 CURVE",
"455 491 LINE",
"455 480 LINE",
"438 440 OFFCURVE",
"432 409 OFFCURVE",
"432 365 CURVE SMOOTH",
"434 -118 LINE SMOOTH",
"434 -143 OFFCURVE",
"445 -157 OFFCURVE",
"466 -159 CURVE SMOOTH",
"505 -162 LINE",
"505 -204 LINE",
"397 -200 LINE",
"281 -204 LINE"
);
}
);
width = 489;
}
);
unicode = 0071;
},
{
color = 1;
glyphname = r;
lastChange = "2018-06-15 20:38:09 +0000";
layers = (
{
anchors = (
{
name = bottom;
position = "{231, 0}";
},
{
name = top;
position = "{231, 506}";
}
);
background = {
components = (
{
name = n;
}
);
};
components = (
{
name = n_stem;
transform = "{0.9869, 0, 0, 1, 0, 0}";
}
);
layerId = "5A1ECF60-5C3D-4C60-84B4-C69E600E0422";
paths = (
{
closed = 1;
nodes = (
"308 371 OFFCURVE",
"363 375 OFFCURVE",
"411 327 CURVE",
"459 344 LINE",
"470 491 LINE",
"448 519 LINE",
"338 534 OFFCURVE",
"270 440 OFFCURVE",
"242 352 CURVE",
"258 329 LINE"
);
},
{
closed = 1;
nodes = (
"356 89 LINE",
"309 90 LINE",
"308 -3 LINE",
"356 -4 LINE"
);
}
);
width = 457;
},
{
anchors = (
{
name = bottom;
position = "{183, 0}";
},
{
name = top;
position = "{183, 500}";
}
);
associatedMasterId = "1B5E7594-BD1E-41E1-80E1-0DE241437139";
background = {
components = (
{
name = s;
transform = "{1, 0, 0, 1, -33, 17}";
},
{
name = n;
}
);
};
components = (
{
name = n_stem;
transform = "{1, 0, 0, 1, 41, 0}";
}
);
guideLines = (
{
position = "{8, 471}";
}
);
layerId = "CF99B189-6E12-49DE-9BED-A09BF7F69EF4";
name = "Apr 15 18, 15:45";
paths = (
{
closed = 1;
nodes = (
"368 361 LINE",
"379 493 LINE",
"371 506 LINE",
"295 520 OFFCURVE",
"199 439 OFFCURVE",
"171 405 CURVE",
"171 371 LINE",
"280 452 OFFCURVE",
"338 468 OFFCURVE",
"328 361 CURVE"
);
},
{
closed = 1;
nodes = (
"300 -4 LINE",
"300 31 LINE",
"272 31 LINE",
"272 -4 LINE"
);
}
);
width = 379;
},
{
anchors = (
{
name = bottom;
position = "{171, 0}";
},
{
name = top;
position = "{171, 500}";
}
);
background = {
components = (
{
name = n;
transform = "{1, 0, 0, 1, -9, 0}";
}
);
};
components = (
{
name = n_stem;
transform = "{1, 0, 0, 1, 29, 0}";
}
);
guideLines = (
{
position = "{-4, 471}";
}
);
layerId = "1B5E7594-BD1E-41E1-80E1-0DE241437139";
paths = (
{
closed = 1;
nodes = (
"214 413 OFFCURVE",
"296 440 OFFCURVE",
"361 424 CURVE",
"374 431 LINE",
"378 493 LINE",
"366 506 LINE",
"294 506 OFFCURVE",
"187 436 OFFCURVE",
"160 398 CURVE",
"160 371 LINE"
);
},
{
closed = 1;
nodes = (
"288 -4 LINE",
"288 31 LINE",
"260 31 LINE",
"260 -4 LINE"
);
}
);
width = 381;
}
);
unicode = 0072;
},
{
color = 1;
glyphname = s;
lastChange = "2018-06-15 20:40:05 +0000";
layers = (
{
anchors = (
{
name = bottom;
position = "{257, 0}";
},
{
name = top;
position = "{257, 506}";
}
);
guideLines = (
{
position = "{-1133, -13}";
}
);
layerId = "5A1ECF60-5C3D-4C60-84B4-C69E600E0422";
paths = (
{
closed = 1;
nodes = (
"410 -14 OFFCURVE",
"480 47 OFFCURVE",
"489 155 CURVE SMOOTH",
"497 253 OFFCURVE",
"436 290 OFFCURVE",
"302 324 CURVE SMOOTH",
"243 339 OFFCURVE",
"221 354 OFFCURVE",
"221 385 CURVE SMOOTH",
"221 413 OFFCURVE",
"241 428 OFFCURVE",
"270 428 CURVE SMOOTH",
"314 428 OFFCURVE",
"330 411 OFFCURVE",
"324 341 CURVE",
"438 341 LINE",
"466 476 LINE",
"446 504 LINE",
"389 517 OFFCURVE",
"352 523 OFFCURVE",
"267 523 CURVE SMOOTH",
"153 523 OFFCURVE",
"44 482 OFFCURVE",
"38 357 CURVE SMOOTH",
"33 251 OFFCURVE",
"106 203 OFFCURVE",
"214 171 CURVE SMOOTH",
"258 158 OFFCURVE",
"294 148 OFFCURVE",
"294 115 CURVE SMOOTH",
"294 89 OFFCURVE",
"272 79 OFFCURVE",
"242 79 CURVE SMOOTH",
"178 79 OFFCURVE",
"167 94 OFFCURVE",
"175 169 CURVE",
"51 172 LINE",
"24 43 LINE",
"41 12 LINE",
"98 -9 OFFCURVE",
"160 -14 OFFCURVE",
"230 -14 CURVE SMOOTH"
);
}
);
width = 511;
},
{
anchors = (
{
name = bottom;
position = "{237, 0}";
},
{
name = top;
position = "{237, 500}";
}
);
associatedMasterId = "1B5E7594-BD1E-41E1-80E1-0DE241437139";
background = {
components = (
{
name = f;
transform = "{1, 0, 0, 1, 91, -303}";
}
);
};
layerId = "E117E763-EADE-4CB0-81B2-889AC11DF43C";
name = "Apr 15 18, 15:41";
paths = (
{
closed = 1;
nodes = (
"70 457 OFFCURVE",
"161 507 OFFCURVE",
"275 507 CURVE SMOOTH",
"316 507 OFFCURVE",
"346 501 OFFCURVE",
"385 487 CURVE",
"401 416 LINE",
"381 405 LINE",
"261 479 OFFCURVE",
"127 460 OFFCURVE",
"125 371 CURVE SMOOTH",
"124 329 OFFCURVE",
"153 303 OFFCURVE",
"255 277 CURVE SMOOTH",
"344 254 OFFCURVE",
"423 224 OFFCURVE",
"418 138 CURVE SMOOTH",
"412 29 OFFCURVE",
"317 -14 OFFCURVE",
"224 -13 CURVE SMOOTH",
"150 -12 OFFCURVE",
"111 -5 OFFCURVE",
"63 24 CURVE",
"64 122 LINE",
"84 130 LINE",
"117 72 OFFCURVE",
"161 35 OFFCURVE",
"229 34 CURVE SMOOTH",
"300 33 OFFCURVE",
"352 68 OFFCURVE",
"353 121 CURVE SMOOTH",
"354 180 OFFCURVE",
"293 193 OFFCURVE",
"215 212 CURVE SMOOTH",
"137 232 OFFCURVE",
"70 268 OFFCURVE",
"70 360 CURVE SMOOTH"
);
}
);
width = 474;
},
{
anchors = (
{
name = bottom;
position = "{222, 0}";
},
{
name = top;
position = "{222, 500}";
}
);
background = {
components = (
{
name = n;
transform = "{1, 0, 0, 1, -65, 0}";
}
);
};
layerId = "1B5E7594-BD1E-41E1-80E1-0DE241437139";
paths = (
{
closed = 1;
nodes = (
"302 -13 OFFCURVE",
"396 29 OFFCURVE",
"402 138 CURVE SMOOTH",
"407 224 OFFCURVE",
"329 254 OFFCURVE",
"240 277 CURVE SMOOTH",
"138 303 OFFCURVE",
"116 326 OFFCURVE",
"117 368 CURVE SMOOTH",
"118 426 OFFCURVE",
"179 464 OFFCURVE",
"249 463 CURVE SMOOTH",
"317 462 OFFCURVE",
"334 442 OFFCURVE",
"333 366 CURVE",
"371 366 LINE",
"381 476 LINE",
"376 490 LINE",
"351 499 OFFCURVE",
"313 507 OFFCURVE",
"251 507 CURVE SMOOTH",
"151 507 OFFCURVE",
"55 462 OFFCURVE",
"55 360 CURVE SMOOTH",
"55 272 OFFCURVE",
"121 234 OFFCURVE",
"200 213 CURVE SMOOTH",
"278 192 OFFCURVE",
"338 180 OFFCURVE",
"337 121 CURVE SMOOTH",
"336 68 OFFCURVE",
"283 35 OFFCURVE",
"212 35 CURVE SMOOTH",
"112 35 OFFCURVE",
"92 58 OFFCURVE",
"98 148 CURVE",
"55 148 LINE",
"46 37 LINE",
"49 25 LINE",
"97 -4 OFFCURVE",
"144 -13 OFFCURVE",
"209 -13 CURVE SMOOTH"
);
}
);
width = 442;
}
);
unicode = 0073;
},
{
color = 1;
glyphname = germandbls;
lastChange = "2018-06-15 20:12:08 +0000";
layers = (
{
background = {
components = (
{
name = s;
transform = "{1, 0, 0, 1, 214, 0}";
},
{
name = f;
transform = "{1, 0, 0, 1, 12, 0}";
},
{
name = o;
transform = "{1, 0, 0, 0.9, 86, 341}";
}
);
};
layerId = "1B5E7594-BD1E-41E1-80E1-0DE241437139";
paths = (
{
closed = 1;
nodes = (
"180 76 LINE SMOOTH",
"180 50 OFFCURVE",
"179 39 OFFCURVE",
"204 34 CURVE SMOOTH",
"234 28 LINE",
"234 -4 LINE",
"148 0 LINE",
"41 -4 LINE",
"41 25 LINE",
"80 32 LINE SMOOTH",
"104 36 OFFCURVE",
"117 50 OFFCURVE",
"117 74 CURVE SMOOTH",
"117 395 LINE SMOOTH",
"117 421 OFFCURVE",
"115 438 OFFCURVE",
"85 440 CURVE SMOOTH",
"47 442 LINE",
"47 475 LINE",
"120 482 LINE",
"120 523 OFFCURVE",
"121 555 OFFCURVE",
"121 591 CURVE SMOOTH",
"121 675 OFFCURVE",
"181 801 OFFCURVE",
"335 801 CURVE SMOOTH",
"468 801 OFFCURVE",
"518 721 OFFCURVE",
"518 648 CURVE SMOOTH",
"518 490 OFFCURVE",
"338 465 OFFCURVE",
"338 368 CURVE SMOOTH",
"338 322 OFFCURVE",
"355 300 OFFCURVE",
"445 275 CURVE SMOOTH",
"535 250 OFFCURVE",
"619 229 OFFCURVE",
"618 137 CURVE SMOOTH",
"617 29 OFFCURVE",
"511 -13 OFFCURVE",
"422 -13 CURVE SMOOTH",
"357 -13 OFFCURVE",
"315 -3 OFFCURVE",
"267 26 CURVE",
"264 38 LINE",
"279 141 LINE",
"327 141 LINE",
"316 42 OFFCURVE",
"340 34 OFFCURVE",
"423 33 CURVE SMOOTH",
"498 32 OFFCURVE",
"552 70 OFFCURVE",
"553 117 CURVE SMOOTH",
"554 177 OFFCURVE",
"505 190 OFFCURVE",
"427 211 CURVE SMOOTH",
"349 232 OFFCURVE",
"276 265 OFFCURVE",
"276 357 CURVE SMOOTH",
"276 504 OFFCURVE",
"452 496 OFFCURVE",
"452 646 CURVE SMOOTH",
"452 729 OFFCURVE",
"394 759 OFFCURVE",
"328 759 CURVE SMOOTH",
"264 759 OFFCURVE",
"181 721 OFFCURVE",
"181 563 CURVE SMOOTH"
);
}
);
width = 631;
},
{
associatedMasterId = "5A1ECF60-5C3D-4C60-84B4-C69E600E0422";
background = {
components = (
{
name = s;
transform = "{1, 0, 0, 1, 277, 0}";
}
);
};
layerId = "BFE8D0AD-B6F4-4ADA-A49F-D548B81B16FE";
name = "Jan 1 18, 16:24";
paths = (
{
closed = 1;
nodes = (
"275 -2 LINE",
"187 0 LINE",
"16 -2 LINE",
"16 90 LINE",
"38 93 LINE SMOOTH",
"64 97 OFFCURVE",
"76 110 OFFCURVE",
"76 136 CURVE SMOOTH",
"73 351 LINE SMOOTH",
"73 376 OFFCURVE",
"62 391 OFFCURVE",
"38 393 CURVE SMOOTH",
"15 395 LINE",
"15 493 LINE",
"75 498 LINE",
"75 700 OFFCURVE",
"204 803 OFFCURVE",
"405 803 CURVE SMOOTH",
"531 803 OFFCURVE",
"646 762 OFFCURVE",
"646 640 CURVE SMOOTH",
"646 490 OFFCURVE",
"470 480 OFFCURVE",
"453 418 CURVE SMOOTH",
"441 376 OFFCURVE",
"504 364 OFFCURVE",
"575 351 CURVE SMOOTH",
"714 326 OFFCURVE",
"771 264 OFFCURVE",
"762 160 CURVE SMOOTH",
"752 47 OFFCURVE",
"672 -18 OFFCURVE",
"506 -18 CURVE SMOOTH",
"405 -18 OFFCURVE",
"313 6 OFFCURVE",
"293 13 CURVE",
"317 172 LINE",
"451 169 LINE",
"443 93 OFFCURVE",
"454 79 OFFCURVE",
"514 79 CURVE SMOOTH",
"554 79 OFFCURVE",
"577 92 OFFCURVE",
"577 121 CURVE SMOOTH",
"577 167 OFFCURVE",
"517 177 OFFCURVE",
"477 186 CURVE SMOOTH",
"367 212 OFFCURVE",
"298 242 OFFCURVE",
"298 358 CURVE SMOOTH",
"298 518 OFFCURVE",
"430 487 OFFCURVE",
"430 613 CURVE SMOOTH",
"430 661 OFFCURVE",
"411 701 OFFCURVE",
"362 701 CURVE SMOOTH",
"304 701 OFFCURVE",
"270 643 OFFCURVE",
"270 520 CURVE SMOOTH",
"270 139 LINE"
);
}
);
width = 782;
},
{
associatedMasterId = "5A1ECF60-5C3D-4C60-84B4-C69E600E0422";
background = {
components = (
{
name = s;
transform = "{1, 0, 0, 1, 266, 0}";
}
);
};
layerId = "CD3B0CC0-BCE6-45B7-AEE4-647DFA9CE993";
name = "Mar 25 18, 11:37";
paths = (
{
closed = 1;
nodes = (
"270 139 LINE SMOOTH",
"271 117 OFFCURVE",
"272 96 OFFCURVE",
"273 74 CURVE SMOOTH",
"274 37 LINE",
"275 -2 LINE",
"187 0 LINE",
"16 -2 LINE",
"16 90 LINE",
"38 93 LINE SMOOTH",
"64 97 OFFCURVE",
"76 110 OFFCURVE",
"76 136 CURVE SMOOTH",
"73 351 LINE SMOOTH",
"73 376 OFFCURVE",
"62 391 OFFCURVE",
"38 393 CURVE SMOOTH",
"15 395 LINE",
"15 493 LINE",
"75 498 LINE",
"75 511 OFFCURVE",
"75 519 OFFCURVE",
"75 538 CURVE SMOOTH",
"75 706 OFFCURVE",
"224 803 OFFCURVE",
"405 803 CURVE SMOOTH",
"531 803 OFFCURVE",
"646 762 OFFCURVE",
"646 640 CURVE SMOOTH",
"646 448 OFFCURVE",
"481 488 OFFCURVE",
"481 377 CURVE SMOOTH",
"481 355 OFFCURVE",
"505 336 OFFCURVE",
"583 315 CURVE SMOOTH",
"689 287 OFFCURVE",
"753 266 OFFCURVE",
"753 162 CURVE SMOOTH",
"753 49 OFFCURVE",
"652 -18 OFFCURVE",
"506 -18 CURVE SMOOTH",
"425 -18 OFFCURVE",
"349 -2 OFFCURVE",
"312 7 CURVE",
"296 24 LINE",
"317 172 LINE",
"451 169 LINE",
"443 93 OFFCURVE",
"463 70 OFFCURVE",
"503 70 CURVE SMOOTH",
"543 70 OFFCURVE",
"557 92 OFFCURVE",
"557 114 CURVE SMOOTH",
"557 152 OFFCURVE",
"491 166 OFFCURVE",
"451 180 CURVE SMOOTH",
"362 212 OFFCURVE",
"294 242 OFFCURVE",
"298 358 CURVE SMOOTH",
"302 474 OFFCURVE",
"428 457 OFFCURVE",
"430 613 CURVE SMOOTH",
"431 661 OFFCURVE",
"411 701 OFFCURVE",
"362 701 CURVE SMOOTH",
"304 701 OFFCURVE",
"270 643 OFFCURVE",
"270 520 CURVE SMOOTH"
);
}
);
width = 743;
},
{
background = {
components = (
{
name = s;
transform = "{1, 0, 0, 1, 274, 0}";
},
{
name = f;
}
);
};
layerId = "5A1ECF60-5C3D-4C60-84B4-C69E600E0422";
paths = (
{
closed = 1;
nodes = (
"278 139 LINE SMOOTH",
"279 117 OFFCURVE",
"280 96 OFFCURVE",
"281 74 CURVE SMOOTH",
"282 37 LINE",
"285 -2 LINE",
"195 0 LINE",
"28 -2 LINE",
"28 87 LINE",
"49 90 LINE SMOOTH",
"75 94 OFFCURVE",
"84 110 OFFCURVE",
"84 136 CURVE SMOOTH",
"81 361 LINE SMOOTH",
"81 386 OFFCURVE",
"73 403 OFFCURVE",
"49 404 CURVE SMOOTH",
"28 405 LINE",
"28 503 LINE",
"84 508 LINE",
"84 517 OFFCURVE",
"83 526 OFFCURVE",
"83 538 CURVE SMOOTH",
"83 706 OFFCURVE",
"195 801 OFFCURVE",
"378 803 CURVE SMOOTH",
"548 805 OFFCURVE",
"650 754 OFFCURVE",
"648 642 CURVE SMOOTH",
"646 506 OFFCURVE",
"490 463 OFFCURVE",
"490 380 CURVE SMOOTH",
"490 350 OFFCURVE",
"523 329 OFFCURVE",
"591 314 CURVE SMOOTH",
"730 281 OFFCURVE",
"760 249 OFFCURVE",
"760 161 CURVE SMOOTH",
"760 48 OFFCURVE",
"660 -18 OFFCURVE",
"514 -18 CURVE SMOOTH",
"433 -18 OFFCURVE",
"357 -2 OFFCURVE",
"320 7 CURVE",
"304 24 LINE",
"325 172 LINE",
"459 169 LINE",
"451 93 OFFCURVE",
"471 70 OFFCURVE",
"511 70 CURVE SMOOTH",
"551 70 OFFCURVE",
"565 90 OFFCURVE",
"565 119 CURVE SMOOTH",
"565 145 OFFCURVE",
"525 159 OFFCURVE",
"485 172 CURVE SMOOTH",
"378 207 OFFCURVE",
"305 234 OFFCURVE",
"309 350 CURVE SMOOTH",
"314 479 OFFCURVE",
"429 477 OFFCURVE",
"429 608 CURVE SMOOTH",
"429 672 OFFCURVE",
"413 697 OFFCURVE",
"363 697 CURVE SMOOTH",
"310 697 OFFCURVE",
"278 643 OFFCURVE",
"278 520 CURVE SMOOTH"
);
}
);
width = 752;
},
{
associatedMasterId = "5A1ECF60-5C3D-4C60-84B4-C69E600E0422";
background = {
components = (
{
name = s;
transform = "{1, 0, 0, 1, 266, 0}";
},
{
name = o;
transform = "{1, 0, 0, 1, 59, 286}";
}
);
};
layerId = "CAFA1AC4-23F6-4040-B28B-C922DCA5C4FC";
name = "Mar 25 18, 11:45";
paths = (
{
closed = 1;
nodes = (
"270 139 LINE SMOOTH",
"271 117 OFFCURVE",
"272 96 OFFCURVE",
"273 74 CURVE SMOOTH",
"274 37 LINE",
"275 -2 LINE",
"187 0 LINE",
"16 -2 LINE",
"16 90 LINE",
"38 93 LINE SMOOTH",
"64 97 OFFCURVE",
"76 110 OFFCURVE",
"76 136 CURVE SMOOTH",
"73 351 LINE SMOOTH",
"73 376 OFFCURVE",
"62 391 OFFCURVE",
"38 393 CURVE SMOOTH",
"15 395 LINE",
"15 493 LINE",
"75 498 LINE",
"75 511 OFFCURVE",
"75 519 OFFCURVE",
"75 538 CURVE SMOOTH",
"75 706 OFFCURVE",
"224 803 OFFCURVE",
"405 803 CURVE SMOOTH",
"531 803 OFFCURVE",
"646 754 OFFCURVE",
"646 642 CURVE SMOOTH",
"646 493 OFFCURVE",
"474 452 OFFCURVE",
"474 380 CURVE SMOOTH",
"474 348 OFFCURVE",
"504 332 OFFCURVE",
"583 314 CURVE SMOOTH",
"722 281 OFFCURVE",
"752 249 OFFCURVE",
"752 161 CURVE SMOOTH",
"752 48 OFFCURVE",
"652 -18 OFFCURVE",
"506 -18 CURVE SMOOTH",
"425 -18 OFFCURVE",
"349 -2 OFFCURVE",
"312 7 CURVE",
"296 24 LINE",
"317 172 LINE",
"451 169 LINE",
"443 93 OFFCURVE",
"463 70 OFFCURVE",
"503 70 CURVE SMOOTH",
"543 70 OFFCURVE",
"557 90 OFFCURVE",
"557 119 CURVE SMOOTH",
"557 145 OFFCURVE",
"517 159 OFFCURVE",
"477 172 CURVE SMOOTH",
"370 207 OFFCURVE",
"300 234 OFFCURVE",
"300 350 CURVE SMOOTH",
"300 483 OFFCURVE",
"426 465 OFFCURVE",
"426 621 CURVE SMOOTH",
"426 672 OFFCURVE",
"411 701 OFFCURVE",
"356 701 CURVE SMOOTH",
"304 701 OFFCURVE",
"270 643 OFFCURVE",
"270 520 CURVE SMOOTH"
);
}
);
width = 743;
},
{
associatedMasterId = "1B5E7594-BD1E-41E1-80E1-0DE241437139";
background = {
components = (
{
name = s;
transform = "{1, 0, 0, 1, 167, 0}";
},
{
name = f;
transform = "{1, 0, 0, 1, -35, 0}";
},
{
name = o;
transform = "{1, 0, 0, 0.9, 39, 341}";
}
);
};
layerId = "8BBCE59A-93C3-4EE5-B621-C9C76657827D";
name = "Mar 30 18, 20:24";
paths = (
{
closed = 1;
nodes = (
"133 76 LINE SMOOTH",
"133 50 OFFCURVE",
"132 39 OFFCURVE",
"157 34 CURVE SMOOTH",
"187 28 LINE",
"187 -4 LINE",
"101 0 LINE",
"-6 -4 LINE",
"-6 25 LINE",
"33 32 LINE SMOOTH",
"57 36 OFFCURVE",
"70 50 OFFCURVE",
"70 74 CURVE SMOOTH",
"70 395 LINE SMOOTH",
"70 421 OFFCURVE",
"68 438 OFFCURVE",
"38 440 CURVE SMOOTH",
"0 442 LINE",
"0 475 LINE",
"73 482 LINE",
"73 523 OFFCURVE",
"74 555 OFFCURVE",
"74 591 CURVE SMOOTH",
"74 675 OFFCURVE",
"134 801 OFFCURVE",
"288 801 CURVE SMOOTH",
"421 801 OFFCURVE",
"471 721 OFFCURVE",
"471 648 CURVE SMOOTH",
"471 490 OFFCURVE",
"291 465 OFFCURVE",
"291 368 CURVE SMOOTH",
"291 322 OFFCURVE",
"308 300 OFFCURVE",
"398 275 CURVE SMOOTH",
"488 250 OFFCURVE",
"572 229 OFFCURVE",
"571 137 CURVE SMOOTH",
"570 29 OFFCURVE",
"464 -13 OFFCURVE",
"375 -13 CURVE SMOOTH",
"310 -13 OFFCURVE",
"268 -3 OFFCURVE",
"220 26 CURVE",
"217 38 LINE",
"232 141 LINE",
"280 141 LINE",
"269 42 OFFCURVE",
"293 34 OFFCURVE",
"376 33 CURVE SMOOTH",
"451 32 OFFCURVE",
"505 70 OFFCURVE",
"506 117 CURVE SMOOTH",
"507 177 OFFCURVE",
"458 190 OFFCURVE",
"380 211 CURVE SMOOTH",
"302 232 OFFCURVE",
"229 265 OFFCURVE",
"229 357 CURVE SMOOTH",
"229 504 OFFCURVE",
"405 496 OFFCURVE",
"405 646 CURVE SMOOTH",
"405 729 OFFCURVE",
"347 759 OFFCURVE",
"281 759 CURVE SMOOTH",
"217 759 OFFCURVE",
"134 721 OFFCURVE",
"134 563 CURVE SMOOTH"
);
}
);
width = 572;
}
);
unicode = 00DF;
},
{
color = 1;
glyphname = t;
lastChange = "2018-06-15 20:34:38 +0000";
layers = (
{
anchors = (
{
name = bottom;
position = "{149, 0}";
},
{
name = center;
position = "{149, 250}";
},
{
name = top;
position = "{149, 500}";
},
{
name = topright;
position = "{292, 500}";
}
);
guideLines = (
{
position = "{738, -5}";
},
{
position = "{514, 497}";
}
);
layerId = "1B5E7594-BD1E-41E1-80E1-0DE241437139";
paths = (
{
closed = 1;
nodes = (
"281 47 LINE",
"272 68 LINE",
"229 50 LINE SMOOTH",
"181 31 OFFCURVE",
"153 44 OFFCURVE",
"154 109 CURVE SMOOTH",
"157 453 LINE",
"286 451 LINE",
"286 492 LINE",
"278 498 LINE",
"155 497 LINE",
"155 630 LINE",
"147 640 LINE",
"114 640 LINE",
"96 498 LINE",
"21 498 LINE",
"21 459 LINE",
"61 458 LINE SMOOTH",
"82 457 OFFCURVE",
"91 441 OFFCURVE",
"91 420 CURVE SMOOTH",
"87 105 LINE SMOOTH",
"86 7 OFFCURVE",
"156 -28 OFFCURVE",
"257 3 CURVE"
);
}
);
width = 306;
},
{
anchors = (
{
name = bottom;
position = "{184, 0}";
},
{
name = center;
position = "{184, 253}";
},
{
name = top;
position = "{184, 506}";
},
{
name = topright;
position = "{348, 506}";
}
);
background = {
components = (
{
name = n;
transform = "{1, 0, 0, 1, 162, 0}";
}
);
};
guideLines = (
{
position = "{458, 495}";
}
);
layerId = "5A1ECF60-5C3D-4C60-84B4-C69E600E0422";
paths = (
{
closed = 1;
nodes = (
"354 106 LINE",
"336 136 LINE",
"316 130 LINE SMOOTH",
"266 115 OFFCURVE",
"254 139 OFFCURVE",
"255 178 CURVE SMOOTH",
"259 397 LINE",
"354 394 LINE",
"355 488 LINE",
"340 506 LINE",
"258 506 LINE",
"258 648 LINE",
"239 670 LINE",
"147 670 LINE",
"95 506 LINE",
"15 506 LINE",
"15 403 LINE",
"30 402 LINE SMOOTH",
"54 400 OFFCURVE",
"66 392 OFFCURVE",
"65 368 CURVE SMOOTH",
"58 139 LINE SMOOTH",
"55 52 OFFCURVE",
"110 -51 OFFCURVE",
"307 2 CURVE"
);
}
);
width = 369;
}
);
unicode = 0074;
},
{
color = 1;
glyphname = u;
lastChange = "2018-06-15 20:34:38 +0000";
layers = (
{
anchors = (
{
name = bottom;
position = "{281, 0}";
},
{
name = ogonek;
position = "{560, 10}";
},
{
name = top;
position = "{291, 506}";
},
{
name = topright;
position = "{602, 506}";
}
);
background = {
components = (
{
name = n;
transform = "{-1, 0, 0, -1, 628, 507}";
}
);
};
guideLines = (
{
position = "{-6, 125}";
},
{
position = "{-50, -13}";
}
);
layerId = "5A1ECF60-5C3D-4C60-84B4-C69E600E0422";
paths = (
{
closed = 1;
nodes = (
"272 -13 OFFCURVE",
"331 10 OFFCURVE",
"385 101 CURVE",
"396 169 LINE",
"297 89 OFFCURVE",
"261 131 OFFCURVE",
"261 185 CURVE SMOOTH",
"262 502 LINE",
"243 523 LINE",
"171 508 OFFCURVE",
"97 504 OFFCURVE",
"11 501 CURVE",
"11 407 LINE",
"35 405 LINE SMOOTH",
"56 403 OFFCURVE",
"69 391 OFFCURVE",
"68 368 CURVE SMOOTH",
"61 145 LINE SMOOTH",
"58 43 OFFCURVE",
"108 -13 OFFCURVE",
"200 -13 CURVE SMOOTH"
);
},
{
closed = 1;
nodes = (
"625 108 LINE",
"608 136 LINE",
"585 129 LINE SMOOTH",
"562 122 OFFCURVE",
"545 131 OFFCURVE",
"545 157 CURVE SMOOTH",
"550 502 LINE",
"530 523 LINE",
"452 510 OFFCURVE",
"371 504 OFFCURVE",
"293 501 CURVE",
"293 407 LINE",
"319 404 LINE SMOOTH",
"341 401 OFFCURVE",
"349 386 OFFCURVE",
"349 363 CURVE SMOOTH",
"347 118 LINE SMOOTH",
"346 10 OFFCURVE",
"429 -38 OFFCURVE",
"576 0 CURVE"
);
}
);
width = 622;
},
{
anchors = (
{
name = bottom;
position = "{290, 0}";
},
{
name = ogonek;
position = "{530, 10}";
},
{
name = top;
position = "{290, 500}";
},
{
name = topright;
position = "{570, 500}";
}
);
background = {
components = (
{
name = n;
transform = "{1, 0, 0, 1, 302, 0}";
}
);
};
layerId = "1B5E7594-BD1E-41E1-80E1-0DE241437139";
paths = (
{
closed = 1;
nodes = (
"295 -11 OFFCURVE",
"367 18 OFFCURVE",
"432 77 CURVE",
"428 107 LINE",
"245 3 OFFCURVE",
"157 44 OFFCURVE",
"158 147 CURVE SMOOTH",
"162 500 LINE",
"153 506 LINE",
"110 500 OFFCURVE",
"61 497 OFFCURVE",
"16 496 CURVE",
"16 462 LINE",
"47 460 LINE SMOOTH",
"83 458 OFFCURVE",
"95 442 OFFCURVE",
"94 401 CURVE SMOOTH",
"90 131 LINE SMOOTH",
"89 39 OFFCURVE",
"149 -11 OFFCURVE",
"233 -11 CURVE SMOOTH"
);
},
{
closed = 1;
nodes = (
"569 48 LINE",
"559 69 LINE",
"512 51 LINE SMOOTH",
"486 41 OFFCURVE",
"471 38 OFFCURVE",
"472 76 CURVE SMOOTH",
"478 500 LINE",
"469 506 LINE",
"424 499 OFFCURVE",
"381 497 OFFCURVE",
"332 497 CURVE",
"332 462 LINE",
"375 459 LINE SMOOTH",
"401 457 OFFCURVE",
"409 441 OFFCURVE",
"409 415 CURVE SMOOTH",
"406 106 LINE SMOOTH",
"405 52 OFFCURVE",
"429 -40 OFFCURVE",
"544 4 CURVE"
);
}
);
width = 577;
},
{
associatedMasterId = "1B5E7594-BD1E-41E1-80E1-0DE241437139";
background = {
components = (
{
name = t;
transform = "{1, 0, 0, 1, 305, 0}";
}
);
};
layerId = "61492818-0997-4729-BF61-F9DE1467FD80";
name = "Mar 22 18, 19:09";
paths = (
{
closed = 1;
nodes = (
"29 484 LINE",
"74 488 OFFCURVE",
"117 494 OFFCURVE",
"160 502 CURVE",
"169 498 LINE",
"165 163 LINE SMOOTH",
"164 82 OFFCURVE",
"167 -9 OFFCURVE",
"418 116 CURVE",
"409 73 LINE",
"212 -60 OFFCURVE",
"93 -22 OFFCURVE",
"97 132 CURVE SMOOTH",
"103 394 LINE SMOOTH",
"104 435 OFFCURVE",
"97 447 OFFCURVE",
"53 449 CURVE SMOOTH",
"29 450 LINE"
);
},
{
closed = 1;
nodes = (
"311 483 LINE",
"360 487 OFFCURVE",
"406 494 OFFCURVE",
"451 502 CURVE",
"460 498 LINE",
"454 98 LINE SMOOTH",
"453 56 OFFCURVE",
"466 49 OFFCURVE",
"494 54 CURVE SMOOTH",
"542 63 LINE",
"546 53 LINE",
"527 0 LINE",
"412 -28 OFFCURVE",
"389 52 OFFCURVE",
"390 106 CURVE SMOOTH",
"393 392 LINE SMOOTH",
"393 430 OFFCURVE",
"381 445 OFFCURVE",
"338 448 CURVE SMOOTH",
"311 450 LINE"
);
}
);
width = 565;
},
{
associatedMasterId = "1B5E7594-BD1E-41E1-80E1-0DE241437139";
background = {
components = (
{
name = n;
transform = "{1, 0, 0, 1, -40, 0}";
}
);
};
layerId = "CB260135-EE11-4079-B6E4-69C8AF431661";
name = "Mar 30 18, 20:24";
paths = (
{
closed = 1;
nodes = (
"-11 471 LINE",
"34 479 OFFCURVE",
"85 495 OFFCURVE",
"128 506 CURVE",
"137 500 LINE",
"134 147 LINE SMOOTH",
"133 45 OFFCURVE",
"233 -1 OFFCURVE",
"407 111 CURVE",
"409 77 LINE",
"344 18 OFFCURVE",
"272 -10 OFFCURVE",
"210 -10 CURVE SMOOTH",
"126 -10 OFFCURVE",
"63 40 OFFCURVE",
"65 131 CURVE SMOOTH",
"71 389 LINE SMOOTH",
"72 430 OFFCURVE",
"57 439 OFFCURVE",
"21 441 CURVE SMOOTH",
"-11 443 LINE"
);
},
{
closed = 1;
nodes = (
"307 471 LINE",
"356 480 OFFCURVE",
"400 494 OFFCURVE",
"445 506 CURVE",
"454 500 LINE",
"448 75 LINE SMOOTH",
"447 37 OFFCURVE",
"462 40 OFFCURVE",
"488 50 CURVE SMOOTH",
"535 68 LINE",
"545 47 LINE",
"520 3 LINE",
"405 -41 OFFCURVE",
"381 52 OFFCURVE",
"382 106 CURVE SMOOTH",
"387 397 LINE SMOOTH",
"387 423 OFFCURVE",
"376 438 OFFCURVE",
"350 440 CURVE SMOOTH",
"307 443 LINE"
);
}
);
width = 534;
}
);
unicode = 0075;
},
{
color = 1;
glyphname = v;
lastChange = "2018-06-15 20:34:38 +0000";
layers = (
{
anchors = (
{
name = bottom;
position = "{249, 0}";
},
{
name = top;
position = "{249, 500}";
}
);
background = {
components = (
{
name = x;
transform = "{1, 0, 0, 1, -28, 0}";
}
);
};
guideLines = (
{
position = "{514, 497}";
}
);
layerId = "1B5E7594-BD1E-41E1-80E1-0DE241437139";
paths = (
{
closed = 1;
nodes = (
"241 -5 OFFCURVE",
"262 1 OFFCURVE",
"284 8 CURVE",
"450 435 LINE SMOOTH",
"456 451 OFFCURVE",
"465 460 OFFCURVE",
"483 460 CURVE SMOOTH",
"498 460 LINE",
"498 497 LINE",
"416 494 LINE",
"305 497 LINE",
"305 457 LINE",
"349 457 LINE SMOOTH",
"391 457 OFFCURVE",
"394 437 OFFCURVE",
"385 412 CURVE SMOOTH",
"262 77 LINE",
"255 77 LINE",
"136 419 LINE SMOOTH",
"129 440 OFFCURVE",
"141 454 OFFCURVE",
"166 456 CURVE SMOOTH",
"197 458 LINE",
"196 497 LINE",
"89 493 LINE",
"-2 497 LINE",
"-2 460 LINE",
"20 458 LINE SMOOTH",
"41 456 OFFCURVE",
"51 441 OFFCURVE",
"57 424 CURVE SMOOTH",
"219 -12 LINE"
);
}
);
width = 497;
},
{
associatedMasterId = "5A1ECF60-5C3D-4C60-84B4-C69E600E0422";
background = {
components = (
{
name = k;
transform = "{1, 0, 0, 1, -48, 0}";
}
);
};
layerId = "86DAB389-954B-4378-A7E5-7403AF0979FB";
name = "Mar 30 18, 17:23";
paths = (
{
closed = 1;
nodes = (
"32 505 LINE",
"127 504 LINE",
"278 507 LINE",
"278 410 LINE",
"257 408 LINE SMOOTH",
"240 406 OFFCURVE",
"245 380 OFFCURVE",
"248 361 CURVE SMOOTH",
"280 129 LINE",
"290 129 LINE",
"339 351 LINE SMOOTH",
"347 385 OFFCURVE",
"346 406 OFFCURVE",
"326 408 CURVE SMOOTH",
"304 410 LINE",
"304 506 LINE",
"438 503 LINE",
"537 507 LINE",
"537 410 LINE",
"505 406 LINE SMOOTH",
"486 404 OFFCURVE",
"474 382 OFFCURVE",
"468 359 CURVE SMOOTH",
"376 6 LINE",
"306 6 OFFCURVE",
"205 -1 OFFCURVE",
"135 -10 CURVE",
"39 372 LINE SMOOTH",
"32 400 OFFCURVE",
"31 403 OFFCURVE",
"19 438 CURVE"
);
}
);
width = 535;
},
{
anchors = (
{
name = bottom;
position = "{265, 0}";
},
{
name = top;
position = "{265, 506}";
}
);
layerId = "5A1ECF60-5C3D-4C60-84B4-C69E600E0422";
paths = (
{
closed = 1;
nodes = (
"203 -1 OFFCURVE",
"314 6 OFFCURVE",
"384 6 CURVE",
"476 359 LINE SMOOTH",
"482 382 OFFCURVE",
"494 403 OFFCURVE",
"513 406 CURVE SMOOTH",
"535 410 LINE",
"535 506 LINE",
"441 503 LINE",
"312 506 LINE",
"312 410 LINE",
"334 408 LINE SMOOTH",
"354 406 OFFCURVE",
"355 385 OFFCURVE",
"347 351 CURVE SMOOTH",
"298 129 LINE",
"288 129 LINE",
"256 361 LINE SMOOTH",
"253 380 OFFCURVE",
"248 406 OFFCURVE",
"265 408 CURVE SMOOTH",
"286 410 LINE",
"286 506 LINE",
"130 503 LINE",
"-12 506 LINE",
"-12 408 LINE",
"8 405 LINE SMOOTH",
"23 403 OFFCURVE",
"32 391 OFFCURVE",
"37 372 CURVE SMOOTH",
"133 -10 LINE"
);
}
);
width = 519;
}
);
unicode = 0076;
},
{
color = 1;
glyphname = w;
lastChange = "2018-06-15 20:34:38 +0000";
layers = (
{
anchors = (
{
name = bottom;
position = "{393, 0}";
},
{
name = top;
position = "{391, 500}";
}
);
background = {
components = (
{
name = v;
transform = "{1, 0, 0, 1, -15, 0}";
},
{
name = v;
transform = "{1, 0, 0, 1, 285, 0}";
}
);
};
guideLines = (
{
position = "{514, 497}";
}
);
layerId = "1B5E7594-BD1E-41E1-80E1-0DE241437139";
paths = (
{
closed = 1;
nodes = (
"238 -5 OFFCURVE",
"259 0 OFFCURVE",
"282 7 CURVE",
"394 309 LINE",
"508 -12 LINE",
"530 -5 OFFCURVE",
"553 1 OFFCURVE",
"575 8 CURVE",
"737 437 LINE SMOOTH",
"742 450 OFFCURVE",
"752 457 OFFCURVE",
"766 457 CURVE SMOOTH",
"781 457 LINE",
"781 497 LINE",
"706 495 LINE",
"572 497 LINE",
"572 457 LINE",
"637 456 LINE SMOOTH",
"684 455 OFFCURVE",
"681 422 OFFCURVE",
"670 392 CURVE SMOOTH",
"552 73 LINE",
"545 73 LINE",
"399 506 LINE",
"338 487 LINE",
"332 472 LINE",
"365 384 LINE",
"257 73 LINE",
"251 73 LINE",
"129 405 LINE SMOOTH",
"118 434 OFFCURVE",
"131 455 OFFCURVE",
"163 457 CURVE SMOOTH",
"226 461 LINE",
"226 497 LINE",
"87 495 LINE",
"0 496 LINE",
"0 459 LINE",
"19 458 LINE SMOOTH",
"40 457 OFFCURVE",
"47 444 OFFCURVE",
"54 426 CURVE SMOOTH",
"215 -12 LINE"
);
}
);
width = 782;
},
{
anchors = (
{
name = bottom;
position = "{389, 0}";
},
{
name = top;
position = "{389, 506}";
}
);
background = {
components = (
{
name = v;
transform = "{1, 0, 0, 1, -3, 0}";
},
{
name = v;
transform = "{1, 0, 0, 1, 291, 0}";
}
);
};
guideLines = (
{
position = "{332, 130}";
}
);
layerId = "5A1ECF60-5C3D-4C60-84B4-C69E600E0422";
paths = (
{
closed = 1;
nodes = (
"202 -6 OFFCURVE",
"281 1 OFFCURVE",
"358 3 CURVE",
"399 149 LINE",
"439 -9 LINE",
"508 -1 OFFCURVE",
"597 5 OFFCURVE",
"666 7 CURVE",
"756 359 LINE SMOOTH",
"761 379 OFFCURVE",
"778 402 OFFCURVE",
"797 406 CURVE SMOOTH",
"815 410 LINE",
"815 506 LINE",
"698 503 LINE",
"566 507 LINE",
"566 410 LINE",
"597 407 LINE SMOOTH",
"623 404 OFFCURVE",
"641 386 OFFCURVE",
"631 341 CURVE SMOOTH",
"582 130 LINE",
"571 130 LINE",
"508 514 LINE",
"343 494 LINE",
"321 460 LINE",
"345 359 LINE",
"287 130 LINE",
"274 130 LINE",
"238 370 LINE SMOOTH",
"235 387 OFFCURVE",
"244 406 OFFCURVE",
"263 408 CURVE SMOOTH",
"286 410 LINE",
"286 507 LINE",
"136 503 LINE",
"-11 506 LINE",
"-11 410 LINE",
"1 408 LINE SMOOTH",
"18 405 OFFCURVE",
"30 397 OFFCURVE",
"36 371 CURVE SMOOTH",
"130 -13 LINE"
);
}
);
width = 799;
},
{
associatedMasterId = "1B5E7594-BD1E-41E1-80E1-0DE241437139";
background = {
paths = (
{
closed = 1;
nodes = (
"439 449 LINE",
"270 8 LINE",
"205 -12 LINE",
"70 438 LINE",
"150 435 LINE",
"228 133 LINE",
"244 60 LINE",
"367 426 LINE"
);
}
);
};
layerId = "757D154B-913C-4F51-93A1-325FE9A59F06";
name = "Mar 25 18, 18:59";
paths = (
{
closed = 1;
nodes = (
"11 504 LINE",
"98 500 LINE",
"227 502 LINE",
"227 469 LINE",
"177 466 LINE SMOOTH",
"145 464 OFFCURVE",
"142 443 OFFCURVE",
"150 411 CURVE SMOOTH",
"221 133 LINE",
"236 63 LINE",
"331 480 LINE",
"406 500 LINE",
"498 133 LINE",
"513 63 LINE",
"615 404 LINE SMOOTH",
"624 434 OFFCURVE",
"629 467 OFFCURVE",
"582 468 CURVE SMOOTH",
"537 469 LINE",
"537 502 LINE",
"661 500 LINE",
"736 504 LINE",
"736 469 LINE",
"721 469 LINE SMOOTH",
"707 469 OFFCURVE",
"697 462 OFFCURVE",
"692 449 CURVE SMOOTH",
"539 8 LINE",
"517 1 OFFCURVE",
"496 -5 OFFCURVE",
"474 -12 CURVE",
"360 380 LINE",
"267 8 LINE",
"244 1 OFFCURVE",
"220 -5 OFFCURVE",
"197 -12 CURVE",
"65 434 LINE SMOOTH",
"60 452 OFFCURVE",
"51 465 OFFCURVE",
"30 466 CURVE SMOOTH",
"11 467 LINE"
);
}
);
width = 760;
},
{
associatedMasterId = "1B5E7594-BD1E-41E1-80E1-0DE241437139";
background = {
paths = (
{
closed = 1;
nodes = (
"594 356 OFFCURVE",
"561 233 OFFCURVE",
"521 68 CURVE",
"512 143 LINE",
"492 214 OFFCURVE",
"439 380 OFFCURVE",
"396 503 CURVE",
"374 503 OFFCURVE",
"342 499 OFFCURVE",
"320 492 CURVE",
"287 370 OFFCURVE",
"249 212 OFFCURVE",
"216 65 CURVE",
"209 143 LINE",
"178 247 OFFCURVE",
"142 357 OFFCURVE",
"115 436 CURVE",
"147 438 OFFCURVE",
"179 445 OFFCURVE",
"198 451 CURVE",
"198 467 OFFCURVE",
"196 489 OFFCURVE",
"192 499 CURVE",
"163 498 OFFCURVE",
"102 497 OFFCURVE",
"77 497 CURVE SMOOTH",
"34 497 OFFCURVE",
"-8 499 OFFCURVE",
"-37 499 CURVE",
"-42 486 OFFCURVE",
"-44 468 OFFCURVE",
"-44 451 CURVE",
"-27 448 OFFCURVE",
"3 442 OFFCURVE",
"23 434 CURVE",
"51 361 OFFCURVE",
"137 94 OFFCURVE",
"166 -2 CURVE",
"206 -2 OFFCURVE",
"239 5 OFFCURVE",
"258 12 CURVE",
"287 144 OFFCURVE",
"325 298 OFFCURVE",
"351 403 CURVE",
"369 323 LINE",
"398 238 OFFCURVE",
"437 125 OFFCURVE",
"475 -2 CURVE",
"522 -2 OFFCURVE",
"549 5 OFFCURVE",
"567 12 CURVE",
"602 144 OFFCURVE",
"672 376 OFFCURVE",
"691 433 CURVE",
"716 436 OFFCURVE",
"745 444 OFFCURVE",
"762 451 CURVE",
"762 467 OFFCURVE",
"759 487 OFFCURVE",
"755 499 CURVE",
"721 498 OFFCURVE",
"668 497 OFFCURVE",
"647 497 CURVE SMOOTH",
"616 497 OFFCURVE",
"577 499 OFFCURVE",
"544 499 CURVE",
"539 488 OFFCURVE",
"537 468 OFFCURVE",
"537 451 CURVE",
"561 449 OFFCURVE",
"593 443 OFFCURVE",
"618 436 CURVE"
);
}
);
};
layerId = "AD98A69C-6261-416E-BDC0-9DEFF2FF95CD";
name = "Mar 30 18, 20:24";
paths = (
{
closed = 1;
nodes = (
"-14 499 LINE",
"73 498 LINE",
"212 500 LINE",
"212 464 LINE",
"149 460 LINE SMOOTH",
"117 458 OFFCURVE",
"107 437 OFFCURVE",
"115 408 CURVE SMOOTH",
"211 73 LINE",
"216 73 LINE",
"326 488 LINE",
"396 506 LINE",
"517 73 LINE",
"522 73 LINE",
"611 395 LINE SMOOTH",
"619 425 OFFCURVE",
"625 458 OFFCURVE",
"578 459 CURVE SMOOTH",
"513 460 LINE",
"513 500 LINE",
"647 498 LINE",
"722 500 LINE",
"722 460 LINE",
"707 460 LINE SMOOTH",
"693 460 OFFCURVE",
"682 453 OFFCURVE",
"678 440 CURVE SMOOTH",
"546 8 LINE",
"524 1 OFFCURVE",
"501 -5 OFFCURVE",
"479 -12 CURVE",
"360 405 LINE",
"249 8 LINE",
"226 1 OFFCURVE",
"197 -5 OFFCURVE",
"174 -12 CURVE",
"40 429 LINE SMOOTH",
"35 447 OFFCURVE",
"26 460 OFFCURVE",
"5 461 CURVE SMOOTH",
"-14 462 LINE"
);
}
);
width = 710;
}
);
unicode = 0077;
},
{
color = 1;
glyphname = x;
lastChange = "2018-06-15 20:34:38 +0000";
layers = (
{
anchors = (
{
name = bottom;
position = "{284, 0}";
},
{
name = top;
position = "{284, 506}";
}
);
background = {
components = (
{
name = n;
transform = "{1, 0, 0, 1, 2, 0}";
}
);
};
guideLines = (
{
position = "{540, 96}";
}
);
layerId = "5A1ECF60-5C3D-4C60-84B4-C69E600E0422";
paths = (
{
closed = 1;
nodes = (
"560 90 LINE",
"541 92 LINE SMOOTH",
"523 94 OFFCURVE",
"514 106 OFFCURVE",
"501 123 CURVE SMOOTH",
"379 276 LINE",
"342 295 LINE",
"286 372 LINE SMOOTH",
"276 386 OFFCURVE",
"279 405 OFFCURVE",
"295 407 CURVE SMOOTH",
"312 409 LINE",
"309 510 LINE",
"201 507 LINE",
"12 507 LINE",
"16 408 LINE",
"33 406 LINE SMOOTH",
"56 403 OFFCURVE",
"68 386 OFFCURVE",
"89 357 CURVE SMOOTH",
"179 232 LINE",
"207 226 LINE",
"290 132 LINE SMOOTH",
"307 113 OFFCURVE",
"304 94 OFFCURVE",
"284 92 CURVE SMOOTH",
"267 90 LINE",
"269 -2 LINE",
"433 1 LINE",
"563 -2 LINE"
);
},
{
closed = 1;
nodes = (
"103 0 LINE",
"244 -3 LINE",
"244 89 LINE",
"219 91 LINE SMOOTH",
"199 93 OFFCURVE",
"200 114 OFFCURVE",
"216 132 CURVE SMOOTH",
"300 224 LINE",
"212 286 LINE",
"76 131 LINE SMOOTH",
"59 112 OFFCURVE",
"45 93 OFFCURVE",
"24 91 CURVE SMOOTH",
"7 89 LINE",
"7 -3 LINE"
);
},
{
closed = 1;
nodes = (
"488 367 LINE SMOOTH",
"504 385 OFFCURVE",
"513 403 OFFCURVE",
"535 405 CURVE SMOOTH",
"553 407 LINE",
"553 506 LINE",
"430 506 LINE",
"336 509 LINE",
"336 407 LINE",
"359 405 LINE SMOOTH",
"376 404 OFFCURVE",
"373 382 OFFCURVE",
"361 369 CURVE SMOOTH",
"274 276 LINE",
"345 213 LINE"
);
}
);
width = 569;
},
{
anchors = (
{
name = bottom;
position = "{271, 0}";
},
{
name = top;
position = "{271, 500}";
}
);
background = {
components = (
{
name = z;
transform = "{-0.99756, -0.06976, -0.06976, 0.99756, 508, 19}";
}
);
};
guideLines = (
{
position = "{514, 497}";
}
);
layerId = "1B5E7594-BD1E-41E1-80E1-0DE241437139";
paths = (
{
closed = 1;
nodes = (
"527 31 LINE",
"509 32 LINE SMOOTH",
"490 33 OFFCURVE",
"476 52 OFFCURVE",
"465 66 CURVE SMOOTH",
"305 265 LINE",
"286 277 LINE",
"179 412 LINE SMOOTH",
"165 429 OFFCURVE",
"174 455 OFFCURVE",
"200 457 CURVE SMOOTH",
"242 461 LINE",
"242 497 LINE",
"122 493 LINE",
"21 497 LINE",
"21 459 LINE",
"43 457 LINE SMOOTH",
"70 455 OFFCURVE",
"80 437 OFFCURVE",
"90 425 CURVE SMOOTH",
"235 240 LINE",
"257 223 LINE",
"371 81 LINE SMOOTH",
"394 52 OFFCURVE",
"387 38 OFFCURVE",
"351 34 CURVE SMOOTH",
"324 31 LINE",
"323 -3 LINE",
"422 0 LINE",
"526 -4 LINE"
);
},
{
closed = 1;
nodes = (
"125 0 LINE",
"237 -3 LINE",
"237 29 LINE",
"195 34 LINE SMOOTH",
"162 38 OFFCURVE",
"151 58 OFFCURVE",
"172 86 CURVE SMOOTH",
"289 242 LINE",
"242 261 LINE",
"111 88 LINE SMOOTH",
"92 63 OFFCURVE",
"70 41 OFFCURVE",
"52 38 CURVE SMOOTH",
"19 32 LINE",
"19 -4 LINE"
);
},
{
closed = 1;
nodes = (
"433 415 LINE SMOOTH",
"449 436 OFFCURVE",
"467 453 OFFCURVE",
"488 457 CURVE SMOOTH",
"517 462 LINE",
"517 497 LINE",
"409 493 LINE",
"312 497 LINE",
"312 462 LINE",
"349 458 LINE SMOOTH",
"393 453 OFFCURVE",
"384 427 OFFCURVE",
"362 399 CURVE SMOOTH",
"259 265 LINE",
"291 234 LINE"
);
}
);
width = 543;
}
);
unicode = 0078;
},
{
color = 1;
glyphname = y;
lastChange = "2018-06-15 20:34:38 +0000";
layers = (
{
anchors = (
{
name = bottom;
position = "{264, 0}";
},
{
name = top;
position = "{264, 506}";
}
);
background = {
components = (
{
name = v;
transform = "{1, 0, 0, 1, 9, 0}";
}
);
};
guideLines = (
{
angle = 180;
position = "{792, -205}";
}
);
layerId = "5A1ECF60-5C3D-4C60-84B4-C69E600E0422";
paths = (
{
closed = 1;
nodes = (
"292 -266 OFFCURVE",
"360 -79 OFFCURVE",
"400 73 CURVE SMOOTH",
"476 359 LINE SMOOTH",
"481 377 OFFCURVE",
"494 401 OFFCURVE",
"513 405 CURVE SMOOTH",
"535 410 LINE",
"535 507 LINE",
"398 504 LINE",
"309 507 LINE",
"309 410 LINE",
"337 408 LINE SMOOTH",
"358 407 OFFCURVE",
"352 373 OFFCURVE",
"347 351 CURVE SMOOTH",
"297 128 LINE",
"286 128 LINE",
"254 361 LINE SMOOTH",
"251 380 OFFCURVE",
"248 404 OFFCURVE",
"265 407 CURVE SMOOTH",
"285 410 LINE",
"285 507 LINE",
"186 504 LINE",
"-12 506 LINE",
"-12 409 LINE",
"3 406 LINE SMOOTH",
"18 403 OFFCURVE",
"31 392 OFFCURVE",
"36 373 CURVE SMOOTH",
"131 -8 LINE",
"248 2 LINE",
"234 -62 OFFCURVE",
"123 -79 OFFCURVE",
"30 -36 CURVE",
"-4 -70 LINE",
"28 -190 LINE"
);
}
);
width = 518;
},
{
anchors = (
{
name = bottom;
position = "{249, 0}";
},
{
name = top;
position = "{249, 500}";
}
);
background = {
components = (
{
name = v;
transform = "{1, 0, 0, 1, -7, 0}";
}
);
};
layerId = "1B5E7594-BD1E-41E1-80E1-0DE241437139";
paths = (
{
closed = 1;
nodes = (
"198 -226 OFFCURVE",
"247 -99 OFFCURVE",
"297 33 CURVE SMOOTH",
"448 432 LINE SMOOTH",
"454 448 OFFCURVE",
"462 460 OFFCURVE",
"480 460 CURVE SMOOTH",
"496 460 LINE",
"496 497 LINE",
"414 493 LINE",
"302 497 LINE",
"302 459 LINE",
"351 457 LINE SMOOTH",
"401 455 OFFCURVE",
"389 425 OFFCURVE",
"378 395 CURVE SMOOTH",
"262 77 LINE",
"254 77 LINE",
"139 410 LINE SMOOTH",
"130 435 OFFCURVE",
"131 455 OFFCURVE",
"165 457 CURVE SMOOTH",
"197 459 LINE",
"197 497 LINE",
"93 493 LINE",
"-2 497 LINE",
"-2 460 LINE",
"19 458 LINE SMOOTH",
"36 456 OFFCURVE",
"47 447 OFFCURVE",
"53 430 CURVE SMOOTH",
"214 1 LINE",
"236 1 LINE",
"203 -104 OFFCURVE",
"136 -153 OFFCURVE",
"44 -100 CURVE",
"34 -108 LINE",
"54 -186 LINE"
);
}
);
width = 496;
},
{
associatedMasterId = "5A1ECF60-5C3D-4C60-84B4-C69E600E0422";
background = {
components = (
{
name = v;
transform = "{1, 0, 0, 1, 10, 0}";
}
);
};
guideLines = (
{
position = "{819, -199}";
}
);
layerId = "BF21DE4A-CB32-4BB5-99A2-75E12A1CB238";
name = "Sep 27 17, 15:26";
paths = (
{
closed = 1;
nodes = (
"17 500 LINE",
"315 500 LINE",
"315 406 LINE",
"294 404 LINE SMOOTH",
"277 402 OFFCURVE",
"281 376 OFFCURVE",
"285 357 CURVE SMOOTH",
"317 186 LINE",
"327 125 LINE",
"381 347 LINE SMOOTH",
"386 369 OFFCURVE",
"392 402 OFFCURVE",
"370 404 CURVE SMOOTH",
"344 406 LINE",
"344 500 LINE",
"557 500 LINE",
"557 403 LINE",
"525 398 LINE SMOOTH",
"506 395 OFFCURVE",
"493 373 OFFCURVE",
"488 355 CURVE SMOOTH",
"408 73 LINE",
"342 -176 LINE",
"128 -199 LINE",
"107 -178 LINE",
"254 19 LINE",
"169 9 LINE",
"76 370 LINE SMOOTH",
"71 389 OFFCURVE",
"55 401 OFFCURVE",
"40 403 CURVE SMOOTH",
"17 406 LINE"
);
}
);
width = 545;
},
{
associatedMasterId = "1B5E7594-BD1E-41E1-80E1-0DE241437139";
background = {
components = (
{
name = v;
transform = "{1, 0, 0, 1, 14, 0}";
}
);
};
layerId = "5FC36906-1784-4AFE-9702-494E9DC1DB23";
name = "Mar 22 18, 20:34";
paths = (
{
closed = 1;
nodes = (
"10 504 LINE",
"103 500 LINE",
"209 504 LINE",
"209 469 LINE",
"177 466 LINE SMOOTH",
"143 463 OFFCURVE",
"140 446 OFFCURVE",
"148 421 CURVE SMOOTH",
"241 134 LINE",
"259 68 LINE",
"372 398 LINE SMOOTH",
"383 428 OFFCURVE",
"395 465 OFFCURVE",
"345 467 CURVE SMOOTH",
"296 469 LINE",
"296 504 LINE",
"407 500 LINE",
"495 504 LINE",
"495 469 LINE",
"480 469 LINE SMOOTH",
"462 469 OFFCURVE",
"453 451 OFFCURVE",
"447 435 CURVE SMOOTH",
"291 22 LINE SMOOTH",
"247 -95 OFFCURVE",
"175 -190 OFFCURVE",
"96 -200 CURVE",
"52 -147 LINE",
"52 -131 LINE",
"123 -111 OFFCURVE",
"202 -70 OFFCURVE",
"241 12 CURVE",
"211 4 LINE",
"67 434 LINE SMOOTH",
"61 451 OFFCURVE",
"53 465 OFFCURVE",
"32 467 CURVE SMOOTH",
"10 469 LINE"
);
}
);
width = 505;
},
{
associatedMasterId = "5A1ECF60-5C3D-4C60-84B4-C69E600E0422";
background = {
components = (
{
name = v;
transform = "{1, 0, 0, 1, -11, 0}";
}
);
};
guideLines = (
{
angle = 180;
position = "{798, -199}";
}
);
layerId = "64EC0153-9A07-493F-AA16-274D78019197";
name = "Mar 22 18, 20:44";
paths = (
{
closed = 1;
nodes = (
"-4 502 LINE",
"142 500 LINE",
"303 503 LINE",
"303 406 LINE",
"275 403 LINE SMOOTH",
"258 401 OFFCURVE",
"260 376 OFFCURVE",
"264 357 CURVE SMOOTH",
"296 186 LINE",
"306 125 LINE",
"360 347 LINE SMOOTH",
"365 369 OFFCURVE",
"370 402 OFFCURVE",
"348 404 CURVE SMOOTH",
"324 406 LINE",
"324 503 LINE",
"436 500 LINE",
"536 503 LINE",
"536 403 LINE",
"504 398 LINE SMOOTH",
"485 395 OFFCURVE",
"472 373 OFFCURVE",
"467 355 CURVE SMOOTH",
"383 73 LINE SMOOTH",
"337 -79 OFFCURVE",
"270 -220 OFFCURVE",
"96 -209 CURVE",
"1 -69 LINE",
"22 -38 LINE",
"101 -55 OFFCURVE",
"221 -35 OFFCURVE",
"253 18 CURVE",
"147 8 LINE",
"55 369 LINE SMOOTH",
"50 388 OFFCURVE",
"34 400 OFFCURVE",
"19 402 CURVE SMOOTH",
"-4 405 LINE"
);
}
);
width = 532;
},
{
associatedMasterId = "5A1ECF60-5C3D-4C60-84B4-C69E600E0422";
background = {
components = (
{
name = g;
transform = "{1, 0, 0, 1, 17, -20}";
}
);
};
guideLines = (
{
angle = 180;
position = "{798, -199}";
}
);
layerId = "089DEA41-8D0B-45A3-A3E0-6ED219586F96";
name = "Mar 25 18, 15:51";
paths = (
{
closed = 1;
nodes = (
"-4 506 LINE",
"142 504 LINE",
"295 507 LINE",
"295 410 LINE",
"275 407 LINE SMOOTH",
"258 404 OFFCURVE",
"261 380 OFFCURVE",
"264 361 CURVE SMOOTH",
"296 186 LINE",
"304 128 LINE",
"358 351 LINE SMOOTH",
"363 373 OFFCURVE",
"367 407 OFFCURVE",
"346 408 CURVE SMOOTH",
"318 410 LINE",
"318 507 LINE",
"444 504 LINE",
"549 507 LINE",
"549 410 LINE",
"519 405 LINE SMOOTH",
"500 402 OFFCURVE",
"487 377 OFFCURVE",
"482 359 CURVE SMOOTH",
"406 73 LINE SMOOTH",
"366 -79 OFFCURVE",
"270 -220 OFFCURVE",
"96 -209 CURVE",
"1 -69 LINE",
"22 -38 LINE",
"111 -59 OFFCURVE",
"225 -51 OFFCURVE",
"252 2 CURVE",
"147 -10 LINE",
"55 373 LINE SMOOTH",
"50 392 OFFCURVE",
"34 404 OFFCURVE",
"19 406 CURVE SMOOTH",
"-4 409 LINE"
);
}
);
width = 532;
},
{
associatedMasterId = "1B5E7594-BD1E-41E1-80E1-0DE241437139";
background = {
components = (
{
name = f;
transform = "{-1, 0, 0, -1, 315, 611}";
}
);
};
layerId = "186947E6-732E-463A-A573-38C422A5256C";
name = "Mar 30 18, 20:24";
paths = (
{
closed = 1;
nodes = (
"-14 500 LINE",
"78 496 LINE",
"182 500 LINE",
"182 462 LINE",
"150 460 LINE SMOOTH",
"116 458 OFFCURVE",
"112 439 OFFCURVE",
"119 414 CURVE SMOOTH",
"219 72 LINE",
"226 72 LINE",
"341 398 LINE SMOOTH",
"352 428 OFFCURVE",
"366 458 OFFCURVE",
"316 460 CURVE SMOOTH",
"267 462 LINE",
"267 500 LINE",
"379 496 LINE",
"462 500 LINE",
"462 463 LINE",
"447 463 LINE SMOOTH",
"429 463 OFFCURVE",
"419 451 OFFCURVE",
"413 435 CURVE SMOOTH",
"265 33 LINE SMOOTH",
"216 -99 OFFCURVE",
"174 -226 OFFCURVE",
"30 -186 CURVE",
"14 -117 LINE",
"24 -109 LINE",
"116 -162 OFFCURVE",
"169 -106 OFFCURVE",
"200 2 CURVE",
"181 0 LINE",
"39 434 LINE SMOOTH",
"33 451 OFFCURVE",
"24 460 OFFCURVE",
"7 462 CURVE SMOOTH",
"-14 464 LINE"
);
}
);
width = 449;
}
);
unicode = 0079;
},
{
color = 1;
glyphname = z;
lastChange = "2018-06-15 20:38:41 +0000";
layers = (
{
anchors = (
{
name = bottom;
position = "{268, 0}";
},
{
name = top;
position = "{268, 506}";
}
);
layerId = "5A1ECF60-5C3D-4C60-84B4-C69E600E0422";
paths = (
{
closed = 1;
nodes = (
"199 4 OFFCURVE",
"339 4 OFFCURVE",
"477 -4 CURVE",
"500 22 LINE",
"490 206 LINE",
"387 206 LINE",
"388 139 OFFCURVE",
"360 104 OFFCURVE",
"298 103 CURVE SMOOTH",
"240 102 LINE",
"289 138 LINE",
"510 360 LINE",
"466 509 LINE",
"331 503 OFFCURVE",
"202 503 OFFCURVE",
"67 510 CURVE",
"46 489 LINE",
"55 287 LINE",
"157 287 LINE",
"155 353 OFFCURVE",
"176 393 OFFCURVE",
"225 394 CURVE SMOOTH",
"303 395 LINE",
"263 365 LINE",
"20 121 LINE",
"61 -4 LINE"
);
}
);
width = 538;
},
{
anchors = (
{
name = bottom;
position = "{234, 0}";
},
{
name = top;
position = "{234, 500}";
}
);
background = {
components = (
{
name = n;
transform = "{1, 0, 0, 1, -71, 0}";
}
);
};
layerId = "1B5E7594-BD1E-41E1-80E1-0DE241437139";
paths = (
{
closed = 1;
nodes = (
"163 3 OFFCURVE",
"287 4 OFFCURVE",
"413 -2 CURVE",
"427 13 LINE",
"420 145 LINE",
"380 145 LINE",
"382 67 OFFCURVE",
"355 45 OFFCURVE",
"322 45 CURVE SMOOTH",
"118 43 LINE",
"152 82 LINE",
"432 472 LINE",
"421 497 LINE",
"299 493 OFFCURVE",
"184 493 OFFCURVE",
"63 498 CURVE",
"51 486 LINE",
"54 351 LINE",
"93 351 LINE",
"96 427 OFFCURVE",
"108 448 OFFCURVE",
"153 448 CURVE SMOOTH",
"346 448 LINE",
"315 416 LINE",
"28 22 LINE",
"39 0 LINE"
);
}
);
width = 469;
}
);
unicode = 007A;
},
{
color = 1;
glyphname = period;
lastChange = "2018-06-15 20:12:08 +0000";
layers = (
{
layerId = "1B5E7594-BD1E-41E1-80E1-0DE241437139";
paths = (
{
closed = 1;
nodes = (
"212 -14 OFFCURVE",
"233 7 OFFCURVE",
"233 43 CURVE SMOOTH",
"233 78 OFFCURVE",
"212 99 OFFCURVE",
"177 99 CURVE SMOOTH",
"141 99 OFFCURVE",
"120 78 OFFCURVE",
"120 43 CURVE SMOOTH",
"120 7 OFFCURVE",
"141 -14 OFFCURVE",
"177 -14 CURVE SMOOTH"
);
}
);
width = 353;
},
{
layerId = "5A1ECF60-5C3D-4C60-84B4-C69E600E0422";
paths = (
{
closed = 1;
nodes = (
"244 -5 OFFCURVE",
"282 34 OFFCURVE",
"282 108 CURVE SMOOTH",
"282 182 OFFCURVE",
"244 220 OFFCURVE",
"170 220 CURVE SMOOTH",
"96 220 OFFCURVE",
"57 182 OFFCURVE",
"57 108 CURVE SMOOTH",
"57 34 OFFCURVE",
"96 -5 OFFCURVE",
"170 -5 CURVE SMOOTH"
);
}
);
width = 339;
}
);
unicode = 002E;
},
{
color = 1;
glyphname = comma;
lastChange = "2018-06-15 20:12:08 +0000";
layers = (
{
guideLines = (
{
position = "{1223, 100}";
}
);
layerId = "1B5E7594-BD1E-41E1-80E1-0DE241437139";
paths = (
{
closed = 1;
nodes = (
"172 -43 OFFCURVE",
"149 -82 OFFCURVE",
"114 -106 CURVE",
"113 -122 LINE",
"137 -148 LINE",
"186 -108 OFFCURVE",
"227 -38 OFFCURVE",
"227 22 CURVE SMOOTH",
"227 74 OFFCURVE",
"210 104 OFFCURVE",
"169 104 CURVE SMOOTH",
"133 104 OFFCURVE",
"111 83 OFFCURVE",
"111 48 CURVE SMOOTH",
"111 12 OFFCURVE",
"130 -15 OFFCURVE",
"177 -1 CURVE"
);
}
);
width = 334;
},
{
layerId = "5A1ECF60-5C3D-4C60-84B4-C69E600E0422";
paths = (
{
closed = 1;
nodes = (
"159 -25 OFFCURVE",
"117 -45 OFFCURVE",
"65 -56 CURVE",
"53 -87 LINE",
"116 -148 LINE",
"179 -117 OFFCURVE",
"280 -42 OFFCURVE",
"280 108 CURVE SMOOTH",
"280 172 OFFCURVE",
"242 220 OFFCURVE",
"168 220 CURVE SMOOTH",
"104 220 OFFCURVE",
"55 172 OFFCURVE",
"55 108 CURVE SMOOTH",
"55 34 OFFCURVE",
"97 -10 OFFCURVE",
"177 2 CURVE"
);
}
);
width = 320;
}
);
unicode = 002C;
},
{
color = 1;
glyphname = exclam;
lastChange = "2018-06-15 20:12:08 +0000";
layers = (
{
background = {
paths = (
{
closed = 1;
nodes = (
"217 -12 OFFCURVE",
"243 17 OFFCURVE",
"243 55 CURVE SMOOTH",
"243 89 OFFCURVE",
"222 117 OFFCURVE",
"182 117 CURVE SMOOTH",
"139 117 OFFCURVE",
"114 88 OFFCURVE",
"114 50 CURVE SMOOTH",
"114 18 OFFCURVE",
"133 -12 OFFCURVE",
"175 -12 CURVE SMOOTH"
);
},
{
closed = 1;
nodes = (
"175 220 LINE",
"205 227 LINE",
"262 741 LINE",
"252 752 LINE",
"162 733 LINE",
"154 722 LINE",
"163 228 LINE"
);
}
);
};
components = (
{
name = period;
transform = "{1, 0, 0, 1, -12, 0}";
}
);
layerId = "1B5E7594-BD1E-41E1-80E1-0DE241437139";
paths = (
{
closed = 1;
nodes = (
"145 216 LINE",
"155 209 LINE",
"190 219 LINE",
"217 728 LINE",
"203 745 LINE",
"121 726 LINE"
);
}
);
width = 334;
},
{
background = {
paths = (
{
closed = 1;
nodes = (
"242 -9 OFFCURVE",
"283 34 OFFCURVE",
"283 103 CURVE SMOOTH",
"283 167 OFFCURVE",
"247 204 OFFCURVE",
"183 204 CURVE SMOOTH",
"114 204 OFFCURVE",
"73 161 OFFCURVE",
"73 93 CURVE SMOOTH",
"73 27 OFFCURVE",
"109 -9 OFFCURVE",
"174 -9 CURVE SMOOTH"
);
},
{
closed = 1;
nodes = (
"139 263 LINE",
"249 280 LINE",
"328 741 LINE",
"301 769 LINE",
"99 741 LINE",
"80 716 LINE",
"116 285 LINE"
);
}
);
};
components = (
{
name = period;
}
);
guideLines = (
{
position = "{186, 753}";
}
);
layerId = "5A1ECF60-5C3D-4C60-84B4-C69E600E0422";
paths = (
{
closed = 1;
nodes = (
"90 294 LINE",
"114 278 LINE",
"247 293 LINE",
"283 736 LINE",
"255 762 LINE",
"58 744 LINE"
);
}
);
width = 339;
}
);
unicode = 0021;
},
{
color = 1;
glyphname = exclamdown;
lastChange = "2018-06-15 20:12:08 +0000";
layers = (
{
components = (
{
name = period;
transform = "{-1, 0, 0, -1, 344, 494}";
}
);
layerId = "1B5E7594-BD1E-41E1-80E1-0DE241437139";
paths = (
{
closed = 1;
nodes = (
"191 303 LINE",
"181 310 LINE",
"146 300 LINE",
"119 -197 LINE",
"133 -214 LINE",
"215 -195 LINE"
);
}
);
width = 335;
},
{
components = (
{
name = period;
transform = "{-1, 0, 0, -1, 340, 524}";
}
);
layerId = "5A1ECF60-5C3D-4C60-84B4-C69E600E0422";
paths = (
{
closed = 1;
nodes = (
"250 230 LINE",
"226 246 LINE",
"93 231 LINE",
"57 -212 LINE",
"85 -238 LINE",
"282 -220 LINE"
);
}
);
width = 341;
}
);
unicode = 00A1;
},
